<?xml version="1.0" encoding="utf-8"?>
<!-- Generator: Adobe Illustrator 25.2.0, SVG Export Plug-In . SVG Version: 6.00 Build 0)  -->
<svg version="1.1" id="Layer_1" xmlns="http://www.w3.org/2000/svg" xmlns:xlink="http://www.w3.org/1999/xlink" x="0px" y="0px"
	 viewBox="0 0 149.51 149.51" style="enable-background:new 0 0 415.09 149.51;" xml:space="preserve" width="37px" height="37px">
<style type="text/css">
	.st0{fill-rule:evenodd;clip-rule:evenodd;fill:#FFFFFF;}
</style>
<path class="st0" d="M112,46.8L88.07,58.41c-1.82,0.89-3.3,2.36-4.19,4.18L72.24,86.47c-1.1,2.26-4.33,2.26-5.43,0L55.18,62.59
	c-0.89-1.82-2.36-3.29-4.19-4.18L27.06,46.8c-2.27-1.1-2.27-4.32,0-5.42l23.93-11.61c1.83-0.89,3.3-2.36,4.19-4.18L66.81,1.7
	c1.1-2.26,4.33-2.26,5.43,0l11.63,23.89c0.89,1.82,2.36,3.29,4.19,4.18L112,41.38C114.26,42.47,114.26,45.7,112,46.8z M25.82,82.92
	l5.78,11.87c0.59,1.22,1.58,2.2,2.79,2.79l11.9,5.77c1.7,0.83,1.7,3.24,0,4.07l-11.9,5.77c-1.22,0.59-2.2,1.57-2.79,2.79
	l-5.78,11.88c-0.83,1.69-3.25,1.69-4.07,0l-5.78-11.88c-0.59-1.22-1.57-2.2-2.79-2.79l-11.9-5.77c-1.7-0.82-1.7-3.24,0-4.07
	l11.9-5.77c1.22-0.59,2.2-1.57,2.79-2.79l5.78-11.87C22.58,81.23,25,81.23,25.82,82.92z M70.84,130.36l9.1-4.42
	c0.91-0.44,1.65-1.18,2.09-2.09l4.42-9.09c0.55-1.13,2.17-1.13,2.72,0l4.43,9.09c0.44,0.91,1.18,1.65,2.09,2.09l9.1,4.42
	c1.13,0.55,1.13,2.16,0,2.71l-10.51,5.1l-5.11,10.49c-0.55,1.13-2.17,1.13-2.72,0l-4.42-9.08c-0.44-0.91-1.18-1.65-2.09-2.09
	l-9.1-4.42C69.71,132.52,69.71,130.91,70.84,130.36z"/>
</svg>
