<svg xmlns="http://www.w3.org/2000/svg" width="274" height="72">
    <path fill-rule="evenodd" fill="#FFF" d="M252.162 70.537V57.088h21.024v13.449h-21.024zm-21.211 0-10.062-19.19h-2.397l-10.062 19.19h-14.853l14.374-24.946-13.416-23.987h14.854l9.103 18.23h2.397l9.103-18.23h14.854L231.43 45.591l14.374 24.946h-14.853zm-75.18-17.175a13.815 13.815 0 0 0 2.778 3.695 12.952 12.952 0 0 0 3.786 2.494 10.97 10.97 0 0 0 4.408.911c2.172 0 3.944-.302 5.318-.911 1.374-.607 2.508-1.262 3.403-1.967a9.9 9.9 0 0 0 2.299-2.879h14.376a24.967 24.967 0 0 1-4.792 8.636 26.655 26.655 0 0 1-3.354 3.166c-1.28 1.024-2.748 1.952-4.409 2.782-1.661.833-3.561 1.488-5.702 1.968-2.14.479-4.52.719-7.139.719-3.706 0-7.172-.672-10.398-2.015-3.227-1.343-6.022-3.181-8.384-5.517-2.365-2.334-4.218-5.085-5.559-8.251-1.342-3.167-2.013-6.54-2.013-10.123 0-3.581.671-6.955 2.013-10.122 1.341-3.166 3.194-5.916 5.559-8.251 2.362-2.334 5.157-4.174 8.384-5.517 3.226-1.343 6.692-2.015 10.398-2.015 3.833 0 7.331.672 10.493 2.015 3.163 1.343 5.895 3.199 8.194 5.564 2.3 2.368 4.073 5.119 5.318 8.252 1.247 3.135 1.87 6.493 1.87 10.074v2.879h-38.332c.253 1.535.75 3.007 1.485 4.413zm22.471-12.568a11.473 11.473 0 0 0-1.341-3.455 11.08 11.08 0 0 0-2.443-2.878c-.992-.831-2.142-1.502-3.45-2.015-1.31-.511-2.731-.767-4.265-.767-3.131 0-5.735.911-7.809 2.734-2.078 1.823-3.468 3.95-4.169 6.381h23.477zM119.307 64.3h-.479c-1.022 1.408-2.269 2.686-3.737 3.838-1.28.96-2.86 1.84-4.745 2.639-1.884.799-4.168 1.199-6.851 1.199-3.131 0-6.053-.609-8.768-1.823-2.716-1.215-5.096-2.941-7.14-5.181-2.045-2.239-3.657-4.957-4.839-8.155-1.183-3.198-1.774-6.78-1.774-10.747 0-3.965.591-7.546 1.774-10.746 1.182-3.197 2.794-5.915 4.839-8.155a21.446 21.446 0 0 1 7.14-5.181c2.715-1.215 5.637-1.823 8.768-1.823 2.683 0 4.967.4 6.851 1.199 1.885.801 3.465 1.679 4.745 2.639 1.468 1.151 2.715 2.431 3.737 3.838h.479V3.375h13.417v67.162h-13.417V64.3zm-3.498-28.88c-2.333-2.494-5.319-3.741-8.96-3.741-3.387 0-6.229 1.247-8.529 3.741-2.3 2.495-3.449 6.045-3.449 10.65 0 4.606 1.149 8.156 3.449 10.651 2.3 2.494 5.142 3.741 8.529 3.741 3.641 0 6.627-1.247 8.96-3.741 2.332-2.495 3.498-6.045 3.498-10.651 0-4.605-1.166-8.155-3.498-10.65zm-55.916 7.293c0-3.647-.895-6.396-2.683-8.252-1.789-1.855-4.249-2.782-7.378-2.782-1.533 0-3.004.32-4.408.959a11.668 11.668 0 0 0-3.691 2.639c-1.053 1.119-1.884 2.479-2.49 4.077-.609 1.599-.911 3.359-.911 5.277v25.906H24.916V21.604h13.416v6.716h.479c.894-1.535 2.076-2.878 3.546-4.029 1.276-1.023 2.858-1.968 4.744-2.831 1.883-.863 4.231-1.295 7.043-1.295 6.004 0 10.7 1.743 14.087 5.229 3.385 3.487 5.08 8.62 5.08 15.4v29.743H59.893V42.713zM7.666 15.367c-2.174 0-3.993-.719-5.463-2.158C.734 11.77-.001 10.091-.001 8.172s.735-3.598 2.204-5.037C3.673 1.695 5.492.976 7.666.976c2.171 0 3.992.719 5.463 2.159 1.468 1.439 2.203 3.118 2.203 5.037s-.735 3.598-2.203 5.037c-1.471 1.439-3.292 2.158-5.463 2.158zm6.708 55.17H.958V21.604h13.416v48.933z"/>
</svg>
