<svg xmlns="http://www.w3.org/2000/svg" width="251" height="109">
    <path fill-rule="evenodd" fill="#FFF" d="M247.936 65.178c-1.837 4.734-4.266 8.753-7.285 12.059-3.02 3.305-6.489 5.857-10.407 7.652-3.917 1.794-7.957 2.693-12.12 2.693-3.837 0-7.04-.572-9.611-1.714-2.571-1.142-4.612-2.387-6.121-3.734-1.511-1.347-2.919-3.203-4.224-5.57h-.857l-1.592 9.182h-17.14L193.638.045h17.14l-5.387 30.853h.735c1.387-1.715 3.061-3.264 5.02-4.653 1.631-1.142 3.673-2.222 6.121-3.244 2.449-1.02 5.305-1.53 8.57-1.53 3.509 0 6.774.673 9.795 2.02a23.726 23.726 0 0 1 7.896 5.692c2.244 2.449 3.999 5.388 5.265 8.815 1.264 3.428 1.897 7.224 1.897 11.386 0 5.797-.918 11.061-2.754 15.794zm-18.671-25.037c-2.613-2.651-6.121-3.979-10.529-3.979-2.368 0-4.612.49-6.733 1.469-2.124.98-4.001 2.387-5.632 4.224-1.634 1.836-2.919 4.101-3.857 6.795-.939 2.693-1.408 5.796-1.408 9.304 0 4.652 1.326 8.306 3.979 10.958 2.652 2.653 6.141 3.979 10.468 3.979 2.366 0 4.61-.49 6.734-1.47 2.121-.979 3.998-2.387 5.632-4.223 1.631-1.837 2.917-4.102 3.856-6.795.937-2.694 1.408-5.794 1.408-9.305 0-4.652-1.306-8.304-3.918-10.957zM164.01 77.176c-3.02 3.347-6.489 5.918-10.406 7.713-3.918 1.794-7.958 2.693-12.121 2.693-3.837 0-7.04-.572-9.611-1.714-2.571-1.142-4.612-2.407-6.121-3.795-1.511-1.387-2.919-3.264-4.224-5.632h-.857l-5.632 32.566h-17.14l15.059-85.7h17.14l-1.347 7.591h.735c1.387-1.715 3.061-3.264 5.02-4.653 1.631-1.142 3.672-2.222 6.121-3.244 2.449-1.02 5.305-1.53 8.57-1.53 3.509 0 6.774.654 9.794 1.958a23.02 23.02 0 0 1 7.897 5.632c2.244 2.449 3.998 5.387 5.265 8.815 1.264 3.428 1.897 7.223 1.897 11.386 0 5.877-.918 11.162-2.754 15.854-1.837 4.695-4.266 8.714-7.285 12.06zm-11.263-37.035c-2.614-2.651-6.122-3.979-10.53-3.979-2.367 0-4.612.49-6.733 1.469-2.124.98-4 2.387-5.632 4.224-1.633 1.836-2.919 4.101-3.856 6.795-.94 2.693-1.408 5.796-1.408 9.304 0 4.652 1.325 8.306 3.979 10.958 2.651 2.653 6.14 3.979 10.467 3.979 2.367 0 4.611-.49 6.734-1.47 2.122-.979 3.998-2.387 5.632-4.223 1.632-1.837 2.917-4.102 3.857-6.795.937-2.694 1.407-5.794 1.407-9.305 0-4.652-1.306-8.304-3.917-10.957zM81.262 72.557l-.469 3.63-39.479 21.78-1.442-.945-36.44-23.86L0 70.915l.791-3.693 9.496-44.27L41.25 11.086l19.546 3.27.734.113 21.175 23.87 2.593 2.923-.231 1.889-3.805 29.406zm-4.504-20.448-5.585 7.123 3.847 6.328 1.738-13.451zm-9.186 11.718-4.682 5.98 8.642.541-3.96-6.521zm-3.036-4.994-8.75-14.423-5.872 24.584 6.351.402 8.271-10.563zm2.617 16.764-8.38-.533-7.114 9.074 15.494-8.541zm-15.002-.97-3.528-.224-1.626 6.805 5.154-6.581zM39.652 88.375l3.423-14.316-27.98-1.77 24.557 16.086zM16.4 28.235l-5.862 27.358 23.59-34.149L16.4 28.235zm-6.719 38.2 34.685 2.197 7.361-30.889-10.395-17.139L9.681 66.435zm37.256-47.174 6.624 10.922 2.256-9.437-8.88-1.485zm13.683 4.89L57.6 36.829l10.557 17.39 8.978-11.471L60.62 24.151z"/>
</svg>
