<svg xmlns="http://www.w3.org/2000/svg" width="246" height="71">
    <path fill-rule="evenodd" fill="#FFF" d="m245.144 48.167-5.101 2.494a6.548 6.548 0 0 0-3.002 3.016l-2.481 5.137c-.552 1.129-2.153 1.129-2.705 0l-2.482-5.137a6.546 6.546 0 0 0-3.001-3.016l-5.102-2.494c-1.124-.554-1.124-2.164 0-2.718l5.102-2.494a6.471 6.471 0 0 0 3.001-3.026l2.482-5.137c.552-1.13 2.153-1.13 2.705 0l2.991 6.192a3.145 3.145 0 0 0 1.442 1.46l6.151 3.005c1.125.554 1.125 2.164 0 2.718zm-16.724-31.29h-3.362c-10.128 0-18.348 8.259-18.348 18.437v17.435a2.323 2.323 0 0 1-2.312 2.324h-11.296a2.324 2.324 0 0 1-2.312-2.324V35.314C190.79 16.29 206.137.88 225.058.88h3.362a2.323 2.323 0 0 1 2.312 2.323v11.35a2.323 2.323 0 0 1-2.312 2.324zM184.331 31.04a2.312 2.312 0 0 1-2.301 2.121h-38.182a13.757 13.757 0 0 0 1.517 3.933c1.283 2.216 3.097 3.911 5.441 5.073 2.344 1.161 5.101 1.737 8.272 1.737 2.843 0 5.335-.427 7.478-1.29a17.493 17.493 0 0 0 4.284-2.472 2.303 2.303 0 0 1 3.129.245l5.218 5.68a2.343 2.343 0 0 1-.127 3.283c-2.142 1.982-4.667 3.57-7.594 4.753-3.691 1.492-7.954 2.238-12.769 2.238-6.078 0-11.402-1.194-15.994-3.581-4.593-2.387-8.146-5.659-10.649-9.805-2.513-4.145-3.765-8.803-3.765-14.174 0-5.371 1.241-10.135 3.712-14.281 2.471-4.146 5.855-7.396 10.15-9.752 4.285-2.344 9.344-3.527 14.552-3.527 5.207 0 9.916 1.119 14.106 3.336h.021c4.189 2.216 7.509 5.403 9.948 9.549 2.44 4.145 3.659 9.112 3.659 14.877 0 .597-.042 1.279-.106 2.036v.021zM168.39 19.53c-1.124-2.057-2.672-3.666-4.656-4.828-1.983-1.151-4.295-1.737-6.936-1.737s-4.964.576-6.979 1.737h-.01c-2.005 1.162-3.575 2.782-4.699 4.871-.721 1.353-1.209 2.867-1.463 4.529h26.228c-.244-1.684-.742-3.208-1.485-4.572zm-46.539 11.51a2.312 2.312 0 0 1-2.301 2.121H81.368a13.757 13.757 0 0 0 1.517 3.933c1.283 2.216 3.097 3.911 5.441 5.073 2.344 1.161 5.101 1.737 8.272 1.737 2.843 0 5.335-.427 7.478-1.29a17.517 17.517 0 0 0 4.285-2.472 2.301 2.301 0 0 1 3.128.245l5.218 5.68a2.343 2.343 0 0 1-.127 3.283c-2.142 1.982-4.667 3.57-7.594 4.753-3.691 1.492-7.954 2.238-12.769 2.238-6.078 0-11.402-1.194-15.994-3.581-4.593-2.387-8.146-5.659-10.649-9.805-2.513-4.145-3.765-8.803-3.765-14.174 0-5.371 1.241-10.135 3.712-14.281 2.472-4.146 5.855-7.396 10.15-9.752 4.285-2.344 9.344-3.527 14.552-3.527 5.207 0 9.916 1.119 14.106 3.336h.021c4.189 2.216 7.509 5.403 9.948 9.549 2.44 4.145 3.659 9.112 3.659 14.877 0 .597-.042 1.279-.106 2.036v.021zm-15.94-11.51c-1.125-2.057-2.673-3.666-4.657-4.828-1.983-1.151-4.295-1.737-6.936-1.737s-4.963.576-6.979 1.737h-.01c-2.005 1.162-3.574 2.782-4.699 4.871-.721 1.353-1.209 2.867-1.463 4.529h26.228c-.244-1.684-.742-3.208-1.484-4.572zM46.029 48.636c-4.486 2.025-9.832 3.037-16.036 3.037H18.347a2.323 2.323 0 0 0-2.312 2.323v14.558a2.323 2.323 0 0 1-2.312 2.324H2.311a2.323 2.323 0 0 1-2.312-2.324V3.555a2.316 2.316 0 0 1 2.312-2.324h27.692c6.205 0 11.55 1.013 16.037 3.027h-.011c4.486 2.025 7.955 4.924 10.394 8.707 2.439 3.784 3.659 8.366 3.659 13.535 0 5.169-1.22 9.645-3.659 13.429-2.439 3.783-5.908 6.682-10.394 8.707zm-5.833-31.088c-2.45-2.121-6.141-3.187-11.094-3.187H16.035v24.171h13.067c4.953 0 8.654-1.065 11.094-3.186v.011c2.439-2.121 3.659-5.009 3.659-8.857 0-3.847-1.22-6.831-3.659-8.952z"/>
</svg>
