<svg xmlns="http://www.w3.org/2000/svg" width="293" height="94">
    <path fill-rule="evenodd" fill="#FFF" d="m277.336 70.738-33.645-38.413v38.413h-10.43V22.906h15.409l33.645 38.279V22.906h10.43v47.832h-15.409zM176.871 22.906h47.44v8.006h-37.01v12.176h35.664v7.4h-35.664v12.244h37.01v8.006h-47.44V22.906zm-60.023 38.952 37.01-30.072h-37.01v-8.88h51.612v8.88l-37.077 30.072h37.077v8.88h-51.612v-8.88zm-28.779-17.38a2.01 2.01 0 0 1-1.155-.024L48.799 32.033a2.007 2.007 0 0 1-1.361-1.587L43.542 6.319a2 2 0 0 1 .468-1.637 2.016 2.016 0 0 1 1.557-.688l24.439.519a2.014 2.014 0 0 1 1.762 1.133l17.574 36.025a2.005 2.005 0 0 1-1.273 2.807zM46.265 88.19a2.003 2.003 0 0 1-1.118 1.284c-.269.12-.561.178-.855.172l-24.439-.519a2.014 2.014 0 0 1-1.763-1.133L.517 51.974a2.009 2.009 0 0 1 .289-2.197 2.009 2.009 0 0 1 2.137-.591l38.116 12.419a2.009 2.009 0 0 1 1.36 1.589l3.897 24.125c.047.291.029.588-.051.871zM29.489 41.049a2.006 2.006 0 0 1-1.588 1.359L3.768 46.303a2 2 0 0 1-.87-.052 1.998 1.998 0 0 1-1.285-1.117 1.998 1.998 0 0 1-.172-.855l.521-24.433a2 2 0 0 1 1.133-1.762L39.122.517a2.007 2.007 0 0 1 2.789 2.425L29.489 41.049zm30.88 11.542c.115-.351.323-.663.603-.903.28-.239.621-.397.985-.456l24.133-3.889a2.018 2.018 0 0 1 1.638.468 2.006 2.006 0 0 1 .69 1.557L87.896 73.8a1.998 1.998 0 0 1-1.132 1.761L50.73 93.129a1.995 1.995 0 0 1-1.143.184 2.01 2.01 0 0 1-1.639-2.615l12.421-38.107z"/>
</svg>
