<?xml version="1.0" encoding="iso-8859-1"?>
<!-- Uploaded to: SVG Repo, www.svgrepo.com, Generator: SVG Repo Mixer Tools -->
<svg height="80px" width="80px" version="1.1" id="Capa_1" xmlns="http://www.w3.org/2000/svg" xmlns:xlink="http://www.w3.org/1999/xlink" 
	 viewBox="0 0 393.35 393.35" xml:space="preserve">
<g>
	<path style="fill:#010002;" d="M374.02,175.541c12.648-18.541,19.33-40.236,19.33-62.736c0-61.493-50.031-111.532-111.524-111.532
		c-29.905,0-57.997,11.697-79.083,32.953c-3.162,3.186-3.146,8.324,0.041,11.494c3.186,3.154,8.332,3.146,11.494-0.049
		c18.013-18.143,42-28.141,67.548-28.141c52.527,0,95.267,42.74,95.267,95.275c0,19.216-5.706,37.741-16.517,53.6
		c-2.26,3.308-4.999,6.73-8.714,10.844L196.679,370.935L40.57,176.069c-2.057-2.3-3.959-4.723-5.999-7.511l-0.967-1.203
		c-0.171-0.341-0.366-0.675-0.585-0.992c-4.137-6.04-7.096-11.282-9.291-16.477c-4.958-11.73-7.478-24.199-7.478-37.083
		c0-52.535,42.74-95.275,95.267-95.275c24.833,0,48.332,9.519,66.183,26.8c3.227,3.113,8.372,3.04,11.494-0.187
		c3.121-3.227,3.04-8.364-0.179-11.494C168.115,12.425,140.6,1.28,111.524,1.28C50.031,1.28,0,51.312,0,112.812
		c0,15.062,2.951,29.661,8.763,43.415c2.422,5.731,5.544,11.396,9.754,17.712c0.293,0.748,0.699,1.455,1.211,2.105l1.926,2.398
		c2.146,2.934,4.381,5.771,6.511,8.137l162.165,202.45c1.536,1.926,3.869,3.048,6.34,3.048c2.471,0,4.804-1.122,6.34-3.048
		l161.198-201.231C368.111,183.499,371.313,179.507,374.02,175.541z"/>
</g>
</svg>