<?xml version="1.0" standalone="no"?>
<!DOCTYPE svg PUBLIC "-//W3C//DTD SVG 20010904//EN"
 "http://www.w3.org/TR/2001/REC-SVG-20010904/DTD/svg10.dtd">
<svg version="1.0" xmlns="http://www.w3.org/2000/svg"
 width="560.000000pt" height="560.000000pt" viewBox="0 0 560.000000 560.000000"
 preserveAspectRatio="xMidYMid meet">
<metadata>
Created by potrace 1.14, written by Peter Selinger 2001-2017
</metadata>
<g transform="translate(0.000000,560.000000) scale(0.100000,-0.100000)"
fill="#000000" stroke="none">
<path d="M2808 5495 c-1 -1 -41 -5 -88 -8 -119 -8 -306 -46 -375 -77 -93 -41
-240 -112 -245 -118 -3 -4 -23 -17 -45 -29 -37 -21 -290 -167 -353 -204 -50
-30 -391 -228 -574 -335 -101 -58 -217 -131 -258 -161 -169 -124 -342 -337
-433 -533 -38 -82 -77 -182 -83 -215 -1 -5 -7 -28 -12 -50 -12 -44 -19 -81
-32 -165 -10 -65 -7 -1654 3 -1690 4 -14 10 -41 13 -60 3 -19 8 -38 10 -41 2
-4 6 -24 10 -45 3 -22 9 -43 12 -49 4 -5 7 -14 9 -20 8 -38 13 -55 29 -90 10
-22 18 -42 19 -45 15 -51 107 -211 173 -298 64 -86 181 -204 262 -267 55 -42
174 -118 265 -170 87 -49 114 -64 194 -111 126 -75 147 -87 203 -118 29 -15
59 -33 67 -39 17 -14 50 -33 80 -47 13 -6 35 -19 50 -29 27 -19 111 -67 148
-85 13 -6 23 -14 23 -18 0 -5 5 -8 10 -8 6 0 43 -19 83 -43 127 -77 170 -101
247 -138 75 -36 238 -94 295 -104 17 -2 41 -7 54 -10 136 -27 376 -26 511 3
138 30 183 42 197 54 7 6 13 8 13 5 0 -6 83 28 150 61 31 15 98 53 185 104 17
10 50 29 75 43 25 14 52 30 60 35 8 6 76 45 150 88 328 190 740 432 792 465
185 119 364 316 470 517 32 62 64 133 68 155 1 6 5 15 9 20 5 6 12 24 16 40 5
17 9 32 10 35 31 103 39 142 52 245 10 75 11 1568 1 1650 -7 61 -9 71 -29 160
-44 194 -145 401 -273 560 -76 95 -258 265 -284 265 -6 0 -12 4 -14 9 -4 11
-74 54 -208 129 -25 13 -52 31 -61 38 -8 8 -18 14 -21 14 -5 0 -437 250 -504
292 -21 14 -44 27 -49 29 -8 3 -155 89 -283 164 -52 31 -212 116 -217 115 -3
0 -19 7 -36 15 -39 21 -135 52 -219 71 -85 20 -109 24 -210 30 -47 3 -90 7
-97 9 -6 2 -13 2 -15 0z m127 -869 c65 -12 140 -51 550 -291 215 -125 410
-239 435 -253 47 -27 164 -96 190 -112 8 -5 33 -19 55 -31 127 -68 220 -161
271 -272 54 -119 53 -105 53 -898 0 -686 -1 -739 -18 -796 -22 -73 -70 -173
-82 -173 -5 0 -9 -6 -9 -13 0 -14 -88 -101 -138 -135 -18 -13 -58 -37 -90 -54
-31 -17 -64 -37 -73 -44 -8 -8 -18 -14 -21 -14 -3 0 -106 -59 -229 -131 -123
-73 -238 -140 -256 -150 -17 -10 -50 -29 -72 -43 -22 -15 -43 -26 -46 -26 -3
0 -29 -15 -58 -33 -29 -18 -77 -46 -107 -63 -30 -16 -57 -31 -60 -34 -8 -8
-162 -94 -195 -109 -164 -72 -345 -57 -516 44 -60 35 -79 46 -161 94 -18 10
-57 32 -86 50 -29 17 -57 31 -62 31 -6 0 -10 5 -10 10 0 6 -7 10 -15 10 -8 0
-15 4 -15 9 0 5 -10 13 -22 17 -13 3 -55 26 -94 50 -39 24 -74 44 -78 44 -4 0
-14 6 -21 12 -7 7 -139 85 -292 173 -242 139 -287 169 -349 231 -47 46 -82 93
-102 135 -64 131 -63 112 -63 904 1 396 3 734 6 750 25 131 78 230 170 318 37
34 128 95 230 152 22 13 98 57 169 99 70 42 130 76 132 76 2 0 28 16 58 35 30
19 58 35 61 35 4 0 19 8 33 19 15 10 47 29 72 43 25 14 119 69 209 122 90 53
165 96 167 96 2 0 27 15 56 33 132 83 267 109 423 83z"/>
<path d="M2782 4339 c-63 -8 -134 -40 -184 -83 -31 -28 -78 -100 -78 -121 0
-8 -4 -15 -10 -15 -5 0 -10 -5 -10 -10 0 -6 -30 -72 -67 -148 -37 -75 -67
-139 -68 -142 0 -3 -34 -72 -75 -155 -66 -133 -82 -158 -145 -220 -61 -61 -90
-80 -211 -139 -574 -283 -563 -277 -613 -352 -86 -131 -69 -303 41 -413 39
-38 67 -53 540 -286 277 -136 273 -134 325 -245 12 -25 58 -121 103 -215 45
-93 113 -233 150 -311 63 -132 98 -181 164 -232 41 -32 93 -46 176 -46 155 0
235 61 328 253 30 64 56 119 56 123 1 4 7 13 14 20 6 6 12 16 12 22 0 9 45
104 140 297 50 101 62 118 123 181 44 45 156 120 167 113 5 -3 10 -2 12 2 1 5
46 29 98 55 52 26 178 88 280 138 196 96 241 130 286 210 42 75 47 184 13 275
-29 79 -95 141 -209 196 -571 279 -571 279 -647 356 -78 78 -67 58 -316 573
-46 97 -99 193 -117 213 -69 79 -172 118 -278 106z"/>
</g>
</svg>
