<?xml version="1.0" standalone="no"?>
<!DOCTYPE svg PUBLIC "-//W3C//DTD SVG 20010904//EN"
 "http://www.w3.org/TR/2001/REC-SVG-20010904/DTD/svg10.dtd">
<svg version="1.0" xmlns="http://www.w3.org/2000/svg"
 width="500.000000pt" height="500.000000pt" viewBox="0 0 500.000000 500.000000"
 preserveAspectRatio="xMidYMid meet">
<metadata>
Created by potrace 1.14, written by Peter Selinger 2001-2017
</metadata>
<g transform="translate(0.000000,500.000000) scale(0.100000,-0.100000)"
fill="#000000" stroke="none">
<path d="M2329 4886 c-2 -2 -38 -6 -79 -10 -41 -3 -84 -8 -95 -10 -11 -2 -51
-9 -90 -16 -115 -20 -348 -85 -430 -120 -142 -59 -300 -140 -411 -210 -222
-139 -468 -361 -607 -549 -23 -31 -47 -62 -54 -68 -6 -7 -21 -29 -34 -50 -13
-21 -26 -40 -29 -43 -25 -21 -176 -309 -222 -424 -21 -53 -78 -220 -83 -246
-2 -8 -12 -53 -23 -100 -25 -108 -34 -157 -51 -295 -10 -75 -7 -477 4 -535 3
-19 15 -85 25 -146 82 -468 320 -916 671 -1263 383 -380 863 -610 1411 -678
129 -16 514 -9 618 12 13 2 42 7 65 10 230 33 539 146 777 283 99 57 269 172
298 202 3 3 34 30 70 60 299 254 548 612 683 985 42 114 87 272 102 360 35
194 40 253 40 460 0 155 -10 339 -20 355 -2 3 -6 30 -10 60 -4 30 -9 58 -11
61 -2 3 -6 20 -9 38 -40 230 -185 574 -335 796 -86 128 -99 146 -137 192 -177
215 -383 397 -602 533 -85 53 -299 162 -341 175 -14 4 -29 11 -35 15 -13 9
-207 75 -252 85 -10 3 -38 9 -63 16 -25 6 -54 13 -65 15 -30 7 -174 32 -225
39 -50 7 -445 17 -451 11z"/>
</g>
</svg>
