<?xml version="1.0" standalone="no"?>
<!DOCTYPE svg PUBLIC "-//W3C//DTD SVG 20010904//EN"
 "http://www.w3.org/TR/2001/REC-SVG-20010904/DTD/svg10.dtd">
<svg version="1.0" xmlns="http://www.w3.org/2000/svg"
 width="500.000000pt" height="500.000000pt" viewBox="0 0 500.000000 500.000000"
 preserveAspectRatio="xMidYMid meet">
<metadata>
Created by potrace 1.14, written by Peter Selinger 2001-2017
</metadata>
<g transform="translate(0.000000,500.000000) scale(0.100000,-0.100000)"
fill="#000000" stroke="none">
<path d="M2225 4769 c-783 -104 -1438 -570 -1776 -1264 -99 -204 -161 -395
-204 -630 -23 -120 -31 -477 -15 -616 122 -1064 946 -1894 2005 -2019 139 -17
407 -14 550 5 970 129 1751 854 1944 1805 62 308 57 669 -16 975 -111 472
-380 913 -742 1217 -313 263 -682 434 -1106 514 -106 19 -527 28 -640 13z
m575 -431 c69 -11 177 -36 240 -55 109 -33 310 -119 310 -133 0 -3 -28 -12
-62 -19 -94 -19 -282 -83 -388 -133 -216 -101 -378 -219 -612 -445 -92 -90
-203 -191 -246 -225 -222 -177 -441 -286 -672 -334 -168 -36 -432 -20 -591 35
-63 22 -64 25 -23 136 210 562 697 994 1290 1143 250 63 492 73 754 30z m1126
-645 c211 -252 359 -585 409 -919 22 -148 25 -146 -60 -65 -281 267 -606 391
-985 378 -237 -9 -406 -49 -725 -175 -233 -91 -503 -162 -619 -162 -28 0 -24
4 44 43 201 116 356 234 554 426 88 86 190 179 226 207 283 224 591 331 957
333 l143 1 56 -67z m-422 -1038 c48 -8 100 -21 117 -28 27 -11 20 -12 -69 -13
-255 -4 -510 -99 -748 -277 -64 -48 -186 -160 -308 -282 -110 -111 -241 -231
-289 -267 -358 -265 -777 -375 -1147 -301 -140 28 -149 34 -218 169 -127 250
-189 492 -199 772 -3 94 -3 172 0 172 3 0 38 -18 79 -39 251 -135 583 -225
878 -240 403 -19 727 42 1160 217 293 119 524 155 744 117z m291 -485 c97 -26
200 -73 292 -132 82 -55 163 -125 163 -143 0 -27 -81 -211 -135 -306 -277
-489 -763 -828 -1316 -918 -177 -28 -285 -34 -439 -21 -249 20 -472 81 -684
185 -111 55 -306 180 -313 201 -2 7 29 13 90 17 333 22 706 174 1032 420 44
34 184 162 310 287 274 268 371 338 555 399 139 45 298 49 445 11z"/>
</g>
</svg>
