<?xml version="1.0" standalone="no"?>
<!DOCTYPE svg PUBLIC "-//W3C//DTD SVG 20010904//EN"
 "http://www.w3.org/TR/2001/REC-SVG-20010904/DTD/svg10.dtd">
<svg version="1.0" xmlns="http://www.w3.org/2000/svg"
 width="500.000000pt" height="500.000000pt" viewBox="0 0 500.000000 500.000000"
 preserveAspectRatio="xMidYMid meet">
<metadata>
Created by potrace 1.14, written by Peter Selinger 2001-2017
</metadata>
<g transform="translate(0.000000,500.000000) scale(0.100000,-0.100000)"
fill="#000000" stroke="none">
<path d="M2308 4945 c-2 -1 -32 -6 -68 -9 -208 -21 -485 -90 -642 -159 -32
-14 -58 -24 -58 -22 0 8 -265 -131 -335 -175 -88 -55 -202 -138 -280 -203 -68
-57 -266 -256 -307 -308 -14 -19 -36 -45 -48 -59 -44 -50 -189 -277 -243 -380
-111 -211 -215 -519 -242 -715 -3 -23 -7 -51 -10 -64 -13 -69 -20 -185 -20
-346 0 -226 7 -295 51 -525 12 -65 74 -280 93 -325 5 -11 23 -56 41 -100 80
-193 216 -421 350 -590 87 -109 286 -306 390 -387 378 -293 774 -455 1255
-513 105 -13 469 -14 540 -1 17 3 64 10 105 16 41 7 80 13 85 14 6 1 37 8 70
15 257 54 562 182 798 337 152 100 259 186 388 314 313 311 524 670 643 1097
35 124 53 223 75 408 13 109 10 388 -6 515 -15 124 -16 130 -32 205 -17 83
-18 88 -31 135 -7 25 -14 52 -15 60 -2 8 -19 60 -38 115 -246 715 -805 1274
-1521 1522 -107 37 -263 78 -336 88 -24 4 -47 8 -50 10 -5 3 -53 10 -180 24
-66 8 -415 13 -422 6z"/>
</g>
</svg>
