<svg xmlns="http://www.w3.org/2000/svg" width="47" height="51">
    <defs>
        <filter id="d0uadoz1va">
            <feFlood flood-color="#252525" flood-opacity="1" result="floodOut"/>
            <feComposite operator="atop" in="floodOut" in2="SourceGraphic" result="compOut"/>
            <feBlend in="compOut" in2="SourceGraphic"/>
        </filter>
    </defs>
    <g filter="url(#d0uadoz1va)">
        <path fill-rule="evenodd" d="M45.137 16.19 33.718 2.453l-.396-.065L22.783.506 6.086 7.334.966 32.811l-.427 2.125 1.85 1.293 19.65 13.731.778.544 21.288-12.533.254-2.089 2.052-16.923.124-1.087-1.398-1.682zM30.638 6.065l-1.217 5.431-3.572-6.286 4.789.855zm4.701 21.919-4.46 6.078-3.425-.231 3.167-14.148 4.718 8.301zM9.383 10.375l9.559-3.908L6.221 26.119l3.162-15.744zm12.538 34.609L8.679 35.727l15.088 1.019-1.846 8.238zM5.759 32.358 22.827 5.983l5.605 9.864-3.97 17.775-18.703-1.264zm20.999 4.585 1.903.13-2.779 3.787.876-3.917zm1.637 5.603 3.836-5.222 4.52.307-8.356 4.915zm6.057-8.247 2.524-3.441 2.136 3.752-4.66-.311zm6.541-2.444-2.075-3.642 3.012-4.099-.937 7.741zm-3.701-6.527-5.693-10.007 1.628-7.296 8.906 10.702-4.841 6.601z"/>
    </g>
</svg>
