<svg xmlns="http://www.w3.org/2000/svg" width="51" height="51">
    <defs>
        <linearGradient id="bk2hfumkzb" x1="0%" x2="0%" y1="100%" y2="0%">
            <stop offset="0%" stop-color="#85E3EC"/>
            <stop offset="51%" stop-color="#FFF"/>
            <stop offset="75%" stop-color="#F299FB"/>
            <stop offset="99%" stop-color="#E532F7"/>
        </linearGradient>
        <filter id="m06d3s9h0a">
            <feFlood flood-color="#252525" flood-opacity="1" result="floodOut"/>
            <feComposite operator="atop" in="floodOut" in2="SourceGraphic" result="compOut"/>
            <feBlend in="compOut" in2="SourceGraphic"/>
        </filter>
    </defs>
    <g filter="url(#m06d3s9h0a)">
        <path fill-rule="evenodd" fill="url(#bk2hfumkzb)" d="M49.941 30.937c-5.932-2.199-11.936-4.566-17.338-7.791-8.801-5.252-17.624-9.704-26.714-13.463A25.052 25.052 0 0 1 11.41 4.54a24.897 24.897 0 0 1 1.546-.97 386.207 386.207 0 0 0 22.336 11.297c4.975 2.312 10.028 4.563 15.054 6.764a25.183 25.183 0 0 1-.405 9.306zM15.259 2.382C26.123-2.527 39.269.897 46.23 11.081a25.002 25.002 0 0 1 3.611 7.981 701.5 701.5 0 0 1-13.643-6.143A384.031 384.031 0 0 1 15.259 2.382zm34.097 30.629a24.942 24.942 0 0 1-10.827 13.638 15.425 15.425 0 0 0-.701-1.587 17.403 17.403 0 0 0-1.153-1.93c-1.831-2.677-4.355-4.978-6.81-7.217l-.774-.707c-8.065-7.393-17.289-13.159-27.519-17.234a25.02 25.02 0 0 1 3.027-6.495c9.157 3.76 18.043 8.224 26.902 13.513 5.612 3.349 11.779 5.771 17.855 8.019zm-20.939 4.493c2.885 2.629 5.867 5.347 7.498 8.537.281.547.513 1.098.707 1.653-6.378 3.153-13.628 3.355-19.988.938a26.569 26.569 0 0 0-.162-3.212c-.291-2.475-1.164-4.534-2.376-6.307-2.127-3.111-5.302-5.344-8.23-7.401-.564-.396-1.124-.791-1.672-1.188-1.121-.809-2.302-1.528-3.502-2.2a25.185 25.185 0 0 1 .346-8.247c9.883 3.972 18.799 9.564 26.601 16.715l.778.712zM4.631 33.47c4.433 3.117 9.019 6.339 9.706 12.2.079.673.122 1.347.14 2.024a24.929 24.929 0 0 1-9.609-8.331 24.969 24.969 0 0 1-3.671-8.254c.596.369 1.176.753 1.738 1.158.557.403 1.125.802 1.696 1.203z"/>
    </g>
</svg>
