<svg xmlns="http://www.w3.org/2000/svg" width="65" height="46">
    <defs>
        <filter id="qjr5kif6la">
            <feFlood flood-color="#252525" flood-opacity="1" result="floodOut"/>
            <feComposite operator="atop" in="floodOut" in2="SourceGraphic" result="compOut"/>
            <feBlend in="compOut" in2="SourceGraphic"/>
        </filter>
    </defs>
    <g filter="url(#qjr5kif6la)">
        <path fill-rule="evenodd" fill="#45F1E3" d="M63.115 32.375c-2.036 5.299-6.086 9.395-11.111 11.235-1.604.588-3.27 1.048-4.881 1.493-.655.181-1.466.404-2.219.626a1.004 1.004 0 0 1-.361.038 1.624 1.624 0 0 0-.231.001 1.029 1.029 0 0 1-.147-.002c-.791-.071-1.598-.135-2.377-.197l-.073-.006c-1.757-.14-3.574-.285-5.372-.506C25.507 43.723 15.145 40.06 5.545 34.17 1.669 31.793.024 27.309 1.45 23.012l.074-.224c.959-2.889 1.95-5.876 3.816-8.333 3.918-5.159 8.61-8.984 13.946-11.368C23.863 1.041 29.044.004 34.684.004h.01c.962 0 1.954.031 2.946.092 11.506.706 19.535 5.657 24.546 15.135 2.766 5.231 3.105 11.48.929 17.144zM60.428 16.16C55.768 7.347 48.274 2.741 37.519 2.081a46.082 46.082 0 0 0-2.833-.089c-5.364 0-10.26.976-14.588 2.91-5.028 2.247-9.461 5.866-13.175 10.756-1.666 2.194-2.604 5.022-3.511 7.757l-.075.224c-1.129 3.401.177 6.952 3.248 8.836 9.356 5.74 19.45 9.309 30.001 10.608 1.743.215 3.536.358 5.271.496l.088.008c.78.062 1.586.126 2.395.198a.463.463 0 0 0 .174-.014c.715-.208 1.469-.416 2.074-.584 1.575-.434 3.202-.884 4.732-1.444 4.486-1.643 8.109-5.318 9.938-10.081 1.97-5.128 1.668-10.778-.83-15.502zm-6.587 20.792c-3.405 2.776-7.374 3.721-11.213 4.636a1.007 1.007 0 0 1-.418.01 1.004 1.004 0 0 1-.279.012c-12.73-1.296-18.477-4.479-22.42-7.422-3.729-2.783-6.081-5.738-6.991-8.782-.925-3.095-.381-6.3 1.617-9.526 4.607-7.438 12.24-11.279 22.686-11.416l.329-.002c7.41 0 14.015 3.293 18.597 9.274 2.765 3.608 4.048 8.051 3.612 12.512-.418 4.284-2.43 8.185-5.52 10.704zm.329-22.007C49.974 9.468 43.929 6.451 37.151 6.45c-.101 0-.201.001-.302.003-9.722.127-16.795 3.651-21.021 10.474-1.733 2.798-2.196 5.404-1.416 7.967.786 2.582 2.902 5.172 6.289 7.7 6.638 4.955 14.556 6.338 21.426 7.037.028.003.055.007.082.012 3.769-.897 7.329-1.749 10.375-4.232 2.682-2.186 4.431-5.597 4.798-9.357.386-3.957-.754-7.902-3.212-11.109zM43.681 35.669a5.244 5.244 0 0 1-.954.243c-.112.017-.224.03-.331.038a28.99 28.99 0 0 1-2.33.096c-6.324 0-11.48-2.205-15.706-6.702-3.119-3.318-4.384-8.998-.769-13.433 3.891-4.772 9.249-5.552 14.46-5.684.105-.002.21-.004.315-.004 3.19 0 6.62 1.26 9.41 3.457 2.844 2.24 4.743 5.154 5.346 8.206.635 3.215.078 6.07-1.655 8.484-1.633 2.274-4.253 4.057-7.786 5.299zm7.49-13.397c-.507-2.564-2.193-5.131-4.627-7.045-2.438-1.916-5.417-3.015-8.175-3.015l-.268.003c-8.014.203-10.969 2.5-12.968 4.953-2.894 3.549-1.85 8.127.676 10.814 4.327 4.604 9.735 6.566 16.533 5.996a.725.725 0 0 0 .153-.029l.582-.175c3.121-1.103 5.4-2.621 6.77-4.509 1.411-1.944 1.857-4.296 1.324-6.993zm-10.893 3.634c-.351.341-.628.533-1.033.457a1.037 1.037 0 0 1-.11.015 7.387 7.387 0 0 1-.564.023c-1.153 0-2.004-.307-2.535-.916-.359-.41-.731-1.155-.469-2.371.125-.576.526-1.187 1.1-1.676.546-.464 1.157-.741 1.635-.741h.034c1.146.027 3.033.829 3.383 2.025.271.928-.351 1.731-.951 2.509-.182.234-.322.512-.49.675zm-1.945-3.219c-.237.086-.777.64-.822.847-.078.365-.04.572.023.644.119.136.548.275 1.366.223.095-.129.193-.256.289-.379.145-.188.426-.552.551-.776-.274-.221-.935-.531-1.407-.559z"/>
    </g>
</svg>
