<svg xmlns="http://www.w3.org/2000/svg" width="45" height="47">
    <defs>
        <linearGradient id="m0xnj8jivb" x1="0%" x2="0%" y1="100%" y2="0%">
            <stop offset="0%" stop-color="#20FFA8"/>
            <stop offset="100%" stop-color="#68E0CF"/>
        </linearGradient>
        <filter id="mxpb54rjla">
            <feFlood flood-color="#252525" flood-opacity="1" result="floodOut"/>
            <feComposite operator="atop" in="floodOut" in2="SourceGraphic" result="compOut"/>
            <feBlend in="compOut" in2="SourceGraphic"/>
        </filter>
    </defs>
    <g filter="url(#mxpb54rjla)">
        <path fill-rule="evenodd" fill="url(#m0xnj8jivb)" d="M44.603 21.751a1.005 1.005 0 0 1-1.063.292l-18.988-6.157a.985.985 0 0 1-.45-.299.988.988 0 0 1-.228-.488l-1.94-11.96a.975.975 0 0 1 .233-.812.977.977 0 0 1 .35-.256.99.99 0 0 1 .425-.086l12.175.258a.994.994 0 0 1 .877.562l8.756 17.859a.992.992 0 0 1-.147 1.087zM23.289 43.725a.996.996 0 0 1-.205.38 1 1 0 0 1-.777.342l-12.176-.257a1.002 1.002 0 0 1-.877-.561L.501 25.772a.984.984 0 0 1 .142-1.09 1.004 1.004 0 0 1 1.065-.292l18.988 6.156a.999.999 0 0 1 .678.788l1.942 11.96c.022.144.013.291-.027.431zm-8.356-23.369a.996.996 0 0 1-.301.447c-.139.119-.309-.703-.49.227L2.12 22.96a1.01 1.01 0 0 1-.818-.232.984.984 0 0 1-.255-.347.986.986 0 0 1-.087-.424l.26-12.113a.994.994 0 0 1 .564-.873L19.733.262a.98.98 0 0 1 .568-.092 1 1 0 0 1 .833.72c.053.189.046.388-.013.574l-6.188 18.892zm15.384 5.722a.993.993 0 0 1 .79-.675l12.024-1.927c.144-.023.291-.015.433.025a1.012 1.012 0 0 1 .64.554 1 1 0 0 1 .085.425l-.261 12.111a.991.991 0 0 1-.564.873l-17.95 8.71a1.012 1.012 0 0 1-1.094-.145 1 1 0 0 1-.292-1.061l6.189-18.89z"/>
    </g>
</svg>
