<svg width="2131" height="681" viewBox="0 0 2131 681" fill="none" xmlns="http://www.w3.org/2000/svg">
<g clip-path="url(#clip0_38_415)">
<path d="M1513.09 119.112C1494.29 109.239 1473.16 104.249 1449.79 104.249C1426.42 104.249 1403.72 109.531 1384.5 119.961C1365.22 130.471 1350.04 144.961 1338.96 163.433C1327.87 181.904 1322.32 203.136 1322.32 227.101C1322.32 251.067 1327.93 271.794 1339.2 290.292C1350.42 308.764 1366.37 323.361 1386.97 334.003C1407.57 344.645 1431.47 349.953 1458.72 349.953C1480.34 349.953 1499.45 346.636 1516.01 339.974C1529.15 334.693 1540.47 327.633 1550.09 318.796C1554.3 314.894 1554.51 308.339 1550.65 304.172L1527.23 278.854C1523.56 274.873 1517.47 274.448 1513.19 277.766C1507.19 282.41 1500.78 286.072 1493.97 288.779C1484.35 292.628 1473.18 294.539 1460.42 294.539C1446.2 294.539 1433.81 291.964 1423.31 286.789C1412.81 281.614 1404.65 274.05 1398.91 264.177C1395.77 258.816 1393.54 252.978 1392.1 246.661H1563.41C1568.78 246.661 1573.28 242.574 1573.73 237.213V237.107C1574.02 233.736 1574.21 230.684 1574.21 228.03C1574.21 202.34 1568.73 180.206 1557.78 161.708C1546.82 143.236 1531.94 129.037 1513.14 119.138H1513.04L1513.09 119.112ZM1418.93 164.335C1427.96 159.16 1438.39 156.586 1450.24 156.586C1462.1 156.586 1472.47 159.186 1481.37 164.335C1490.28 169.51 1497.22 176.676 1502.27 185.859C1505.59 191.936 1507.82 198.73 1508.94 206.241H1391.28C1392.42 198.837 1394.6 192.096 1397.84 186.045C1402.89 176.729 1409.94 169.51 1418.93 164.335Z" fill="url(#paint0_linear_38_415)"/>
<path d="M1793.45 119.112C1774.66 109.239 1753.52 104.249 1730.16 104.249C1706.79 104.249 1684.08 109.531 1664.86 119.961C1645.59 130.471 1630.41 144.961 1619.32 163.433C1608.24 181.904 1602.68 203.136 1602.68 227.101C1602.68 251.067 1608.29 271.794 1619.56 290.292C1630.78 308.764 1646.73 323.361 1667.34 334.003C1687.94 344.645 1711.84 349.953 1739.09 349.953C1760.7 349.953 1779.82 346.636 1796.38 339.974C1809.51 334.693 1820.84 327.633 1830.46 318.796C1834.66 314.894 1834.87 308.339 1831.02 304.172L1807.6 278.854C1803.93 274.873 1797.84 274.448 1793.56 277.766C1787.55 282.41 1781.15 286.072 1774.34 288.779C1764.72 292.628 1753.55 294.539 1740.79 294.539C1726.57 294.539 1714.18 291.964 1703.68 286.789C1693.15 281.614 1685.01 274.05 1679.27 264.177C1676.14 258.816 1673.9 252.978 1672.47 246.661H1843.78C1849.15 246.661 1853.64 242.574 1854.09 237.213V237.107C1854.39 233.736 1854.57 230.684 1854.57 228.03C1854.57 202.34 1849.1 180.206 1838.14 161.708C1827.19 143.236 1812.3 129.037 1793.51 119.138H1793.4L1793.45 119.112ZM1699.29 164.335C1708.33 159.16 1718.75 156.586 1730.61 156.586C1742.46 156.586 1752.83 159.186 1761.74 164.335C1770.64 169.51 1777.58 176.676 1782.63 185.859C1785.96 191.936 1788.19 198.73 1789.31 206.241H1671.62C1672.76 198.837 1674.94 192.096 1678.18 186.045C1683.23 176.729 1690.28 169.51 1699.26 164.335H1699.32H1699.29Z" fill="url(#paint1_linear_38_415)"/>
<path d="M2036.79 102.708C1951.9 102.708 1883.05 171.393 1883.05 256.187V333.895C1883.05 339.601 1887.7 344.245 1893.41 344.245H1944.09C1949.8 344.245 1954.45 339.601 1954.45 333.895V256.187C1954.45 210.831 1991.33 173.993 2036.79 173.993H2051.86C2057.58 173.993 2062.23 169.349 2062.23 163.643V113.058C2062.23 107.352 2057.58 102.708 2051.86 102.708H2036.79Z" fill="url(#paint2_linear_38_415)"/>
<path d="M1233.64 117.767C1213.52 108.797 1189.54 104.285 1161.7 104.285H1037.45C1031.73 104.285 1027.08 108.903 1027.08 114.636V404.369C1027.08 410.075 1031.73 414.719 1037.45 414.719H1088.65C1094.36 414.719 1099.02 410.075 1099.02 404.369V339.48C1099.02 333.773 1103.67 329.129 1109.38 329.129H1161.62C1189.46 329.129 1213.44 324.617 1233.56 315.594C1253.69 306.57 1269.24 293.646 1280.19 276.793C1291.14 259.94 1296.62 239.982 1296.62 216.946C1296.62 193.91 1291.14 173.474 1280.19 156.621C1269.24 139.769 1253.69 126.844 1233.56 117.82H1233.61L1233.64 117.767ZM1207.43 256.331C1196.48 265.779 1179.89 270.53 1157.66 270.53H1099.04V162.805H1157.66C1179.89 162.805 1196.45 167.556 1207.43 177.004C1218.38 186.452 1223.86 199.748 1223.86 216.919C1223.86 234.091 1218.38 246.936 1207.43 256.384V256.331Z" fill="url(#paint3_linear_38_415)"/>
<path d="M2126.96 301.348L2103.4 289.909C2098.06 287.123 2093.67 282.743 2090.91 277.382L2079.45 253.815C2076.98 248.773 2069.8 248.773 2067.33 253.815L2056.19 276.719C2053.34 282.611 2048.61 287.361 2042.71 290.201L2019.82 301.321C2017.29 302.569 2016.02 304.984 2016.04 307.425C2016.04 309.84 2017.29 312.282 2019.82 313.529L2043.37 324.968C2048.72 327.755 2053.1 332.134 2055.87 337.495L2067.33 361.062C2069.8 366.104 2076.98 366.104 2079.45 361.062L2090.59 338.158C2093.43 332.266 2098.17 327.516 2104.07 324.676L2126.96 313.556C2129.48 312.309 2130.76 309.894 2130.73 307.452C2130.73 305.037 2129.48 302.595 2126.96 301.348Z" fill="url(#paint4_linear_38_415)"/>
<path d="M724.686 325.708L740.95 183.612C740.95 175.623 738.953 169.06 734.958 163.924C731.249 158.503 724.544 155.792 714.842 155.792C705.141 155.792 697.152 160.5 690.874 169.916C684.597 179.047 680.602 188.748 678.89 199.02C668.904 270.068 663.34 312.297 662.198 325.708H604.846L628.386 124.548C640.37 121.409 649.501 119.84 655.778 119.84C673.754 119.84 683.598 125.832 685.31 137.816C699.292 125.832 714.557 119.84 731.106 119.84C764.205 119.84 785.32 129.684 794.45 149.372C808.432 129.399 828.405 119.412 854.37 119.412C873.488 119.412 888.61 124.405 899.738 134.392C910.866 144.093 916.43 156.363 916.43 171.2C916.43 175.48 915.574 183.041 913.862 193.884C907.3 236.684 904.018 261.793 904.018 269.212C904.018 282.623 908.441 289.328 917.286 289.328C924.705 289.328 932.552 284.477 940.826 274.776C949.386 264.789 956.234 249.524 961.37 228.98C971.072 239.252 976.921 247.384 978.918 253.376C964.081 303.024 937.83 327.848 900.166 327.848C882.476 327.848 869.35 322.427 860.79 311.584C852.23 300.741 847.95 289.328 847.95 277.344L858.222 182.756C858.222 175.052 856.225 168.632 852.23 163.496C848.236 158.36 841.816 155.792 832.97 155.792C824.41 155.792 816.849 159.073 810.286 165.636C803.724 172.199 799.158 180.616 796.59 190.888C788.03 263.363 782.466 308.303 779.898 325.708H724.686Z" fill="url(#paint5_linear_38_415)"/>
<path d="M505.767 119.84C532.018 119.84 553.846 128.257 571.251 145.092C588.942 161.927 597.787 182.471 597.787 206.724C597.787 243.532 586.944 273.064 565.259 295.32C543.859 317.291 517.894 328.276 487.363 328.276C456.832 328.276 432.579 319.573 414.603 302.168C396.912 284.763 388.067 263.22 388.067 237.54C388.067 201.588 399.052 173.055 421.023 151.94C443.279 130.54 471.527 119.84 505.767 119.84ZM497.207 154.508C483.796 154.508 472.526 162.212 463.395 177.62C454.264 193.028 449.271 212.431 448.415 235.828C448.415 252.377 451.696 266.073 458.259 276.916C465.107 287.759 475.379 293.18 489.075 293.18C502.771 293.18 514.184 285.619 523.315 270.496C532.731 255.373 537.439 238.111 537.439 218.708C537.439 199.305 534.158 183.897 527.595 172.484C521.032 160.5 510.903 154.508 497.207 154.508Z" fill="url(#paint6_linear_38_415)"/>
<path d="M355.508 175.908C355.508 163.353 349.659 157.076 337.96 157.076C326.547 157.076 317.416 164.495 310.568 179.332C341.384 203.585 356.792 230.835 356.792 261.08C356.792 283.051 350.658 299.743 338.388 311.156C326.119 322.569 310.711 328.276 292.164 328.276C273.618 328.276 260.064 322.569 251.504 311.156C242.944 299.457 238.664 284.763 238.664 267.072C238.664 261.651 238.807 257.656 239.092 255.088L254.072 124.548C264.344 121.409 274.759 119.84 285.316 119.84C302.722 119.84 311.424 126.26 311.424 139.1V139.956C322.838 126.545 337.39 119.84 355.08 119.84C367.92 119.84 377.907 122.836 385.04 128.828C392.174 134.535 395.74 142.239 395.74 151.94C395.74 161.641 392.031 169.631 384.612 175.908C377.479 181.9 368.063 184.896 356.364 184.896C355.794 184.896 355.223 184.896 354.652 184.896C355.223 181.757 355.508 178.761 355.508 175.908ZM328.972 258.94C328.972 242.391 320.412 225.841 303.292 209.292C298.156 250.38 295.588 271.067 295.588 271.352C295.588 283.336 300.439 289.328 310.14 289.328C322.695 289.328 328.972 279.199 328.972 258.94Z" fill="url(#paint7_linear_38_415)"/>
<path d="M184.896 73.616C173.483 73.616 157.647 71.7613 137.388 68.052C108.855 89.7373 82.4613 100.58 58.208 100.58C57.352 100.58 56.496 100.58 55.64 100.58C38.2347 100.295 24.5387 95.7293 14.552 86.884C4.85067 77.7533 0 65.7693 0 50.932C0 35.8093 4.85067 23.54 14.552 14.124C24.5387 4.708 39.2333 0 58.636 0C71.476 0 92.02 4.28 120.268 12.84C149.943 21.6853 172.056 26.108 186.608 26.108C210.576 26.108 226.412 17.548 234.116 0.427994L250.808 11.984C244.531 53.072 222.56 73.616 184.896 73.616ZM42.372 63.772C42.372 70.9053 48.5067 74.472 60.776 74.472C73.0453 74.472 88.0253 69.9067 105.716 60.776C80.6067 54.4987 63.344 51.36 53.928 51.36C50.7893 51.36 48.0787 52.644 45.796 55.212C43.5133 57.4947 42.372 60.348 42.372 63.772ZM159.216 95.444L152.368 141.24H216.14C218.708 147.232 219.992 153.081 219.992 158.788C219.992 164.495 217.281 169.345 211.86 173.34C206.439 177.049 199.591 178.904 191.316 178.904H146.376L145.948 182.756C181.9 199.876 199.876 225.271 199.876 258.94C199.876 284.335 193.171 302.311 179.76 312.868C166.349 323.14 150.513 328.276 132.252 328.276C113.991 328.276 99.8667 323.711 89.88 314.58C79.8933 305.164 74.9 292.752 74.9 277.344C74.9 274.776 75.1853 271.495 75.756 267.5L87.312 178.904H47.08C48.792 162.64 50.2187 150.085 51.36 141.24H92.448L97.156 103.576C111.993 96.4427 124.405 92.876 134.392 92.876C144.379 92.876 152.653 93.732 159.216 95.444ZM145.52 289.328C152.368 289.328 158.36 286.903 163.496 282.052C168.632 276.916 171.2 268.927 171.2 258.084C171.2 236.684 161.499 220.277 142.096 208.864C137.531 240.536 135.105 260.367 134.82 268.356C134.82 276.06 135.819 281.481 137.816 284.62C140.099 287.759 142.667 289.328 145.52 289.328Z" fill="url(#paint8_linear_38_415)"/>
<path d="M1784.24 581.836C1801.94 578.127 1815.06 570.993 1823.62 560.436C1832.47 549.879 1836.89 539.749 1836.89 530.048C1836.89 520.061 1834.18 513.356 1828.76 509.932C1823.62 506.223 1817.91 504.368 1811.64 504.368C1798.23 504.368 1786.38 511.929 1776.11 527.052C1766.13 541.889 1761.13 559.723 1761.13 580.552C1761.13 601.096 1765.98 616.504 1775.68 626.776C1785.67 636.763 1797.94 641.756 1812.49 641.756C1833.89 641.756 1854.44 634.337 1874.12 619.5C1893.81 604.663 1909.79 585.26 1922.06 561.292C1928.34 567.284 1934.04 574.703 1939.18 583.548C1929.76 604.948 1913.07 625.92 1889.1 646.464C1877.12 656.451 1862.85 664.583 1846.3 670.86C1830.04 677.137 1813.21 680.276 1795.8 680.276C1767.27 680.276 1744.73 671.573 1728.18 654.168C1710.49 635.336 1701.64 611.225 1701.64 581.836C1701.64 552.447 1712.63 526.767 1734.6 504.796C1756.85 482.825 1783.39 471.84 1814.2 471.84C1836.18 471.84 1854.01 476.691 1867.7 486.392C1881.4 495.808 1888.39 508.648 1888.68 524.912C1888.68 546.883 1879.83 564.716 1862.14 578.412C1844.74 592.108 1820.77 601.667 1790.24 607.088L1784.24 581.836Z" fill="url(#paint9_linear_38_415)"/>
<path d="M1683.21 601.096C1674.36 624.208 1661.52 643.183 1644.69 658.02C1628.14 672.572 1609.17 679.848 1587.77 679.848C1566.37 679.848 1550.24 672.857 1539.4 658.876C1528.84 644.609 1523.57 628.345 1523.57 610.084C1523.57 606.375 1523.71 602.665 1523.99 598.956L1538.55 476.976C1547.68 473.552 1557.38 471.84 1567.65 471.84C1586.48 471.84 1595.9 478.831 1595.9 492.812C1595.9 493.383 1593.47 512.5 1588.62 550.164C1584.06 587.543 1581.77 609.228 1581.77 615.22C1581.77 631.484 1589.62 639.616 1605.31 639.616C1618.72 639.616 1629.99 632.055 1639.13 616.932C1655.1 589.54 1663.52 558.581 1664.38 524.056H1660.53C1648.54 524.056 1639.41 521.345 1633.13 515.924C1626 509.647 1622.43 502.085 1622.43 493.24C1622.43 484.395 1625.14 477.261 1630.57 471.84C1637.13 466.133 1644.97 463.28 1654.11 463.28C1675.79 463.28 1689.34 474.551 1694.77 497.092C1703.33 495.951 1709.46 494.809 1713.17 493.668V518.064L1697.33 520.632V527.908C1697.05 553.588 1692.34 577.984 1683.21 601.096ZM1646.83 493.24C1646.83 498.091 1650.97 500.516 1659.24 500.516C1660.1 500.516 1660.95 500.516 1661.81 500.516C1659.81 492.812 1656.82 488.96 1652.82 488.96C1648.83 488.96 1646.83 490.387 1646.83 493.24Z" fill="url(#paint10_linear_38_415)"/>
<path d="M1424.06 471.84C1450.31 471.84 1472.14 480.257 1489.54 497.092C1507.23 513.927 1516.08 534.471 1516.08 558.724C1516.08 595.532 1505.24 625.064 1483.55 647.32C1462.15 669.291 1436.18 680.276 1405.65 680.276C1375.12 680.276 1350.87 671.573 1332.89 654.168C1315.2 636.763 1306.36 615.22 1306.36 589.54C1306.36 553.588 1317.34 525.055 1339.31 503.94C1361.57 482.54 1389.82 471.84 1424.06 471.84ZM1415.5 506.508C1402.09 506.508 1390.82 514.212 1381.69 529.62C1372.56 545.028 1367.56 564.431 1366.71 587.828C1366.71 604.377 1369.99 618.073 1376.55 628.916C1383.4 639.759 1393.67 645.18 1407.37 645.18C1421.06 645.18 1432.48 637.619 1441.61 622.496C1451.02 607.373 1455.73 590.111 1455.73 570.708C1455.73 551.305 1452.45 535.897 1445.89 524.484C1439.32 512.5 1429.19 506.508 1415.5 506.508Z" fill="url(#paint11_linear_38_415)"/>
<path d="M1276.9 640.472C1280.04 641.613 1283.46 642.184 1287.17 642.184C1291.17 642.184 1294.87 641.756 1298.3 640.9C1302.01 640.044 1305.29 638.047 1308.14 634.908C1311.28 631.484 1313.71 628.773 1315.42 626.776C1317.13 624.779 1319.27 620.356 1321.84 613.508C1324.98 605.519 1328.83 594.248 1333.4 579.696C1345.38 590.824 1352.51 599.241 1354.79 604.948C1341.1 655.167 1316.99 680.276 1282.46 680.276C1266.2 680.276 1245.51 669.719 1220.4 648.604C1207.28 669.719 1186.88 680.276 1159.2 680.276C1146.93 680.276 1135.8 676.139 1125.81 667.864C1116.11 659.589 1111.26 647.748 1111.26 632.34C1111.26 616.932 1116.4 604.377 1126.67 594.676C1136.94 584.689 1150.21 579.696 1166.47 579.696C1169.61 579.696 1174.04 579.981 1179.74 580.552L1185.73 526.196C1173.18 530.191 1153.78 535.327 1127.53 541.604V509.504C1148.93 504.653 1169.47 499.232 1189.16 493.24L1197.72 423.476C1203.71 375.825 1227.96 352 1270.48 352C1287.31 352 1300.72 356.708 1310.71 366.124C1320.98 375.255 1326.12 388.237 1326.12 405.072C1326.12 445.589 1300.01 478.26 1247.79 503.084L1234.95 604.092L1234.53 608.372C1255.64 627.204 1269.77 637.904 1276.9 640.472ZM1294.02 408.496C1294.02 396.512 1289.03 390.52 1279.04 390.52C1267.05 390.52 1259.49 404.644 1256.35 432.892L1252.07 466.704C1280.04 450.155 1294.02 430.752 1294.02 408.496ZM1143.79 629.344C1143.79 637.904 1148.64 642.184 1158.34 642.184C1167.76 642.184 1173.61 633.767 1175.89 616.932C1170.47 614.649 1165.33 613.508 1160.48 613.508C1155.92 613.508 1151.92 615.077 1148.5 618.216C1145.36 621.355 1143.79 625.064 1143.79 629.344Z" fill="url(#paint12_linear_38_415)"/>
<path d="M959.442 628.916L969.714 534.328C969.714 526.624 967.716 520.204 963.722 515.068C959.727 509.932 953.307 507.364 944.462 507.364C935.617 507.364 928.055 510.931 921.778 518.064C915.786 524.912 911.363 534.043 908.51 545.456C906.513 561.72 903.516 585.545 899.522 616.932C895.527 648.033 892.959 668.292 891.818 677.708H834.894C855.438 502.799 867.85 395.371 872.13 355.424C878.122 353.141 886.254 352 896.526 352C918.782 352 929.91 358.563 929.91 371.688V374.256C925.059 419.053 919.923 458.429 914.502 492.384C929.625 478.688 946.745 471.84 965.862 471.84C984.979 471.84 1000.1 476.691 1011.23 486.392C1022.36 496.093 1027.92 508.363 1027.92 523.2C1027.92 527.195 1027.07 534.613 1025.35 545.456C1018.79 588.256 1015.51 613.365 1015.51 620.784C1015.51 634.195 1019.93 640.9 1028.78 640.9C1036.2 640.9 1044.04 636.049 1052.32 626.348C1060.88 616.361 1067.73 601.096 1072.86 580.552C1082.56 590.824 1088.41 598.956 1090.41 604.948C1075.57 654.596 1049.32 679.42 1011.66 679.42C993.967 679.42 980.842 673.999 972.282 663.156C963.722 652.313 959.442 640.9 959.442 628.916Z" fill="url(#paint13_linear_38_415)"/>
<path d="M804.201 379.82C804.201 381.532 800.349 412.205 792.645 471.84H855.561V504.796H788.365L787.081 515.496C820.465 543.459 837.157 573.989 837.157 607.088C837.157 633.053 830.451 651.743 817.041 663.156C803.916 674.569 788.08 680.276 769.533 680.276C750.986 680.276 737.433 675.425 728.873 665.724C720.313 655.737 716.033 643.753 716.033 629.772C716.033 626.633 716.318 623.209 716.889 619.5L730.157 505.652L728.445 504.796H693.777C693.492 501.943 693.349 497.377 693.349 491.1C693.349 484.537 694.633 478.117 697.201 471.84H734.009L747.705 355.424C753.697 353.141 761.686 352 771.673 352C793.358 352 804.201 361.273 804.201 379.82ZM808.481 606.66C808.481 586.972 799.921 567.569 782.801 548.452C777.665 590.967 775.097 615.505 775.097 622.068C775.097 634.908 779.234 641.328 787.509 641.328C793.501 641.328 798.494 638.617 802.489 633.196C806.484 627.489 808.481 618.644 808.481 606.66Z" fill="url(#paint14_linear_38_415)"/>
<path d="M652.942 362.7C659.505 355.852 667.494 352.428 676.91 352.428C686.326 352.428 694.316 355.852 700.878 362.7C707.726 369.263 711.15 377.252 711.15 386.668C711.15 396.084 707.726 404.073 700.878 410.636C694.316 417.199 686.326 420.48 676.91 420.48C667.494 420.48 659.505 417.199 652.942 410.636C646.38 404.073 643.098 396.084 643.098 386.668C643.098 377.252 646.38 369.263 652.942 362.7ZM635.394 488.104C638.248 482.968 643.669 479.116 651.658 476.548C659.648 473.695 667.494 472.268 675.198 472.268C683.188 472.268 690.178 473.267 696.17 475.264C685.042 561.149 679.478 604.52 679.478 605.376C678.052 611.083 677.338 615.933 677.338 619.928C677.338 623.637 677.624 626.919 678.194 629.772C679.336 637.191 684.472 640.9 693.602 640.9C703.018 640.9 711.578 634.908 719.282 622.924C727.272 610.655 733.264 596.816 737.258 581.408C739.256 582.549 742.394 585.973 746.674 591.68C750.954 597.387 753.522 601.667 754.378 604.52C748.672 627.347 738.97 645.751 725.274 659.732C711.578 673.713 695.172 680.704 676.054 680.704C656.937 680.704 642.67 675.996 633.254 666.58C624.124 657.164 619.558 645.037 619.558 630.2C619.558 627.061 619.701 623.78 619.986 620.356L635.394 488.104Z" fill="url(#paint15_linear_38_415)"/>
<path d="M503.095 381.104L502.667 386.668C491.824 469.985 484.691 521.345 481.267 540.748C475.56 572.705 472.707 597.101 472.707 613.936C472.707 630.485 479.84 638.76 494.107 638.76C506.091 638.76 516.791 630.2 526.207 613.08C535.623 595.675 542.756 574.132 547.607 548.452C557.593 494.809 562.587 448.443 562.587 409.352C562.587 391.091 561.017 375.255 557.879 361.844C569.292 354.996 582.988 351.572 598.967 351.572C614.945 351.572 622.935 360.988 622.935 379.82C622.935 409.209 618.369 453.864 609.239 513.784C601.82 563.717 591.548 600.383 578.423 623.78C572.431 633.767 565.583 643.325 557.879 652.456C541.9 671.003 519.501 680.276 490.683 680.276C462.149 680.276 441.748 668.007 429.479 643.468C413.785 668.007 389.96 680.276 358.003 680.276C337.459 680.276 321.48 674.427 310.067 662.728C298.939 650.744 293.375 634.908 293.375 615.22C293.375 612.652 293.66 608.8 294.231 603.664L310.067 482.968C279.536 460.997 264.271 436.316 264.271 408.924C264.271 391.519 270.263 377.68 282.247 367.408C294.231 357.136 308.783 352 325.903 352C363.281 352 381.971 370.547 381.971 407.64C381.971 408.211 381.828 408.924 381.543 409.78C381.543 410.636 381.4 412.063 381.115 414.06C381.115 415.772 380.829 417.912 380.259 420.48C379.973 422.763 379.403 426.329 378.547 431.18C377.976 436.031 377.263 441.452 376.407 447.444C375.551 453.151 374.409 460.855 372.983 470.556C371.556 480.257 369.987 490.815 368.275 502.228C366.848 513.356 364.993 527.052 362.711 543.316C360.428 559.58 358.431 573.419 356.719 584.832C355.007 596.245 354.151 604.52 354.151 609.656C354.151 628.773 361.569 638.332 376.407 638.332C396.951 638.332 409.648 619.643 414.499 582.264L441.891 366.124C451.307 361.844 462.577 359.704 475.703 359.704C493.964 359.704 503.095 366.837 503.095 381.104ZM309.211 386.24C303.789 386.24 299.795 388.237 297.227 392.232C294.659 396.227 293.375 400.792 293.375 405.928C293.375 418.768 300.508 432.036 314.775 445.732L316.915 428.612C318.056 419.196 318.627 409.78 318.627 400.364C318.912 390.948 315.773 386.24 309.211 386.24Z" fill="url(#paint16_linear_38_415)"/>
</g>
<defs>
<linearGradient id="paint0_linear_38_415" x1="-0.000186582" y1="-6.20636e-06" x2="326.286" y2="1160.92" gradientUnits="userSpaceOnUse">
<stop stop-color="#2B2B2B"/>
<stop offset="1" stop-color="#181818"/>
</linearGradient>
<linearGradient id="paint1_linear_38_415" x1="0.000909219" y1="-1.98314e-06" x2="326.287" y2="1160.92" gradientUnits="userSpaceOnUse">
<stop stop-color="#2B2B2B"/>
<stop offset="1" stop-color="#181818"/>
</linearGradient>
<linearGradient id="paint2_linear_38_415" x1="0.00056566" y1="-3.54368e-05" x2="326.287" y2="1160.92" gradientUnits="userSpaceOnUse">
<stop stop-color="#2B2B2B"/>
<stop offset="1" stop-color="#181818"/>
</linearGradient>
<linearGradient id="paint3_linear_38_415" x1="-6.61125e-05" y1="2.51583e-05" x2="326.286" y2="1160.92" gradientUnits="userSpaceOnUse">
<stop stop-color="#2B2B2B"/>
<stop offset="1" stop-color="#181818"/>
</linearGradient>
<linearGradient id="paint4_linear_38_415" x1="0.00129963" y1="1.28191e-05" x2="326.287" y2="1160.92" gradientUnits="userSpaceOnUse">
<stop stop-color="#2B2B2B"/>
<stop offset="1" stop-color="#181818"/>
</linearGradient>
<linearGradient id="paint5_linear_38_415" x1="-0.000110323" y1="-1.58403e-05" x2="326.286" y2="1160.92" gradientUnits="userSpaceOnUse">
<stop stop-color="#2B2B2B"/>
<stop offset="1" stop-color="#181818"/>
</linearGradient>
<linearGradient id="paint6_linear_38_415" x1="-0.000107921" y1="-3.99108e-05" x2="326.286" y2="1160.92" gradientUnits="userSpaceOnUse">
<stop stop-color="#2B2B2B"/>
<stop offset="1" stop-color="#181818"/>
</linearGradient>
<linearGradient id="paint7_linear_38_415" x1="7.80899e-05" y1="-4.094e-05" x2="326.286" y2="1160.92" gradientUnits="userSpaceOnUse">
<stop stop-color="#2B2B2B"/>
<stop offset="1" stop-color="#181818"/>
</linearGradient>
<linearGradient id="paint8_linear_38_415" x1="0" y1="0" x2="326.286" y2="1160.92" gradientUnits="userSpaceOnUse">
<stop stop-color="#2B2B2B"/>
<stop offset="1" stop-color="#181818"/>
</linearGradient>
<linearGradient id="paint9_linear_38_415" x1="-0.000174315" y1="-1.17406e-05" x2="326.286" y2="1160.92" gradientUnits="userSpaceOnUse">
<stop stop-color="#2B2B2B"/>
<stop offset="1" stop-color="#181818"/>
</linearGradient>
<linearGradient id="paint10_linear_38_415" x1="-0.000866863" y1="-5.42137e-05" x2="326.285" y2="1160.92" gradientUnits="userSpaceOnUse">
<stop stop-color="#2B2B2B"/>
<stop offset="1" stop-color="#181818"/>
</linearGradient>
<linearGradient id="paint11_linear_38_415" x1="6.18832e-05" y1="-8.59466e-05" x2="326.286" y2="1160.92" gradientUnits="userSpaceOnUse">
<stop stop-color="#2B2B2B"/>
<stop offset="1" stop-color="#181818"/>
</linearGradient>
<linearGradient id="paint12_linear_38_415" x1="-0.000402636" y1="-7.59839e-06" x2="326.286" y2="1160.92" gradientUnits="userSpaceOnUse">
<stop stop-color="#2B2B2B"/>
<stop offset="1" stop-color="#181818"/>
</linearGradient>
<linearGradient id="paint13_linear_38_415" x1="-0.000122483" y1="3.1822e-05" x2="326.286" y2="1160.92" gradientUnits="userSpaceOnUse">
<stop stop-color="#2B2B2B"/>
<stop offset="1" stop-color="#181818"/>
</linearGradient>
<linearGradient id="paint14_linear_38_415" x1="0.00021295" y1="2.12231e-05" x2="326.286" y2="1160.92" gradientUnits="userSpaceOnUse">
<stop stop-color="#2B2B2B"/>
<stop offset="1" stop-color="#181818"/>
</linearGradient>
<linearGradient id="paint15_linear_38_415" x1="6.17187e-05" y1="1.35587e-05" x2="326.286" y2="1160.92" gradientUnits="userSpaceOnUse">
<stop stop-color="#2B2B2B"/>
<stop offset="1" stop-color="#181818"/>
</linearGradient>
<linearGradient id="paint16_linear_38_415" x1="-5.48908e-06" y1="7.30781e-06" x2="326.286" y2="1160.92" gradientUnits="userSpaceOnUse">
<stop stop-color="#2B2B2B"/>
<stop offset="1" stop-color="#181818"/>
</linearGradient>
<clipPath id="clip0_38_415">
<rect width="2131" height="681" fill="white"/>
</clipPath>
</defs>
</svg>
