<svg width="360" height="378" viewBox="0 0 360 378" fill="none" xmlns="http://www.w3.org/2000/svg">
<path d="M314.095 276.395L317.695 243.586C317.695 240.914 316.995 238.687 315.595 236.906C314.195 235.124 311.945 234.234 308.845 234.234C305.744 234.234 303.094 235.471 300.894 237.945C298.794 240.32 297.243 243.487 296.243 247.446C295.543 253.087 294.493 261.351 293.093 272.238C291.693 283.026 290.793 290.052 290.393 293.318H270.441C277.641 232.65 281.992 195.388 283.492 181.532C285.592 180.74 288.442 180.345 292.043 180.345C299.844 180.345 303.744 182.621 303.744 187.173V188.064C302.044 203.602 300.244 217.26 298.344 229.038C303.644 224.287 309.645 221.912 316.345 221.912C323.046 221.912 328.347 223.594 332.247 226.959C336.147 230.324 338.098 234.58 338.098 239.726C338.098 241.112 337.798 243.685 337.198 247.446C334.897 262.291 333.747 271.001 333.747 273.574C333.747 278.225 335.297 280.551 338.398 280.551C340.998 280.551 343.748 278.869 346.649 275.504C349.649 272.04 352.049 266.745 353.849 259.619C357.25 263.182 359.3 266.003 360 268.081C354.799 285.302 345.598 293.912 332.397 293.912C326.196 293.912 321.596 292.032 318.596 288.271C315.595 284.51 314.095 280.551 314.095 276.395Z" fill="url(#paint0_linear_60_2193)"/>
<path d="M259.682 189.994C259.682 190.588 258.332 201.227 255.632 221.912H277.684V233.343H254.132L253.682 237.054C265.383 246.753 271.234 257.343 271.234 268.823C271.234 277.83 268.884 284.312 264.183 288.271C259.583 292.23 254.032 294.209 247.531 294.209C241.031 294.209 236.28 292.527 233.28 289.162C230.279 285.698 228.779 281.541 228.779 276.691C228.779 275.603 228.879 274.415 229.079 273.129L233.73 233.64L233.13 233.343H220.979C220.878 232.353 220.828 230.77 220.828 228.592C220.828 226.316 221.278 224.089 222.179 221.912H235.08C236.955 206.143 238.006 197.301 239.88 181.532C241.981 180.74 244.781 180.345 248.281 180.345C255.882 180.345 259.682 183.561 259.682 189.994ZM261.183 268.675C261.183 261.846 258.182 255.116 252.182 248.485C250.382 263.232 249.481 271.743 249.481 274.019C249.481 278.473 250.932 280.7 253.832 280.7C255.932 280.7 257.682 279.76 259.082 277.879C260.483 275.9 261.183 272.832 261.183 268.675Z" fill="url(#paint1_linear_60_2193)"/>
<path d="M206.666 184.056C208.966 181.681 211.766 180.493 215.067 180.493C218.367 180.493 221.167 181.681 223.468 184.056C225.868 186.332 227.068 189.103 227.068 192.369C227.068 195.635 225.868 198.406 223.468 200.683C221.167 202.959 218.367 204.097 215.067 204.097C211.766 204.097 208.966 202.959 206.666 200.683C204.366 198.406 203.215 195.635 203.215 192.369C203.215 189.103 204.366 186.332 206.666 184.056ZM200.515 227.553C201.515 225.772 203.415 224.436 206.216 223.545C209.016 222.555 211.766 222.06 214.467 222.06C217.267 222.06 219.717 222.407 221.817 223.099C217.917 252.889 215.967 267.933 215.967 268.23C215.467 270.209 215.217 271.891 215.217 273.277C215.217 274.564 215.317 275.702 215.517 276.691C215.917 279.265 217.717 280.551 220.917 280.551C224.218 280.551 227.218 278.473 229.918 274.316C232.719 270.06 234.819 265.26 236.219 259.916C236.919 260.312 238.019 261.5 239.519 263.479C241.019 265.458 241.919 266.943 242.22 267.933C240.219 275.85 236.819 282.234 232.018 287.083C227.218 291.933 221.467 294.358 214.767 294.358C208.066 294.358 203.065 292.725 199.765 289.459C196.565 286.193 194.965 281.986 194.965 276.84C194.965 275.751 195.015 274.613 195.115 273.426L200.515 227.553Z" fill="url(#paint2_linear_60_2193)"/>
<path d="M154.144 190.439L153.994 192.369C150.193 221.268 147.693 239.083 146.493 245.813C144.493 256.898 143.492 265.359 143.492 271.199C143.492 276.939 145.993 279.809 150.993 279.809C155.194 279.809 158.944 276.84 162.244 270.902C165.545 264.865 168.045 257.392 169.745 248.485C173.246 229.879 174.996 213.796 174.996 200.237C174.996 193.903 174.446 188.411 173.346 183.759C177.346 181.384 182.147 180.196 187.747 180.196C193.348 180.196 196.148 183.462 196.148 189.994C196.148 200.188 194.548 215.677 191.348 236.46C188.747 253.78 185.147 266.498 180.546 274.613C178.446 278.077 176.046 281.393 173.346 284.56C167.745 290.993 159.894 294.209 149.793 294.209C139.792 294.209 132.641 289.953 128.341 281.442C122.84 289.953 114.489 294.209 103.288 294.209C96.0875 294.209 90.4869 292.18 86.4865 288.122C82.5861 283.966 80.6359 278.473 80.6359 271.644C80.6359 270.753 80.7359 269.417 80.9359 267.636L86.4865 225.772C75.7853 218.151 70.4348 209.59 70.4348 200.089C70.4348 194.052 72.535 189.252 76.7355 185.689C80.9359 182.126 86.0364 180.345 92.0371 180.345C105.138 180.345 111.689 186.778 111.689 199.644C111.689 199.842 111.639 200.089 111.539 200.386C111.539 200.683 111.489 201.178 111.389 201.87C111.389 202.464 111.289 203.207 111.089 204.097C110.989 204.889 110.789 206.126 110.489 207.809C110.289 209.491 110.039 211.372 109.739 213.45C109.439 215.429 109.039 218.101 108.539 221.466C108.039 224.831 107.489 228.493 106.889 232.452C106.389 236.312 105.738 241.062 104.938 246.704C104.138 252.345 103.438 257.145 102.838 261.104C102.238 265.063 101.938 267.933 101.938 269.714C101.938 276.345 104.538 279.661 109.739 279.661C116.94 279.661 121.39 273.178 123.09 260.213L132.691 185.244C135.992 183.759 139.942 183.017 144.543 183.017C150.943 183.017 154.144 185.491 154.144 190.439ZM86.1864 192.221C84.2862 192.221 82.8861 192.914 81.986 194.299C81.0859 195.685 80.6359 197.268 80.6359 199.05C80.6359 203.503 83.1361 208.106 88.1367 212.856L88.8867 206.918C89.2868 203.652 89.4868 200.386 89.4868 197.12C89.5868 193.854 88.4867 192.221 86.1864 192.221Z" fill="url(#paint3_linear_60_2193)"/>
<path d="M238.536 343.521C244.806 342.222 249.458 339.723 252.492 336.025C255.627 332.327 257.195 328.78 257.195 325.382C257.195 321.884 256.234 319.535 254.313 318.336C252.492 317.037 250.469 316.387 248.244 316.387C243.491 316.387 239.294 319.035 235.653 324.332C232.113 329.529 230.344 335.775 230.344 343.071C230.344 350.267 232.063 355.663 235.501 359.261C239.041 362.759 243.39 364.508 248.548 364.508C256.133 364.508 263.415 361.91 270.393 356.713C277.371 351.516 283.035 344.72 287.384 336.325C289.609 338.424 291.632 341.022 293.452 344.12C290.114 351.616 284.198 358.961 275.703 366.157C271.455 369.655 266.398 372.503 260.532 374.702C254.768 376.901 248.801 378 242.631 378C232.518 378 224.528 374.952 218.662 368.855C212.392 362.259 209.257 353.815 209.257 343.521C209.257 333.227 213.151 324.232 220.938 316.537C228.827 308.842 238.232 304.994 249.155 304.994C256.942 304.994 263.263 306.693 268.118 310.091C272.972 313.389 275.45 317.886 275.551 323.583C275.551 331.278 272.416 337.524 266.145 342.321C259.976 347.119 251.481 350.467 240.659 352.365L238.536 343.521Z" fill="url(#paint4_linear_60_2193)"/>
<path d="M202.724 350.267C199.589 358.362 195.038 365.008 189.071 370.205C183.205 375.302 176.479 377.85 168.894 377.85C161.309 377.85 155.595 375.402 151.752 370.504C148.01 365.507 146.139 359.811 146.139 353.415C146.139 352.116 146.189 350.816 146.29 349.517L151.448 306.793C154.685 305.594 158.123 304.994 161.764 304.994C168.439 304.994 171.777 307.442 171.777 312.34C171.777 312.539 170.917 319.235 169.198 332.427C167.579 345.52 166.77 353.115 166.77 355.214C166.77 360.91 169.552 363.759 175.114 363.759C179.867 363.759 183.862 361.11 187.099 355.813C192.762 346.219 195.746 335.376 196.049 323.283H194.684C190.436 323.283 187.2 322.333 184.975 320.435C182.446 318.236 181.182 315.588 181.182 312.489C181.182 309.391 182.143 306.893 184.064 304.994C186.391 302.995 189.172 301.996 192.408 301.996C200.094 301.996 204.898 305.943 206.82 313.839C209.854 313.439 212.028 313.039 213.343 312.639V321.184L207.73 322.084V324.632C207.629 333.627 205.96 342.172 202.724 350.267ZM189.829 312.489C189.829 314.188 191.296 315.038 194.229 315.038C194.532 315.038 194.835 315.038 195.139 315.038C194.431 312.339 193.369 310.99 191.953 310.99C190.537 310.99 189.829 311.49 189.829 312.489Z" fill="url(#paint5_linear_60_2193)"/>
<path d="M110.869 304.994C120.173 304.994 127.91 307.942 134.079 313.839C140.35 319.735 143.485 326.931 143.485 335.426C143.485 348.318 139.642 358.662 131.956 366.457C124.37 374.152 115.167 378 104.346 378C93.5242 378 84.9277 374.952 78.5562 368.855C72.2858 362.759 69.1506 355.214 69.1506 346.219C69.1506 333.627 73.0443 323.633 80.8317 316.237C88.7202 308.742 98.7326 304.994 110.869 304.994ZM107.835 317.137C103.081 317.137 99.0866 319.835 95.8503 325.232C92.614 330.628 90.8441 337.424 90.5407 345.619C90.5407 351.416 91.7037 356.213 94.0298 360.011C96.4571 363.809 100.098 365.707 104.952 365.707C109.807 365.707 113.852 363.059 117.089 357.762C120.426 352.465 122.095 346.419 122.095 339.623C122.095 332.827 120.932 327.43 118.606 323.433C116.28 319.235 112.689 317.137 107.835 317.137Z" fill="url(#paint6_linear_60_2193)"/>
<path d="M58.7089 364.058C59.8214 364.458 61.035 364.658 62.3498 364.658C63.7657 364.658 65.0804 364.508 66.294 364.208C67.6088 363.908 68.7718 363.209 69.7832 362.11C70.8957 360.91 71.7554 359.961 72.3622 359.261C72.969 358.562 73.7275 357.013 74.6377 354.614C75.7502 351.816 77.1156 347.868 78.7337 342.771C82.9814 346.669 85.5098 349.617 86.3188 351.616C81.4643 369.205 72.9184 378 60.681 378C54.9163 378 47.5841 374.302 38.6842 366.907C34.0319 374.302 26.8008 378 16.9907 378C12.6419 378 8.69761 376.551 5.15788 373.653C1.71928 370.754 0 366.607 0 361.21C0 355.813 1.8204 351.416 5.46126 348.018C9.10213 344.52 13.8049 342.771 19.5696 342.771C20.6821 342.771 22.2497 342.871 24.2724 343.071L26.3963 324.032C21.9463 325.432 15.0691 327.231 5.76465 329.429V318.186C13.3498 316.487 20.6316 314.588 27.6099 312.489L30.6439 288.054C32.7678 271.364 41.3642 263.019 56.4334 263.019C62.4003 263.019 67.1537 264.668 70.6934 267.966C74.3343 271.164 76.1547 275.712 76.1547 281.608C76.1547 295.799 66.9009 307.243 48.3931 315.937L43.8421 351.316L43.6903 352.815C51.1743 359.411 56.1805 363.159 58.7089 364.058ZM64.777 282.807C64.777 278.61 63.0071 276.511 59.4674 276.511C55.2197 276.511 52.5397 281.458 51.4272 291.352L49.9102 303.195C59.8214 297.398 64.777 290.603 64.777 282.807ZM11.5294 360.161C11.5294 363.159 13.2487 364.658 16.6873 364.658C20.0247 364.658 22.098 361.71 22.9071 355.813C20.9855 355.014 19.1651 354.614 17.4458 354.614C15.8277 354.614 14.4118 355.164 13.1981 356.263C12.0856 357.362 11.5294 358.662 11.5294 360.161Z" fill="url(#paint7_linear_60_2193)"/>
<path d="M169.2 111.955C164.04 109.241 158.238 107.87 151.822 107.87C145.407 107.87 139.174 109.321 133.898 112.188C128.607 115.076 124.439 119.059 121.396 124.135C118.352 129.212 116.827 135.047 116.827 141.633C116.827 148.219 118.367 153.916 121.461 159C124.541 164.076 128.92 168.088 134.577 171.013C140.233 173.938 146.794 175.396 154.275 175.396C160.208 175.396 165.456 174.485 170.002 172.654C173.608 171.202 176.717 169.262 179.359 166.833C180.512 165.761 180.57 163.96 179.512 162.814L173.082 155.856C172.075 154.762 170.404 154.645 169.229 155.557C167.579 156.833 165.821 157.84 163.952 158.584C161.31 159.642 158.245 160.167 154.742 160.167C150.837 160.167 147.436 159.459 144.553 158.037C141.67 156.615 139.43 154.536 137.853 151.823C136.992 150.349 136.379 148.745 135.985 147.009H183.015C184.49 147.009 185.723 145.885 185.847 144.412V144.383C185.927 143.457 185.978 142.618 185.978 141.888C185.978 134.828 184.475 128.745 181.468 123.661C178.461 118.585 174.374 114.682 169.214 111.962H169.185L169.2 111.955ZM143.349 124.383C145.83 122.961 148.691 122.253 151.946 122.253C155.201 122.253 158.048 122.968 160.493 124.383C162.938 125.806 164.843 127.775 166.229 130.299C167.142 131.969 167.755 133.836 168.061 135.9H135.759C136.073 133.865 136.671 132.013 137.562 130.35C138.948 127.789 140.882 125.806 143.349 124.383Z" fill="url(#paint8_linear_60_2193)"/>
<path d="M246.167 111.955C241.007 109.241 235.205 107.87 228.789 107.87C222.374 107.87 216.141 109.321 210.865 112.188C205.573 115.076 201.406 119.059 198.363 124.135C195.319 129.212 193.794 135.047 193.794 141.633C193.794 148.219 195.334 153.916 198.428 159C201.508 164.076 205.887 168.088 211.543 171.013C217.2 173.938 223.761 175.396 231.242 175.396C237.175 175.396 242.423 174.485 246.969 172.654C250.575 171.202 253.684 169.262 256.326 166.833C257.479 165.761 257.537 163.96 256.479 162.814L250.049 155.856C249.042 154.762 247.371 154.645 246.196 155.557C244.546 156.833 242.787 157.84 240.919 158.584C238.277 159.642 235.212 160.167 231.709 160.167C227.804 160.167 224.403 159.459 221.52 158.037C218.63 156.615 216.397 154.536 214.82 151.823C213.959 150.349 213.346 148.745 212.952 147.009H259.982C261.456 147.009 262.69 145.885 262.814 144.412V144.383C262.894 143.457 262.945 142.618 262.945 141.888C262.945 134.828 261.442 128.745 258.435 123.661C255.428 118.585 251.341 114.682 246.181 111.962H246.152L246.167 111.955ZM220.316 124.383C222.797 122.961 225.658 122.253 228.913 122.253C232.168 122.253 235.015 122.968 237.46 124.383C239.905 125.806 241.809 127.775 243.196 130.299C244.108 131.969 244.721 133.836 245.028 135.9H212.718C213.032 133.865 213.631 132.013 214.521 130.35C215.908 127.789 217.842 125.806 220.309 124.383H220.323H220.316Z" fill="url(#paint9_linear_60_2193)"/>
<path d="M312.97 107.446C289.666 107.446 270.764 126.323 270.764 149.626V170.983C270.764 172.551 272.041 173.827 273.61 173.827H287.521C289.09 173.827 290.367 172.551 290.367 170.983V149.626C290.367 137.161 300.49 127.037 312.97 127.037H317.108C318.677 127.037 319.954 125.761 319.954 124.193V110.291C319.954 108.723 318.677 107.446 317.108 107.446H312.97Z" fill="url(#paint10_linear_60_2193)"/>
<path d="M92.4829 111.585C86.9581 109.12 80.3751 107.88 72.7338 107.88H38.6215C37.0524 107.88 35.7752 109.149 35.7752 110.724V190.351C35.7752 191.919 37.0524 193.196 38.6215 193.196H52.678C54.2472 193.196 55.5244 191.919 55.5244 190.351V172.518C55.5244 170.95 56.8016 169.673 58.3707 169.673H72.7119C80.3532 169.673 86.9362 168.433 92.4611 165.953C97.9859 163.473 102.255 159.921 105.262 155.29C108.269 150.658 109.773 145.173 109.773 138.842C109.773 132.511 108.269 126.895 105.262 122.263C102.255 117.632 97.9859 114.08 92.4611 111.6H92.4757L92.4829 111.585ZM85.2868 149.666C82.2799 152.263 77.7258 153.568 71.6244 153.568H55.5317V123.963H71.6244C77.7258 123.963 82.2726 125.268 85.2868 127.865C88.2937 130.462 89.7972 134.116 89.7972 138.835C89.7972 143.554 88.2937 147.084 85.2868 149.681V149.666Z" fill="url(#paint11_linear_60_2193)"/>
<path d="M337.724 162.038L331.258 158.894C329.791 158.128 328.587 156.925 327.828 155.452L324.682 148.975C324.003 147.589 322.033 147.589 321.354 148.975L318.296 155.269C317.515 156.889 316.216 158.194 314.596 158.975L308.312 162.031C307.619 162.373 307.268 163.037 307.276 163.708C307.276 164.372 307.619 165.043 308.312 165.386L314.778 168.529C316.245 169.295 317.45 170.499 318.209 171.972L321.354 178.449C322.033 179.835 324.003 179.835 324.682 178.449L327.74 172.154C328.521 170.535 329.82 169.23 331.44 168.449L337.724 165.393C338.418 165.05 338.768 164.387 338.761 163.716C338.761 163.052 338.418 162.381 337.724 162.038Z" fill="url(#paint12_linear_60_2193)"/>
<path d="M243.098 96.6113L248.001 54.4629C248.001 52.0931 247.399 50.1465 246.195 48.623C245.076 47.015 243.055 46.2109 240.13 46.2109C237.205 46.2109 234.796 47.6074 232.903 50.4004C231.01 53.1087 229.806 55.9863 229.29 59.0332C226.279 80.1074 224.601 92.6334 224.257 96.6113H206.964L214.062 36.9434C217.675 36.0124 220.428 35.5469 222.321 35.5469C227.741 35.5469 230.709 37.3242 231.225 40.8789C235.441 37.3242 240.044 35.5469 245.033 35.5469C255.013 35.5469 261.379 38.4668 264.132 44.3066C268.348 38.3822 274.37 35.4199 282.199 35.4199C287.963 35.4199 292.523 36.901 295.878 39.8633C299.233 42.7409 300.911 46.3802 300.911 50.7812C300.911 52.0508 300.653 54.2936 300.136 57.5098C298.158 70.2051 297.168 77.653 297.168 79.8535C297.168 83.8314 298.502 85.8203 301.169 85.8203C303.406 85.8203 305.771 84.3815 308.266 81.5039C310.847 78.5417 312.912 74.0137 314.461 67.9199C317.386 70.9668 319.149 73.3789 319.752 75.1562C315.278 89.8828 307.363 97.2461 296.007 97.2461C290.673 97.2461 286.716 95.638 284.135 92.4219C281.554 89.2057 280.263 85.8203 280.263 82.2656L283.36 54.209C283.36 51.9238 282.758 50.0195 281.554 48.4961C280.349 46.9726 278.413 46.2109 275.747 46.2109C273.166 46.2109 270.886 47.1842 268.907 49.1309C266.928 51.0775 265.552 53.5742 264.778 56.6211C262.197 78.1185 260.519 91.4486 259.745 96.6113H243.098Z" fill="url(#paint13_linear_60_2193)"/>
<path d="M177.091 35.5469C185.006 35.5469 191.587 38.0436 196.835 43.0371C202.169 48.0306 204.836 54.1243 204.836 61.3183C204.836 72.2363 201.567 80.9961 195.028 87.5976C188.576 94.1146 180.747 97.373 171.542 97.373C162.337 97.373 155.024 94.7916 149.604 89.6289C144.27 84.4661 141.603 78.0762 141.603 70.459C141.603 59.7949 144.915 51.3314 151.54 45.0684C158.25 38.7207 166.767 35.5469 177.091 35.5469ZM174.51 45.8301C170.467 45.8301 167.068 48.1152 164.315 52.6855C161.562 57.2558 160.057 63.0111 159.799 69.9512C159.799 74.86 160.788 78.9225 162.767 82.1387C164.831 85.3548 167.929 86.9629 172.058 86.9629C176.188 86.9629 179.629 84.72 182.382 80.2344C185.221 75.7487 186.64 70.6282 186.64 64.873C186.64 59.1178 185.651 54.5475 183.672 51.1621C181.694 47.6074 178.639 45.8301 174.51 45.8301Z" fill="url(#paint14_linear_60_2193)"/>
<path d="M131.786 52.1777C131.786 48.4538 130.022 46.5918 126.495 46.5918C123.054 46.5918 120.301 48.7923 118.236 53.1934C127.528 60.3874 132.173 68.47 132.173 77.4414C132.173 83.9583 130.324 88.9095 126.624 92.2949C122.925 95.6803 118.279 97.373 112.687 97.373C107.095 97.373 103.009 95.6803 100.428 92.2949C97.8468 88.8249 96.5563 84.4661 96.5563 79.2187C96.5563 77.6107 96.5993 76.4258 96.6854 75.6641L101.202 36.9434C104.299 36.0124 107.439 35.5469 110.622 35.5469C115.87 35.5469 118.494 37.4512 118.494 41.2598V41.5137C121.936 37.5358 126.323 35.5469 131.657 35.5469C135.529 35.5469 138.54 36.4355 140.69 38.2129C142.841 39.9056 143.917 42.1907 143.917 45.0684C143.917 47.946 142.798 50.3157 140.561 52.1777C138.411 53.9551 135.572 54.8437 132.044 54.8437C131.872 54.8437 131.7 54.8437 131.528 54.8437C131.7 53.9128 131.786 53.0241 131.786 52.1777ZM123.785 76.8066C123.785 71.8978 121.204 66.9889 116.042 62.0801C114.494 74.2676 113.72 80.4036 113.72 80.4883C113.72 84.043 115.182 85.8203 118.107 85.8203C121.893 85.8203 123.785 82.8157 123.785 76.8066Z" fill="url(#paint15_linear_60_2193)"/>
<path d="M80.3446 21.8359C76.9033 21.8359 72.1286 21.2858 66.0204 20.1855C57.4172 26.6178 49.4593 29.834 42.1467 29.834C41.8886 29.834 41.6305 29.834 41.3724 29.834C36.1245 29.7493 31.995 28.3952 28.9839 25.7715C26.0588 23.0631 24.5963 19.5085 24.5963 15.1074C24.5963 10.6217 26.0588 6.98242 28.9839 4.18945C31.995 1.39648 36.4256 0 42.2757 0C46.1471 0 52.3414 1.26953 60.8585 3.8086C69.8057 6.43229 76.4732 7.74414 80.8608 7.74414C88.0874 7.74414 92.8621 5.20508 95.185 0.126951L100.218 3.55469C98.3251 15.7422 91.7007 21.8359 80.3446 21.8359ZM37.3719 18.916C37.3719 21.0319 39.2216 22.0898 42.9209 22.0898C46.6203 22.0898 51.1369 20.7357 56.4709 18.0273C48.9001 16.1654 43.6952 15.2344 40.8562 15.2344C39.9099 15.2344 39.0926 15.6152 38.4043 16.377C37.7161 17.054 37.3719 17.9004 37.3719 18.916ZM72.6018 28.3105L70.537 41.8945H89.765C90.5393 43.6719 90.9264 45.4069 90.9264 47.0996C90.9264 48.7923 90.1091 50.2311 88.4745 51.416C86.8399 52.5163 84.7752 53.0664 82.2803 53.0664H68.7303L68.6013 54.209C79.4412 59.2871 84.8612 66.8197 84.8612 76.8066C84.8612 84.3392 82.8395 89.6712 78.796 92.8027C74.7525 95.8496 69.9778 97.373 64.4718 97.373C58.9658 97.373 54.7072 96.0189 51.6961 93.3105C48.685 90.5176 47.1795 86.8359 47.1795 82.2656C47.1795 81.5039 47.2655 80.5306 47.4376 79.3457L50.9219 53.0664H38.7914C39.3076 48.2422 39.7378 44.5182 40.0819 41.8945H52.4704L53.8899 30.7227C58.3636 28.6068 62.1059 27.5488 65.117 27.5488C68.1281 27.5488 70.623 27.8027 72.6018 28.3105ZM68.4722 85.8203C70.537 85.8203 72.3437 85.1009 73.8922 83.6621C75.4408 82.1387 76.2151 79.7689 76.2151 76.5527C76.2151 70.2051 73.29 65.3385 67.4399 61.9531C66.0634 71.3477 65.3321 77.2298 65.2461 79.5996C65.2461 81.8848 65.5472 83.4928 66.1494 84.4238C66.8377 85.3548 67.6119 85.8203 68.4722 85.8203Z" fill="url(#paint16_linear_60_2193)"/>
<defs>
<linearGradient id="paint0_linear_60_2193" x1="0" y1="0" x2="346.705" y2="375.322" gradientUnits="userSpaceOnUse">
<stop stop-color="#2B2B2B"/>
<stop offset="1" stop-color="#181818"/>
</linearGradient>
<linearGradient id="paint1_linear_60_2193" x1="0" y1="0" x2="346.705" y2="375.322" gradientUnits="userSpaceOnUse">
<stop stop-color="#2B2B2B"/>
<stop offset="1" stop-color="#181818"/>
</linearGradient>
<linearGradient id="paint2_linear_60_2193" x1="0" y1="0" x2="346.705" y2="375.322" gradientUnits="userSpaceOnUse">
<stop stop-color="#2B2B2B"/>
<stop offset="1" stop-color="#181818"/>
</linearGradient>
<linearGradient id="paint3_linear_60_2193" x1="0" y1="0" x2="346.705" y2="375.322" gradientUnits="userSpaceOnUse">
<stop stop-color="#2B2B2B"/>
<stop offset="1" stop-color="#181818"/>
</linearGradient>
<linearGradient id="paint4_linear_60_2193" x1="0" y1="0" x2="346.705" y2="375.322" gradientUnits="userSpaceOnUse">
<stop stop-color="#2B2B2B"/>
<stop offset="1" stop-color="#181818"/>
</linearGradient>
<linearGradient id="paint5_linear_60_2193" x1="0" y1="0" x2="346.705" y2="375.322" gradientUnits="userSpaceOnUse">
<stop stop-color="#2B2B2B"/>
<stop offset="1" stop-color="#181818"/>
</linearGradient>
<linearGradient id="paint6_linear_60_2193" x1="0" y1="0" x2="346.705" y2="375.322" gradientUnits="userSpaceOnUse">
<stop stop-color="#2B2B2B"/>
<stop offset="1" stop-color="#181818"/>
</linearGradient>
<linearGradient id="paint7_linear_60_2193" x1="0" y1="0" x2="346.705" y2="375.322" gradientUnits="userSpaceOnUse">
<stop stop-color="#2B2B2B"/>
<stop offset="1" stop-color="#181818"/>
</linearGradient>
<linearGradient id="paint8_linear_60_2193" x1="0" y1="0" x2="346.705" y2="375.322" gradientUnits="userSpaceOnUse">
<stop stop-color="#2B2B2B"/>
<stop offset="1" stop-color="#181818"/>
</linearGradient>
<linearGradient id="paint9_linear_60_2193" x1="0" y1="0" x2="346.705" y2="375.322" gradientUnits="userSpaceOnUse">
<stop stop-color="#2B2B2B"/>
<stop offset="1" stop-color="#181818"/>
</linearGradient>
<linearGradient id="paint10_linear_60_2193" x1="0" y1="0" x2="346.705" y2="375.322" gradientUnits="userSpaceOnUse">
<stop stop-color="#2B2B2B"/>
<stop offset="1" stop-color="#181818"/>
</linearGradient>
<linearGradient id="paint11_linear_60_2193" x1="0" y1="0" x2="346.705" y2="375.322" gradientUnits="userSpaceOnUse">
<stop stop-color="#2B2B2B"/>
<stop offset="1" stop-color="#181818"/>
</linearGradient>
<linearGradient id="paint12_linear_60_2193" x1="0" y1="0" x2="346.705" y2="375.322" gradientUnits="userSpaceOnUse">
<stop stop-color="#2B2B2B"/>
<stop offset="1" stop-color="#181818"/>
</linearGradient>
<linearGradient id="paint13_linear_60_2193" x1="0" y1="0" x2="346.705" y2="375.322" gradientUnits="userSpaceOnUse">
<stop stop-color="#2B2B2B"/>
<stop offset="1" stop-color="#181818"/>
</linearGradient>
<linearGradient id="paint14_linear_60_2193" x1="0" y1="0" x2="346.705" y2="375.322" gradientUnits="userSpaceOnUse">
<stop stop-color="#2B2B2B"/>
<stop offset="1" stop-color="#181818"/>
</linearGradient>
<linearGradient id="paint15_linear_60_2193" x1="0" y1="0" x2="346.705" y2="375.322" gradientUnits="userSpaceOnUse">
<stop stop-color="#2B2B2B"/>
<stop offset="1" stop-color="#181818"/>
</linearGradient>
<linearGradient id="paint16_linear_60_2193" x1="0" y1="0" x2="346.705" y2="375.322" gradientUnits="userSpaceOnUse">
<stop stop-color="#2B2B2B"/>
<stop offset="1" stop-color="#181818"/>
</linearGradient>
</defs>
</svg>
