<svg xmlns="http://www.w3.org/2000/svg" width="800" height="800">
    <path fill-rule="evenodd" fill="#FFF" d="M399.1.001C179.086.001-.001 179.086-.001 400c0 220.915 179.087 400 399.101 400C620.913 800 800 620.915 800 400 800 179.086 620.913.001 399.1.001zm0 72.916c56.678 0 109.194 13.961 155.145 38.579-126.895 24.388-168.703 86.466-225.603 136.19-56.997 49.805-134.744 90.794-241.641 57.091C127.767 170.578 252.479 72.917 399.1 72.917zM121.752 572.023C90.79 522.05 72.915 463.111 72.915 400c0-5.359.128-10.69.385-15.988 89.469 47.506 179.111 52.725 231.336 47.797 74.058-6.982 140.521-38.942 178.6-50.396 40.509-12.183 83.687-12.053 121.004.573-6.668-.537-13.222-.835-19.552-.777-69.883.658-117.112 32.665-156.414 69.867-59.013 55.827-178.946 176.416-306.522 120.947zM399.1 727.084c-74.452 0-143.851-25.479-199.156-68.294 118-4.494 204.774-80.208 257.073-132.058 54.627-54.138 156.941-124.143 252.88-21.826C666.183 634.091 543.951 727.084 399.1 727.084zm87.32-421.862c-41.059 9.664-126.178 44.403-176.371 51.51-4.858.691-9.836 1.21-14.859 1.66 27.523-13.548 51.429-29.952 71.279-46.391 76.158-63.071 117.442-137.103 275.093-132.531 48.394 52.98 79.591 121.936 84.76 198.035-60.495-70.972-155.382-92.179-239.902-72.283z"/>
</svg>
