<svg width="93" height="21" viewBox="0 0 93 21" fill="none" xmlns="http://www.w3.org/2000/svg">
<g id="Group 1000001975">
<path id="Vector" d="M79.2444 17.4863L78.9514 17.1933V4.92926L81.0443 2.83643H90.6504L92.7432 4.92926V17.1933L92.4502 17.4863H89.4784L89.1854 17.1933V12.296H82.5092V17.1933L82.2162 17.4863H79.2444ZM82.5092 9.15679H89.1854V6.66631L88.4947 5.97568H83.2208L82.5092 6.66631V9.15679Z" fill="white"/>
<path id="Vector_2" d="M64.1072 7.48252V3.12942L64.4002 2.83643H67.372L67.665 3.12942V6.68724L71.0135 10.8729L74.3411 6.68724V3.12942L74.6341 2.83643H77.606L77.899 3.12942V7.48252L77.7525 7.85923L72.7924 13.6773V17.1933L72.4994 17.4863H69.5276L69.2346 17.1933V13.6773L64.2537 7.85923L64.1072 7.48252Z" fill="white"/>
<path id="Vector_3" d="M49.5637 17.4863L49.2708 17.1933V4.92926L51.3636 2.83643H60.9697L63.0625 4.92926V17.1933L62.7695 17.4863H59.7977L59.5047 17.1933V12.296H52.8286V17.1933L52.5356 17.4863H49.5637ZM52.8286 9.15679H59.5047V6.66631L58.8141 5.97568H53.5401L52.8286 6.66631V9.15679Z" fill="white"/>
<path id="Vector_4" d="M36.9004 2.83643H39.8722L40.1652 3.12942V14.347H47.9087L48.2227 14.64L47.8459 17.1933L47.532 17.4863H36.9004L36.6074 17.1933V3.12942L36.9004 2.83643Z" fill="white"/>
<path id="Vector_5" d="M21.2468 17.1933V3.12942L21.5398 2.83643H32.9458L35.0386 4.92926V11.8984L32.9458 13.9912H24.8046V17.1933L24.5116 17.4863H21.5398L21.2468 17.1933ZM24.8046 10.852H30.7692L31.4808 10.1404V6.68724L30.7692 5.97568H24.8046V10.852Z" fill="white"/>
<path id="Vector_6" fill-rule="evenodd" clip-rule="evenodd" d="M6.93071 19.7234L2.4625 17.1176C1.71253 16.673 1.09114 16.041 0.659398 15.2835C0.227657 14.5261 0.000419019 13.6694 1.66067e-05 12.7975L1.68344e-05 7.58868C1.6912e-05 5.81375 0.945722 4.15904 2.4625 3.27238L6.92696 0.667143C7.67638 0.22969 8.52867 -0.000561856 9.39642 6.17363e-07C10.2487 6.54618e-07 11.1021 0.221129 11.8621 0.667143L16.3266 3.27238C17.8434 4.1569 18.7891 5.80999 18.7891 7.58868L18.7891 12.7975C18.7891 14.5725 17.8455 16.2272 16.3266 17.1176L11.8621 19.7234C11.113 20.1577 10.2624 20.3864 9.39642 20.3864C8.53047 20.3864 7.67988 20.1577 6.93071 19.7234ZM10.8069 17.8824L15.2714 15.2745C15.7024 15.0205 16.0596 14.6584 16.3078 14.2239C16.5559 13.7895 16.6863 13.2978 16.6862 12.7975L16.6862 7.58868C16.6868 7.08925 16.5569 6.59833 16.3094 6.16454C16.0619 5.73074 15.7054 5.36912 15.2751 5.11548L10.8069 2.50809C9.9369 1.99552 8.85218 2.00411 7.98162 2.50809L3.51662 5.11548C3.08604 5.36895 2.7291 5.73046 2.48115 6.16424C2.23319 6.59802 2.10281 7.08903 2.1029 7.58868L2.1029 12.7975C2.10274 13.2977 2.23306 13.7893 2.48099 14.2237C2.72893 14.6581 3.08589 15.0203 3.51662 15.2745L7.98162 17.8824C8.41085 18.1312 8.89816 18.2622 9.39427 18.2622C9.89038 18.2622 10.3777 18.1312 10.8069 17.8824ZM8.80817 15.442L7.50715 12.7374C7.37616 12.4601 7.15523 12.2352 6.88026 12.0993L4.20792 10.7848C3.72004 10.5433 3.72004 9.84076 4.20792 9.59709L6.42512 8.50808C6.99417 8.22569 7.45303 7.76192 7.72936 7.1899L8.80817 4.94426C8.86118 4.83364 8.94438 4.74026 9.04818 4.6749C9.15198 4.60954 9.27214 4.57486 9.39481 4.57486C9.51747 4.57486 9.63764 4.60954 9.74144 4.6749C9.84524 4.74026 9.92844 4.83364 9.98145 4.94426L11.0603 7.1899C11.3364 7.76201 11.7953 8.22582 12.3645 8.50808L14.5801 9.59709C15.0696 9.84076 15.0696 10.5433 14.5801 10.7848L12.3645 11.876C11.7925 12.1563 11.3326 12.6226 11.0603 13.1985L9.98144 15.442C9.74314 15.9357 9.04755 15.9357 8.80817 15.442Z" fill="white"/>
</g>
</svg>
