<svg xmlns="http://www.w3.org/2000/svg" width="203" height="201">
    <path fill-rule="evenodd" fill="#FFF" d="m112.533 6.783 23.638 48.15a24.675 24.675 0 0 0 11.399 11.354l48.617 23.37c8.885 4.31 8.885 16.824 0 21.133l-40.318 19.393c-10.311 4.973-18.693 13.26-23.722 23.454l-19.614 39.946c-4.359 8.784-17.016 8.784-21.375 0l-19.615-39.946c-5.029-10.194-13.411-18.481-23.721-23.454L7.503 110.79c-8.885-4.309-8.885-16.823 0-21.133l40.319-19.392c10.394-4.973 18.692-13.26 23.721-23.537L91.158 6.783c4.359-8.784 17.016-8.784 21.375 0z"/>
</svg>
