<svg xmlns="http://www.w3.org/2000/svg" width="216" height="220">
    <path fill-rule="evenodd" fill="#FFF" d="M209.426 69.012 155.807 8.569l-1.859-.287L104.456 0 26.051 30.047 2.005 142.152 0 151.502l8.69 5.69 92.274 60.419 3.653 2.392 99.967-55.149 1.189-9.192 9.636-74.464.583-4.784-6.566-7.402zm-68.084-44.549-5.714 23.896-16.772-27.658 22.486 3.762zm22.077 96.446-20.944 26.745-16.083-1.016 14.871-62.253 22.156 36.524zM41.53 43.427l44.89-17.196-59.737 86.473L41.53 43.427zm58.88 152.286-62.185-40.732 70.852 4.482-8.667 36.25zm-75.895-55.554 80.146-116.056 26.323 43.4-18.641 78.217-87.828-5.561zm98.61 20.175 8.933.569-13.051 16.663 4.118-17.232zm7.686 24.651 18.013-22.977 21.224 1.35-39.237 21.627zm28.44-36.288 11.854-15.142 10.029 16.512-21.883-1.37zm30.716-10.755-9.741-16.023 14.141-18.036-4.4 34.059zm-17.38-28.719-26.73-44.034 7.645-32.103 41.821 47.092-22.736 29.045z"/>
</svg>
