<svg xmlns="http://www.w3.org/2000/svg" width="67" height="66">
    <path fill="#FFFFFF" fill-rule="evenodd" d="M.313 33.004c0 18.208 14.76 32.969 32.968 32.969 18.207 0 32.968-14.761 32.968-32.969C66.249 14.798 51.488.037 33.281.037 15.073.037.313 14.798.313 33.004zm43.988 3.545 1.614 3.331c.199.407.528.735.933.933l3.326 1.619a.855.855 0 0 1 0 1.537l-3.33 1.621c-.406.198-.73.526-.929.931l-1.614 3.332a.854.854 0 0 1-1.537 0l-1.615-3.332a2.002 2.002 0 0 0-.929-.931l-3.326-1.621a.855.855 0 0 1 0-1.537l3.322-1.619c.406-.198.735-.526.933-.933l1.615-3.331a.855.855 0 0 1 1.537 0zm6.303-18.042 1.237 2.55c.126.26.337.471.596.599l2.548 1.239a.622.622 0 0 1 0 1.118l-2.114 1.029a2.703 2.703 0 0 0-1.241 1.243L50.604 28.4a.619.619 0 0 1-1.115 0l-1.027-2.115a2.694 2.694 0 0 0-1.241-1.243l-2.113-1.029a.622.622 0 0 1 0-1.118l2.113-1.03a2.69 2.69 0 0 0 1.241-1.245l1.027-2.113a.619.619 0 0 1 1.115 0zm-25.002-2.22 3.42 7.042a2.944 2.944 0 0 0 1.358 1.364l7.03 3.425c.815.396.815 1.557 0 1.955l-7.03 3.423a2.951 2.951 0 0 0-1.358 1.361l-3.42 7.045c-.393.815-1.557.815-1.951 0l-3.419-7.045a2.944 2.944 0 0 0-1.359-1.361l-7.029-3.423c-.815-.398-.815-1.559 0-1.955l7.029-3.425a2.953 2.953 0 0 0 1.359-1.361l3.419-7.045c.394-.815 1.558-.815 1.951 0z"/>
</svg>
