<svg xmlns="http://www.w3.org/2000/svg" width="71" height="58">
    <path fill="#FFFFFF" fill-rule="evenodd" d="M34.948 18.126C17.176 17.676 5.141 3.159 5.141 3.159S-.99 14.806 9.471 22.318c0 0-2.895.253-6.115-1.603 0 0-1.252 10.803 11.064 14.235 0 0-.815.901-6.018.479 0 0 2.545 9.551 13.175 9.846 0 0-6.538 7.048-20.795 6.288 0 0 22.608 15.319 46.589-1.362 8.139-5.662 17.821-21.214 16.484-35.451 0 0 4.387-2.813 7.002-7.399 0 0-1.885.775-3.841 1.333-1.62.463-3.289.723-3.976.749 0 0 5.37-3.714 5.961-7.878 0 0-5.864 3.19-8.929 3.422l-.106.007A14.513 14.513 0 0 0 49.373.41c-8.04 0-14.558 6.521-14.558 14.565 0 1.082.118 2.137.342 3.152l-.209-.001z"/>
</svg>
