<svg width="65" height="19" viewBox="0 0 65 19" fill="none" xmlns="http://www.w3.org/2000/svg">
<path fill-rule="evenodd" clip-rule="evenodd" d="M64.777 12.8354L63.4292 13.5124C63.0834 13.6869 62.8042 13.975 62.6359 14.331L61.9803 15.7254C61.8345 16.0318 61.4114 16.0318 61.2656 15.7254L60.6097 14.331C60.4415 13.975 60.1624 13.6869 59.8167 13.5124L58.4686 12.8354C58.1716 12.685 58.1716 12.248 58.4686 12.0976L59.8167 11.4207C60.1638 11.2467 60.4433 10.9572 60.6097 10.5993L61.2656 9.20495C61.4114 8.89822 61.8345 8.89822 61.9803 9.20495L62.7707 10.8857C62.851 11.0578 62.9851 11.1974 63.1517 11.282L64.777 12.0976C65.0743 12.248 65.0743 12.685 64.777 12.8354ZM60.3579 4.34217H59.4695C56.7933 4.34217 54.6213 6.58396 54.6213 9.34664V14.0791C54.6213 14.2459 54.5571 14.4059 54.4426 14.5241C54.3281 14.6423 54.1727 14.7092 54.0103 14.7099H51.0255C50.8632 14.7091 50.7078 14.6422 50.5933 14.524C50.4788 14.4058 50.4146 14.2459 50.4146 14.0791V9.34664C50.4146 4.18283 54.4699 0 59.4695 0H60.3579C60.5202 0.00078944 60.6756 0.0675702 60.7901 0.185735C60.9046 0.3039 60.9688 0.463831 60.9688 0.630547V3.71135C60.9689 3.87811 60.9047 4.03811 60.7902 4.15634C60.6757 4.27456 60.5202 4.34138 60.3579 4.34217ZM48.7078 8.18652C48.6952 8.3433 48.6257 8.48948 48.5131 8.59611C48.4005 8.70273 48.253 8.76202 48.0998 8.76223H38.0106C38.0901 9.13713 38.2253 9.49721 38.4115 9.82979C38.7505 10.4313 39.2298 10.8914 39.8492 11.2068C40.4686 11.5219 41.1971 11.6783 42.035 11.6783C42.7862 11.6783 43.4447 11.5624 44.011 11.3281C44.4173 11.1607 44.7985 10.9347 45.143 10.6571C45.2634 10.5588 45.4157 10.511 45.5691 10.5233C45.7225 10.5356 45.8657 10.6072 45.9698 10.7236L47.3486 12.2654C47.4579 12.3888 47.5156 12.5513 47.5093 12.718C47.5031 12.8847 47.4333 13.0422 47.315 13.1565C46.749 13.6945 46.0818 14.1255 45.3084 14.4467C44.3331 14.8516 43.2066 15.0541 41.9343 15.0541C40.3283 15.0541 38.9215 14.73 37.7081 14.0821C36.4944 13.4342 35.5556 12.5461 34.8942 11.4207C34.2301 10.2956 33.8993 9.03123 33.8993 7.57335C33.8993 6.11546 34.2272 4.82234 34.8802 3.69696C35.5331 2.57159 36.4273 1.68942 37.5622 1.04992C38.6945 0.413669 40.0313 0.0925598 41.4074 0.0925598C42.7833 0.0925598 44.0276 0.396297 45.1348 0.998071H45.1403C46.2472 1.59957 47.1245 2.46464 47.769 3.59002C48.4137 4.71512 48.7358 6.06334 48.7358 7.62817C48.7358 7.79022 48.7248 7.97534 48.7078 8.18082V8.18652ZM44.4956 5.06229C44.1986 4.50394 43.7895 4.0672 43.2653 3.75179C42.7413 3.43937 42.1304 3.28031 41.4325 3.28031C40.7347 3.28031 40.1208 3.43666 39.5884 3.75179H39.5858C39.056 4.0672 38.6411 4.50693 38.3441 5.07396C38.1536 5.44121 38.0246 5.85217 37.9575 6.30329H44.888C44.8235 5.8462 44.6919 5.43253 44.4956 5.06229ZM32.1981 8.18652C32.1855 8.3433 32.116 8.48948 32.0034 8.59611C31.8908 8.70273 31.7433 8.76202 31.5901 8.76223H21.5009C21.5804 9.13713 21.7156 9.49721 21.9018 9.82979C22.2408 10.4313 22.7201 10.8914 23.3395 11.2068C23.9589 11.5219 24.6874 11.6783 25.5253 11.6783C26.2765 11.6783 26.935 11.5624 27.5013 11.3281C27.9077 11.1606 28.2889 10.9347 28.6336 10.6571C28.754 10.5587 28.9062 10.5109 29.0596 10.5232C29.2129 10.5356 29.3561 10.6072 29.4601 10.7236L30.8389 12.2654C30.9482 12.3888 31.0059 12.5513 30.9996 12.718C30.9934 12.8847 30.9236 13.0422 30.8053 13.1565C30.2393 13.6945 29.5721 14.1255 28.7987 14.4467C27.8234 14.8516 26.6969 15.0541 25.4246 15.0541C23.8186 15.0541 22.4118 14.73 21.1984 14.0821C19.9847 13.4342 19.0459 12.5461 18.3845 11.4207C17.7204 10.2956 17.3896 9.03123 17.3896 7.57335C17.3896 6.11546 17.7175 4.82234 18.3705 3.69696C19.0237 2.57159 19.9176 1.68942 21.0525 1.04992C22.1848 0.413669 23.5216 0.0925598 24.8977 0.0925598C26.2736 0.0925598 27.5179 0.396297 28.6251 0.998071H28.6306C29.7375 1.59957 30.6148 2.46464 31.2593 3.59002C31.904 4.71512 32.2262 6.06334 32.2262 7.62817C32.2262 7.79022 32.2151 7.97534 32.1981 8.18082V8.18652ZM27.9862 5.06229C27.6889 4.50394 27.2799 4.0672 26.7556 3.75179C26.2316 3.43937 25.6207 3.28031 24.9228 3.28031C24.225 3.28031 23.6114 3.43666 23.0787 3.75179H23.0761C22.5463 4.0672 22.1317 4.50693 21.8344 5.07396C21.6439 5.44121 21.5149 5.85217 21.4478 6.30329H28.3783C28.3138 5.8462 28.1822 5.43253 27.9862 5.06229ZM12.163 12.9627C10.9776 13.5124 9.56495 13.7871 7.92561 13.7871H4.84827C4.68598 13.7879 4.5306 13.8546 4.41611 13.9728C4.30162 14.091 4.23735 14.2509 4.23735 14.4176V18.3692C4.23742 18.5359 4.17318 18.6959 4.05869 18.8142C3.94419 18.9324 3.78877 18.9992 3.62643 19H0.610926C0.448587 18.9992 0.293163 18.9324 0.178668 18.8142C0.064173 18.6959 -6.80497e-05 18.5359 3.65444e-06 18.3692V0.726092C-0.000274377 0.643446 0.0153147 0.561554 0.045879 0.485103C0.0764432 0.408653 0.121383 0.339143 0.178126 0.280552C0.234869 0.22196 0.302302 0.175438 0.376567 0.143646C0.450832 0.111854 0.53047 0.0954164 0.610926 0.0952741H7.92825C9.56786 0.0952741 10.9802 0.370239 12.1659 0.916912H12.163C13.3483 1.46657 14.265 2.25346 14.9095 3.28031C15.5539 4.30742 15.8763 5.55114 15.8763 6.9542C15.8763 8.35725 15.5539 9.5722 14.9095 10.5993C14.265 11.6262 13.3483 12.4131 12.163 12.9627ZM10.6216 4.5243C9.97426 3.94858 8.99895 3.65923 7.69017 3.65923H4.23735V10.2201H7.69017C8.99895 10.2201 9.9769 9.93104 10.6216 9.35532V9.35831C11.2661 8.78259 11.5885 7.99869 11.5885 6.9542C11.5885 5.90998 11.2661 5.10002 10.6216 4.5243Z" fill="white"/>
</svg>
