<svg width="63" height="15" viewBox="0 0 63 15" fill="none" xmlns="http://www.w3.org/2000/svg">
<path d="M17.785 0.090332H13.5164C13.3403 0.090332 13.1812 0.195422 13.1152 0.354698L9.10898 10.0426L5.10272 0.354698C5.03671 0.195422 4.87761 0.090332 4.70159 0.090332H0.432992C0.118178 0.090332 -0.0900048 0.405601 0.0386286 0.683103L6.42291 14.481C6.57862 14.7438 6.86635 14.9063 7.17947 14.9063H11.0385C11.3516 14.9063 11.6393 14.7438 11.795 14.481L18.1793 0.683103C18.308 0.405601 18.0998 0.090332 17.785 0.090332Z" fill="white"/>
<path d="M43.6874 15.0002H39.3698C39.1379 15.0002 38.9483 14.818 38.9483 14.5914V9.86071C38.9483 7.27944 36.792 5.18751 34.1313 5.18751H32.4659C32.2086 5.18751 32.0004 5.38947 32.0004 5.63906V14.5914C32.0004 14.8163 31.8125 15.0002 31.579 15.0002H27.2613C27.0294 15.0002 26.8398 14.818 26.8398 14.5914V0.565209C26.8398 0.353388 27.0159 0.182617 27.2342 0.182617H34.1296C39.6389 0.182617 44.1055 4.51592 44.1055 9.86071V14.5914C44.1055 14.8163 43.9176 15.0002 43.6841 15.0002H43.6874Z" fill="white"/>
<path d="M24.7293 6.74365H20.3253C20.0925 6.74365 19.9038 6.92671 19.9038 7.15252V14.5909C19.9038 14.8167 20.0925 14.9997 20.3253 14.9997H24.7293C24.962 14.9997 25.1507 14.8167 25.1507 14.5909V7.15252C25.1507 6.92671 24.962 6.74365 24.7293 6.74365Z" fill="white"/>
<path d="M20.325 0.182617H21.7366C23.6204 0.182617 25.1505 1.66701 25.1505 3.49458V5.00032C25.1505 5.22692 24.9609 5.40918 24.729 5.40918H20.3267C20.0931 5.40918 19.9053 5.22527 19.9053 5.00032V0.593123C19.9053 0.366524 20.0948 0.184259 20.3267 0.184259L20.325 0.182617Z" fill="white"/>
<path d="M62.9997 5.90965C62.6968 4.44003 61.9385 3.17567 60.7233 2.11493C59.1035 0.702786 57.0335 0 54.5235 0C52.0134 0 49.8876 0.720849 48.2238 2.15762C46.5634 3.59767 45.729 5.39569 45.729 7.55659C45.729 9.7175 46.582 11.4761 48.2915 12.885C50.001 14.2971 52.2656 14.9999 55.0854 14.9999C55.4916 14.9999 59.3472 14.9851 59.728 14.9572C59.8787 14.9457 59.9938 14.8357 59.9938 14.7043V10.9966C59.9938 10.8374 59.8431 10.7076 59.6587 10.7076H55.2834C53.5655 10.7076 52.4399 10.2364 51.9119 9.28729H59.0493H59.5689C60.0209 9.26594 63.0234 6.02459 62.9997 5.908V5.90965ZM52.2216 5.90965C52.0185 5.90965 51.8899 5.72574 51.9813 5.5681C52.506 4.65678 53.4064 4.20194 54.6893 4.20194C55.9723 4.20194 56.8135 4.66663 57.2434 5.59438C57.3128 5.74544 57.1774 5.90965 56.9895 5.90965H52.2233H52.2216Z" fill="white"/>
</svg>
