<svg width="81" height="26" viewBox="0 0 81 26" fill="none" xmlns="http://www.w3.org/2000/svg">
<path fill-rule="evenodd" clip-rule="evenodd" d="M76.7714 19.6027L67.5384 8.9978V19.6027H64.6762V6.39743H68.9048L78.1378 16.9654V6.39743H81V19.6027H76.7714ZM49.2014 6.39743H62.2201V8.6077H52.0637V11.9692H61.8507V14.0122H52.0637V17.3925H62.2201V19.6027H49.2014V6.39743ZM32.7297 17.1512L42.8861 8.84899H32.7297V6.39743H46.8932V8.84899L36.7184 17.1512H46.8932V19.6027H32.7297V17.1512ZM24.832 12.353C24.728 12.382 24.6178 12.3797 24.5151 12.3463L14.0554 8.91718C13.9592 8.88573 13.8734 8.82819 13.8075 8.7509C13.7416 8.67361 13.6982 8.57955 13.6819 8.47905L12.6128 1.81815C12.5998 1.73795 12.6046 1.65586 12.6268 1.57774C12.649 1.49962 12.6881 1.42739 12.7412 1.36621C12.7944 1.30511 12.8601 1.25646 12.9339 1.22364C13.0078 1.19083 13.0878 1.17466 13.1685 1.17627L19.8751 1.31955C19.9765 1.32205 20.0752 1.35256 20.1605 1.40773C20.2458 1.4629 20.3143 1.5406 20.3587 1.63235L25.1814 11.578C25.2166 11.6511 25.2353 11.7311 25.2363 11.8123C25.2374 11.8935 25.2206 11.9739 25.1873 12.0479C25.1539 12.1218 25.1048 12.1875 25.0434 12.2402C24.982 12.2929 24.9099 12.3314 24.832 12.353ZM13.36 24.4208C13.3379 24.4989 13.299 24.5712 13.2459 24.6325C13.1929 24.6938 13.1271 24.7425 13.0532 24.7753C12.9794 24.8084 12.8993 24.8244 12.8186 24.8228L6.11195 24.6795C6.01054 24.677 5.91176 24.6466 5.82642 24.5914C5.74109 24.5362 5.67249 24.4585 5.62814 24.3667L0.805696 14.4224C0.758339 14.3246 0.740608 14.215 0.754709 14.1072C0.768811 13.9993 0.814122 13.898 0.885005 13.8159C0.956057 13.7338 1.04955 13.6746 1.15383 13.6455C1.25811 13.6165 1.36857 13.619 1.47145 13.6527L11.9314 17.0813C12.0276 17.1129 12.1134 17.1706 12.1792 17.2479C12.245 17.3253 12.2884 17.4195 12.3046 17.52L13.374 24.1804C13.3869 24.2607 13.382 24.3427 13.36 24.4208ZM8.7563 11.4063C8.72496 11.5031 8.6677 11.5893 8.59082 11.6555C8.51394 11.7217 8.42041 11.7653 8.32052 11.7815L1.69785 12.8568C1.61818 12.8697 1.53667 12.8648 1.4591 12.8424C1.38137 12.8203 1.30946 12.7812 1.2485 12.7279C1.18754 12.6746 1.13904 12.6084 1.10646 12.5341C1.07365 12.4598 1.05753 12.3792 1.05926 12.298L1.20224 5.55263C1.20429 5.45056 1.23444 5.35106 1.28933 5.26518C1.34422 5.17931 1.4217 5.11042 1.51316 5.06619L11.3998 0.216349C11.497 0.168599 11.606 0.150699 11.7133 0.164884C11.8205 0.179068 11.9213 0.224708 12.0029 0.29611C12.0845 0.367512 12.1434 0.461514 12.1723 0.566388C12.2012 0.671261 12.1987 0.782364 12.1652 0.885834L8.7563 11.4063ZM17.2305 14.5928C17.2621 14.4959 17.3191 14.4097 17.396 14.3435C17.4728 14.2775 17.5664 14.2339 17.6663 14.2176L24.289 13.1439C24.3687 13.1312 24.4503 13.1361 24.5279 13.1585C24.6056 13.1808 24.6774 13.2199 24.7385 13.2731C24.7994 13.3264 24.848 13.3925 24.8807 13.4668C24.9135 13.5411 24.9295 13.6217 24.9278 13.703L24.7846 20.4481C24.7826 20.5501 24.7524 20.6495 24.6976 20.7354C24.6428 20.8212 24.5653 20.89 24.4739 20.9342L14.5853 25.7844C14.4881 25.8321 14.3789 25.8498 14.2717 25.8352C14.1916 25.8242 14.115 25.7956 14.0471 25.7515C13.9792 25.7075 13.9218 25.6489 13.8789 25.58C13.836 25.5112 13.8087 25.4337 13.7988 25.353C13.7889 25.2723 13.7968 25.1905 13.8219 25.1132L17.2305 14.5928Z" fill="white"/>
</svg>
