<svg width="171" height="50" viewBox="0 0 171 50" fill="none" xmlns="http://www.w3.org/2000/svg">
<g id="app-store" clip-path="url(#clip0_9505_36061)">
<g id="Group">
<g id="Group_2">
<g id="Group_3">
<path id="Vector" d="M156.801 0.0236H14.4666C13.9478 0.0236 13.4352 0.0236 12.9177 0.0261C12.4846 0.0286 12.0549 0.0358625 11.6175 0.0419749C10.6675 0.0518522 9.71967 0.125695 8.78232 0.262862C7.84629 0.403015 6.93958 0.667243 6.09286 1.04661C5.24717 1.42919 4.47444 1.9263 3.80271 2.51993C3.12744 3.11189 2.56456 3.79611 2.1357 4.54629C1.70566 5.29497 1.40746 6.09725 1.25142 6.92543C1.09389 7.75256 1.00912 8.58922 0.997875 9.42792C0.984746 9.81117 0.983359 10.1957 0.97644 10.579V39.4717C0.983359 39.8598 0.984746 40.2358 0.997875 40.6241C1.00912 41.4627 1.09389 42.2994 1.25142 43.1265C1.40703 43.9551 1.70524 44.7579 2.1357 45.5068C2.56436 46.2546 3.12733 46.936 3.80271 47.5247C4.4719 48.121 5.24512 48.6184 6.09286 48.9981C6.93957 49.3784 7.84618 49.6442 8.78232 49.7866C9.71983 49.9226 10.6676 49.9965 11.6175 50.0076C12.0549 50.0161 12.4846 50.0209 12.9177 50.0209C13.4352 50.0234 13.9478 50.0234 14.4666 50.0234H156.801C157.309 50.0234 157.826 50.0234 158.335 50.0209C158.766 50.0209 159.208 50.0161 159.639 50.0076C160.587 49.9971 161.533 49.9232 162.469 49.7866C163.408 49.6432 164.318 49.3775 165.168 48.9981C166.015 48.6182 166.788 48.1208 167.456 47.5247C168.13 46.9337 168.694 46.2528 169.128 45.5068C169.556 44.7573 169.851 43.9546 170.004 43.1265C170.162 42.2993 170.25 41.4628 170.267 40.6241C170.272 40.2358 170.272 39.8598 170.272 39.4717C170.283 39.0176 170.283 38.566 170.283 38.1045V11.9437C170.283 11.486 170.283 11.0319 170.272 10.579C170.272 10.1957 170.272 9.81117 170.267 9.42787C170.25 8.5891 170.162 7.75262 170.004 6.92538C169.85 6.09768 169.555 5.29546 169.128 4.54624C168.255 3.04259 166.87 1.81863 165.168 1.0465C164.318 0.668057 163.408 0.403899 162.469 0.262749C161.533 0.124978 160.587 0.0511096 159.639 0.0417999C159.208 0.0357 158.766 0.028375 158.335 0.0259375C157.826 0.0234375 157.309 0.0234375 156.801 0.0234375V0.0236Z" fill="black"/>
</g>
<g id="&#60;Group&#62;">
<g id="&#60;Group&#62;_2">
<g id="&#60;Group&#62;_3">
<path id="&#60;Path&#62;" d="M32.0595 25.4234C32.073 24.3762 32.3512 23.3494 32.8681 22.4386C33.3851 21.5278 34.124 20.7625 35.0162 20.214C34.4494 19.4046 33.7017 18.7384 32.8325 18.2685C31.9632 17.7985 30.9963 17.5378 30.0087 17.5069C27.9018 17.2857 25.8593 18.7676 24.7857 18.7676C23.6913 18.7676 22.0383 17.5288 20.2583 17.5655C19.1069 17.6027 17.9848 17.9375 17.0013 18.5373C16.0178 19.1371 15.2064 19.9814 14.6463 20.988C12.2198 25.1891 14.0297 31.3633 16.3541 34.7592C17.5171 36.422 18.8762 38.2795 20.6546 38.2136C22.3949 38.1414 23.0449 37.1039 25.1455 37.1039C27.2267 37.1039 27.8365 38.2136 29.651 38.1717C31.5184 38.1414 32.6949 36.5015 33.8171 34.8229C34.6527 33.638 35.2956 32.3285 35.7222 30.9429C34.6373 30.484 33.7114 29.7159 33.0601 28.7344C32.4088 27.7529 32.0608 26.6014 32.0595 25.4234Z" fill="white"/>
<path id="&#60;Path&#62;_2" d="M28.6337 15.2741C29.6519 14.0518 30.1535 12.4807 30.0321 10.8945C28.4765 11.0579 27.0396 11.8014 26.0077 12.9768C25.5031 13.551 25.1167 14.219 24.8705 14.9427C24.6242 15.6663 24.5231 16.4314 24.5727 17.1942C25.3508 17.2022 26.1205 17.0335 26.8239 16.7009C27.5274 16.3683 28.1462 15.8805 28.6337 15.2741Z" fill="white"/>
</g>
</g>
<g id="Group_4">
<path id="Vector_2" d="M54.0569 34.0039H48.1181L46.6919 38.2151H44.1765L49.8016 22.6348H52.4151L58.0402 38.2151H55.4819L54.0569 34.0039ZM48.7332 32.0606H53.4407L51.1201 25.2262H51.0551L48.7332 32.0606Z" fill="white"/>
<path id="Vector_3" d="M70.1852 32.5356C70.1852 36.0655 68.2959 38.3335 65.4448 38.3335C64.7225 38.3712 64.0042 38.2049 63.3721 37.8534C62.74 37.5019 62.2197 36.9795 61.8707 36.3461H61.8168V41.9724H59.4851V26.8553H61.7421V28.7447H61.7849C62.15 28.1142 62.6791 27.5946 63.316 27.241C63.9529 26.8873 64.6738 26.713 65.4019 26.7365C68.2848 26.7365 70.1852 29.0154 70.1852 32.5356ZM67.7887 32.5356C67.7887 30.2358 66.6002 28.7238 64.7868 28.7238C63.0053 28.7238 61.807 30.2676 61.807 32.5356C61.807 34.8243 63.0053 36.3571 64.7868 36.3571C66.6002 36.3571 67.7887 34.8562 67.7887 32.5356Z" fill="white"/>
<path id="Vector_4" d="M82.6891 32.5356C82.6891 36.0655 80.7998 38.3334 77.9487 38.3334C77.2264 38.3712 76.5081 38.2049 75.876 37.8534C75.244 37.5019 74.7236 36.9795 74.3746 36.3461H74.3207V41.9724H71.989V26.8553H74.2459V28.7446H74.2888C74.6538 28.1142 75.183 27.5946 75.8199 27.2409C76.4568 26.8873 77.1776 26.713 77.9057 26.7365C80.7888 26.7365 82.6891 29.0154 82.6891 32.5356ZM80.2926 32.5356C80.2926 30.2358 79.1041 28.7238 77.2907 28.7238C75.5092 28.7238 74.3109 30.2676 74.3109 32.5356C74.3109 34.8243 75.5092 36.3571 77.2907 36.3571C79.1041 36.3571 80.2926 34.8562 80.2926 32.5356H80.2926Z" fill="white"/>
<path id="Vector_5" d="M90.9501 33.874C91.1228 35.4191 92.6238 36.4335 94.6748 36.4335C96.6401 36.4335 98.054 35.419 98.054 34.0259C98.054 32.8166 97.2013 32.0925 95.1821 31.5962L93.1629 31.1098C90.3019 30.4188 88.9737 29.0808 88.9737 26.9096C88.9737 24.2215 91.3164 22.375 94.643 22.375C97.9352 22.375 100.192 24.2215 100.268 26.9096H97.9143C97.7734 25.3548 96.4882 24.4163 94.6098 24.4163C92.7315 24.4163 91.4463 25.3658 91.4463 26.7479C91.4463 27.8494 92.2672 28.4976 94.2754 28.9938L95.9919 29.4152C99.1886 30.1712 100.517 31.4553 100.517 33.7342C100.517 36.6491 98.1949 38.4747 94.502 38.4747C91.0468 38.4747 88.7139 36.692 88.5632 33.8739L90.9501 33.874Z" fill="white"/>
<path id="Vector_6" d="M105.55 24.168V26.8562H107.71V28.7026H105.55V34.9649C105.55 35.9377 105.982 36.3911 106.932 36.3911C107.188 36.3866 107.444 36.3686 107.699 36.3371V38.1725C107.272 38.2523 106.838 38.2884 106.404 38.2803C104.104 38.2803 103.207 37.4165 103.207 35.2135V28.7026H101.555V26.8562H103.207V24.168H105.55Z" fill="white"/>
<path id="Vector_7" d="M108.962 32.5348C108.962 28.9607 111.067 26.7148 114.349 26.7148C117.643 26.7148 119.738 28.9607 119.738 32.5348C119.738 36.1186 117.654 38.3547 114.349 38.3547C111.046 38.3547 108.962 36.1186 108.962 32.5348ZM117.362 32.5348C117.362 30.0831 116.238 28.636 114.349 28.636C112.46 28.636 111.337 30.0941 111.337 32.5348C111.337 34.9963 112.46 36.4323 114.349 36.4323C116.238 36.4323 117.362 34.9963 117.362 32.5348H117.362Z" fill="white"/>
<path id="Vector_8" d="M121.661 26.8552H123.885V28.7886H123.939C124.089 28.1848 124.443 27.6511 124.94 27.2774C125.438 26.9037 126.049 26.7126 126.671 26.7363C126.94 26.7354 127.208 26.7646 127.47 26.8233V29.0043C127.131 28.9006 126.777 28.853 126.422 28.8634C126.083 28.8496 125.746 28.9094 125.432 29.0385C125.119 29.1675 124.837 29.3629 124.606 29.6112C124.375 29.8595 124.201 30.1548 124.095 30.4768C123.989 30.7989 123.954 31.14 123.993 31.4768V38.2145H121.661L121.661 26.8552Z" fill="white"/>
<path id="Vector_9" d="M138.22 34.8775C137.906 36.9395 135.898 38.3547 133.329 38.3547C130.024 38.3547 127.973 36.1407 127.973 32.5887C127.973 29.0257 130.035 26.7148 133.231 26.7148C136.374 26.7148 138.35 28.8737 138.35 32.3179V33.1168H130.327V33.2577C130.29 33.6757 130.342 34.0969 130.481 34.4931C130.619 34.8894 130.84 35.2517 131.129 35.556C131.418 35.8604 131.768 36.0997 132.157 36.2582C132.546 36.4166 132.963 36.4906 133.383 36.4752C133.934 36.5268 134.487 36.3992 134.959 36.1113C135.432 35.8234 135.799 35.3907 136.006 34.8774L138.22 34.8775ZM130.338 31.4872H136.017C136.038 31.1113 135.981 30.7351 135.85 30.3823C135.718 30.0295 135.516 29.7076 135.254 29.4369C134.992 29.1662 134.678 28.9525 134.329 28.8092C133.981 28.6659 133.607 28.5961 133.231 28.6042C132.851 28.6019 132.475 28.6749 132.123 28.8188C131.772 28.9628 131.453 29.1749 131.184 29.4429C130.915 29.711 130.702 30.0296 130.557 30.3805C130.411 30.7314 130.337 31.1075 130.338 31.4872V31.4872Z" fill="white"/>
</g>
</g>
</g>
<g id="&#60;Group&#62;_4">
<g id="Group_5">
<path id="Vector_10" d="M48.4384 10.9069C48.9272 10.8719 49.4177 10.9457 49.8746 11.1232C50.3314 11.3006 50.7432 11.5772 51.0801 11.9331C51.4171 12.2889 51.6709 12.7151 51.8232 13.181C51.9756 13.6468 52.0226 14.1406 51.961 14.6268C51.961 17.0185 50.6683 18.3933 48.4384 18.3933H45.7343V10.9069H48.4384ZM46.897 17.3345H48.3085C48.6578 17.3554 49.0074 17.2981 49.3317 17.1669C49.6561 17.0356 49.9471 16.8337 50.1836 16.5758C50.4201 16.3179 50.5961 16.0105 50.6988 15.6759C50.8015 15.3414 50.8284 14.9882 50.7774 14.642C50.8247 14.2972 50.7951 13.9462 50.6908 13.6141C50.5866 13.2821 50.4101 12.9772 50.1742 12.7213C49.9382 12.4655 49.6486 12.265 49.326 12.1342C49.0035 12.0034 48.656 11.9456 48.3085 11.9649H46.897V17.3345Z" fill="white"/>
<path id="Vector_11" d="M53.2742 15.5681C53.2387 15.1968 53.2812 14.8222 53.3989 14.4683C53.5166 14.1144 53.707 13.789 53.9579 13.513C54.2087 13.237 54.5145 13.0165 54.8556 12.8656C55.1967 12.7147 55.5655 12.6367 55.9385 12.6367C56.3115 12.6367 56.6803 12.7147 57.0214 12.8656C57.3625 13.0165 57.6683 13.237 57.9191 13.513C58.17 13.789 58.3604 14.1144 58.4781 14.4683C58.5959 14.8222 58.6383 15.1968 58.6028 15.5681C58.639 15.9397 58.597 16.3148 58.4796 16.6693C58.3622 17.0238 58.1719 17.3498 57.921 17.6263C57.67 17.9029 57.364 18.1238 57.0226 18.2751C56.6812 18.4263 56.3119 18.5044 55.9385 18.5044C55.5651 18.5044 55.1958 18.4263 54.8544 18.2751C54.513 18.1238 54.207 17.9029 53.956 17.6263C53.7051 17.3498 53.5148 17.0238 53.3974 16.6693C53.28 16.3148 53.238 15.9397 53.2742 15.5681ZM57.456 15.5681C57.456 14.3434 56.9058 13.6273 55.9403 13.6273C54.9712 13.6273 54.426 14.3434 54.426 15.5681C54.426 16.8025 54.9712 17.5132 55.9403 17.5132C56.9058 17.5131 57.456 16.7976 57.456 15.5681H57.456Z" fill="white"/>
<path id="Vector_12" d="M65.6843 18.3938H64.5277L63.36 14.2328H63.2718L62.109 18.3938H60.9634L59.4061 12.7441H60.537L61.5491 17.0551H61.6324L62.794 12.7441H63.8636L65.0251 17.0551H65.1133L66.1205 12.7441H67.2355L65.6843 18.3938Z" fill="white"/>
<path id="Vector_13" d="M68.5468 12.7435H69.6201V13.641H69.7034C69.8447 13.3187 70.0831 13.0485 70.3853 12.868C70.6875 12.6876 71.0385 12.606 71.3893 12.6345C71.6642 12.6138 71.9403 12.6552 72.197 12.7557C72.4537 12.8562 72.6844 13.0132 72.8723 13.215C73.0601 13.4168 73.2 13.6583 73.2818 13.9215C73.3637 14.1848 73.3852 14.4631 73.3448 14.7358V18.3931H72.2299V15.0158C72.2299 14.1078 71.8353 13.6563 71.0107 13.6563C70.8241 13.6476 70.6378 13.6794 70.4646 13.7495C70.2914 13.8195 70.1353 13.9262 70.0072 14.0622C69.8791 14.1981 69.7819 14.3602 69.7222 14.5373C69.6626 14.7144 69.642 14.9022 69.6617 15.088V18.3931H68.5468L68.5468 12.7435Z" fill="white"/>
<path id="Vector_14" d="M75.121 10.5391H76.2359V18.3941H75.121V10.5391Z" fill="white"/>
<path id="Vector_15" d="M77.7859 15.5682C77.7504 15.1969 77.7929 14.8223 77.9107 14.4683C78.0284 14.1144 78.2189 13.789 78.4697 13.513C78.7206 13.237 79.0264 13.0165 79.3675 12.8656C79.7086 12.7147 80.0775 12.6367 80.4505 12.6367C80.8235 12.6367 81.1924 12.7147 81.5335 12.8656C81.8746 13.0165 82.1804 13.237 82.4313 13.513C82.6821 13.789 82.8726 14.1144 82.9903 14.4683C83.1081 14.8223 83.1506 15.1969 83.1151 15.5682C83.1513 15.9398 83.1093 16.315 82.9918 16.6694C82.8743 17.0239 82.684 17.3499 82.4331 17.6264C82.1821 17.903 81.8761 18.1239 81.5347 18.2752C81.1932 18.4264 80.8239 18.5045 80.4505 18.5045C80.0771 18.5045 79.7078 18.4264 79.3663 18.2752C79.0249 18.1239 78.7189 17.903 78.4679 17.6264C78.217 17.3499 78.0267 17.0239 77.9092 16.6694C77.7917 16.315 77.7497 15.9398 77.7859 15.5682ZM81.9677 15.5682C81.9677 14.3435 81.4175 13.6274 80.452 13.6274C79.4829 13.6274 78.9377 14.3435 78.9377 15.5682C78.9377 16.8026 79.4829 17.5133 80.452 17.5133C81.4175 17.5133 81.9677 16.7977 81.9677 15.5682H81.9677Z" fill="white"/>
<path id="Vector_16" d="M84.2889 16.7977C84.2889 15.7807 85.0461 15.1944 86.3902 15.1111L87.9206 15.0229V14.5352C87.9206 13.9385 87.526 13.6016 86.7639 13.6016C86.1415 13.6016 85.7102 13.8301 85.5865 14.2295H84.507C84.621 13.2591 85.5338 12.6367 86.8154 12.6367C88.2318 12.6367 89.0307 13.3418 89.0307 14.5352V18.3954H87.9573V17.6014H87.8691C87.6901 17.8862 87.4386 18.1184 87.1405 18.2742C86.8424 18.4301 86.5082 18.504 86.1721 18.4885C85.935 18.5131 85.6953 18.4878 85.4685 18.4142C85.2417 18.3405 85.0328 18.2202 84.8554 18.0609C84.678 17.9016 84.5359 17.7069 84.4383 17.4893C84.3408 17.2717 84.2899 17.0361 84.2889 16.7977ZM87.9206 16.3149V15.8426L86.5409 15.9308C85.7629 15.9829 85.41 16.2475 85.41 16.7456C85.41 17.254 85.8511 17.5499 86.4577 17.5499C86.6354 17.5679 86.8149 17.55 86.9855 17.4972C87.1562 17.4444 87.3145 17.3578 87.4509 17.2426C87.5874 17.1273 87.6993 16.9858 87.78 16.8265C87.8607 16.6671 87.9085 16.4931 87.9206 16.3149Z" fill="white"/>
<path id="Vector_17" d="M90.496 15.5669C90.496 13.7817 91.4137 12.6508 92.8411 12.6508C93.1942 12.6345 93.5446 12.7191 93.8514 12.8946C94.1582 13.0701 94.4087 13.3294 94.5736 13.642H94.6569V10.5391H95.7719V18.3941H94.7035V17.5015H94.6153C94.4376 17.812 94.1784 18.068 93.8656 18.2418C93.5529 18.4155 93.1986 18.5004 92.8411 18.4872C91.4039 18.4873 90.496 17.3564 90.496 15.5669ZM91.6477 15.5669C91.6477 16.7652 92.2126 17.4862 93.1573 17.4862C94.097 17.4862 94.6778 16.7548 94.6778 15.5718C94.6778 14.3943 94.0909 13.6524 93.1573 13.6524C92.2187 13.6524 91.6477 14.3784 91.6477 15.5669H91.6477Z" fill="white"/>
<path id="Vector_18" d="M100.387 15.5681C100.352 15.1968 100.394 14.8222 100.512 14.4683C100.63 14.1144 100.82 13.789 101.071 13.513C101.322 13.237 101.628 13.0165 101.969 12.8656C102.31 12.7147 102.679 12.6367 103.052 12.6367C103.425 12.6367 103.794 12.7147 104.135 12.8656C104.476 13.0165 104.782 13.237 105.032 13.513C105.283 13.789 105.474 14.1144 105.591 14.4683C105.709 14.8222 105.752 15.1968 105.716 15.5681C105.752 15.9397 105.71 16.3148 105.593 16.6693C105.475 17.0238 105.285 17.3498 105.034 17.6263C104.783 17.9029 104.477 18.1238 104.136 18.2751C103.794 18.4263 103.425 18.5044 103.052 18.5044C102.678 18.5044 102.309 18.4263 101.968 18.2751C101.626 18.1238 101.32 17.9029 101.069 17.6263C100.818 17.3498 100.628 17.0238 100.511 16.6693C100.393 16.3148 100.351 15.9397 100.387 15.5681ZM104.569 15.5681C104.569 14.3434 104.019 13.6273 103.054 13.6273C102.084 13.6273 101.539 14.3434 101.539 15.5681C101.539 16.8025 102.084 17.5132 103.054 17.5132C104.019 17.5131 104.569 16.7976 104.569 15.5681Z" fill="white"/>
<path id="Vector_19" d="M107.211 12.7435H108.284V13.641H108.367C108.509 13.3187 108.747 13.0485 109.049 12.868C109.352 12.6876 109.703 12.606 110.053 12.6345C110.328 12.6138 110.604 12.6552 110.861 12.7557C111.118 12.8562 111.349 13.0132 111.536 13.215C111.724 13.4168 111.864 13.6583 111.946 13.9215C112.028 14.1848 112.049 14.4631 112.009 14.7358V18.3931H110.894V15.0158C110.894 14.1078 110.499 13.6563 109.675 13.6563C109.488 13.6476 109.302 13.6794 109.129 13.7495C108.955 13.8195 108.799 13.9262 108.671 14.0622C108.543 14.1981 108.446 14.3602 108.386 14.5373C108.327 14.7144 108.306 14.9022 108.326 15.088V18.3931H107.211V12.7435Z" fill="white"/>
<path id="Vector_20" d="M118.31 11.3379V12.7702H119.534V13.7094H118.31V16.6144C118.31 17.2062 118.554 17.4654 119.109 17.4654C119.251 17.4649 119.393 17.4563 119.534 17.4396V18.3684C119.334 18.4042 119.131 18.4232 118.927 18.4253C117.687 18.4253 117.194 17.9891 117.194 16.8999V13.7093H116.297V12.7702H117.194V11.3379H118.31Z" fill="white"/>
<path id="Vector_21" d="M121.055 10.5391H122.16V13.6524H122.248C122.396 13.3271 122.641 13.0553 122.949 12.8742C123.258 12.6931 123.614 12.6115 123.971 12.6404C124.244 12.6255 124.517 12.6711 124.771 12.7741C125.025 12.877 125.253 13.0347 125.439 13.2359C125.625 13.437 125.764 13.6767 125.846 13.9379C125.929 14.199 125.953 14.4751 125.916 14.7466V18.3941H124.8V15.0216C124.8 14.1192 124.38 13.6622 123.592 13.6622C123.4 13.6465 123.208 13.6728 123.027 13.7394C122.847 13.806 122.683 13.9111 122.548 14.0476C122.412 14.184 122.308 14.3484 122.243 14.5292C122.178 14.7101 122.153 14.903 122.17 15.0945V18.3941H121.055L121.055 10.5391Z" fill="white"/>
<path id="Vector_22" d="M132.418 16.87C132.266 17.3864 131.938 17.833 131.491 18.1318C131.043 18.4306 130.505 18.5625 129.97 18.5045C129.597 18.5143 129.228 18.4431 128.886 18.2956C128.544 18.1481 128.238 17.928 127.99 17.6506C127.741 17.3731 127.557 17.045 127.448 16.6889C127.339 16.3328 127.309 15.9573 127.36 15.5884C127.31 15.2185 127.341 14.8421 127.449 14.485C127.558 14.1278 127.742 13.7981 127.989 13.5183C128.236 13.2384 128.54 13.0148 128.881 12.8628C129.222 12.7107 129.592 12.6336 129.965 12.6368C131.537 12.6368 132.485 13.7108 132.485 15.4849V15.8739H128.496V15.9364C128.478 16.1437 128.504 16.3524 128.572 16.5491C128.64 16.7458 128.748 16.9261 128.89 17.0785C129.032 17.2308 129.204 17.3519 129.395 17.434C129.586 17.516 129.792 17.5572 130 17.5549C130.267 17.5869 130.537 17.5389 130.777 17.417C131.016 17.295 131.214 17.1046 131.344 16.87L132.418 16.87ZM128.496 15.0493H131.349C131.363 14.8597 131.338 14.6693 131.274 14.4902C131.21 14.3111 131.109 14.1474 130.978 14.0096C130.847 13.8718 130.689 13.7628 130.513 13.6899C130.338 13.6169 130.149 13.5814 129.959 13.5858C129.766 13.5833 129.574 13.6196 129.396 13.6923C129.217 13.765 129.055 13.8727 128.919 14.0091C128.782 14.1455 128.675 14.3078 128.602 14.4864C128.529 14.6651 128.493 14.8565 128.496 15.0493H128.496Z" fill="white"/>
</g>
</g>
</g>
</g>
<defs>
<clipPath id="clip0_9505_36061">
<rect width="169.307" height="50" fill="white" transform="translate(0.971558)"/>
</clipPath>
</defs>
</svg>
