<svg xmlns="http://www.w3.org/2000/svg" width="221" height="221">
    <path fill-rule="evenodd" fill="#FFF" d="M220.997 110.183c0 6.525-.572 12.916-1.659 19.129l-.242 1.679-.052-.093c-9.693 50.95-54.461 89.471-108.234 89.471l-.312-.003.005.003-.125-.005c-26.143-.101-50.135-9.306-68.978-24.609l-2.177-1.636.257.04a110.947 110.947 0 0 1-9.365-8.957l-.567-.568.043.004c-12.401-13.52-21.466-30.145-25.903-48.575l-.042-.154.005.002a109.199 109.199 0 0 1-1.733-8.803l-.026-.136.003.002a110.395 110.395 0 0 1-1.013-9.308l-.096-1.008.034.028a111.2 111.2 0 0 1-.196-6.503c0-2.219.073-4.421.203-6.608l.109-3.306.118.211c.317-3.637.81-7.223 1.472-10.75l-.14.13.728-3.043a109.412 109.412 0 0 1 3.233-11.77l-.035.012.463-1.243a109.53 109.53 0 0 1 2.875-7.363l-.055.016.637-1.344a109.184 109.184 0 0 1 3.407-6.926l-.027.001.434-.759c.95-1.739 1.949-3.447 2.988-5.127l-.041.001.76-1.154a110.335 110.335 0 0 1 6.309-8.923l-.32.114 3.367-3.824a110.786 110.786 0 0 1 27.319-23.025l.053-.033 5.372-3.204-.156.287a109.433 109.433 0 0 1 23.428-9.048l.09-.024c1.477-.381 2.968-.725 4.468-1.045.212-.046.424-.095.637-.139 1.407-.292 2.826-.552 4.252-.789.293-.049.584-.099.877-.146 1.391-.22 2.79-.412 4.197-.58.157-.018.311-.046.468-.064l2.803-.322-.014.038.444-.038c.167-.015.335-.022.502-.035.677-.055 1.357-.099 2.037-.142.363-.022.724-.05 1.086-.069 1.027-.053 2.056-.093 3.09-.119.257-.006.514-.005.771-.01.658-.011 1.316-.024 1.977-.024.151 0 .301.005.452.005.351.002.702.009 1.053.014a106.966 106.966 0 0 1 5.535.211c.294.018.586.035.879.055.941.067 1.88.146 2.815.236.114.011.23.019.344.031 1.07.107 2.135.229 3.196.366.22.029.437.063.656.092.815.111 1.626.228 2.434.356.132.021.266.036.398.058l1.343.217.001-.002.094.018.502.081-.004.013.92.174c.137.026.272.061.409.087 1.398.27 2.789.562 4.167.885.139.032.278.068.418.102 1.438.342 2.867.709 4.283 1.108l.126.033c1.417.401 2.82.835 4.213 1.29.192.063.386.124.579.188 1.336.444 2.661.916 3.974 1.41.109.041.221.076.33.117l1.194.454.001-.002.098.04.45.171-.005.012.953.391c.078.031.154.068.232.1a108.316 108.316 0 0 1 3.763 1.636c1.245.569 2.477 1.163 3.696 1.777l.151.075a109.59 109.59 0 0 1 3.907 2.079c1.319.734 2.622 1.491 3.906 2.278l.537.326.005-.008.309.199.182.111-.003.005.536.345a109.517 109.517 0 0 1 3.81 2.538 110.822 110.822 0 0 1 21.127 19.172l.628.72-.014.007a110.42 110.42 0 0 1 6.945 9.247l.054.077-.002.001c11.752 17.524 18.61 38.605 18.61 61.29zm-11.322-37.166c-4.278 1.525-8.055 3.069-11.43 4.689-15.785 7.583-30.983 13.204-46.465 17.184-15.277 3.924-26.656 9.29-35.811 16.885-3.497 2.901-6.981 5.941-10.351 8.88-3.922 3.421-7.939 6.926-12.053 10.287-15.517 12.682-33.176 19.664-52.563 20.802 9.695-.278 19.573-1.262 29.129-4.203 15.403-4.741 27.445-11.689 36.814-21.242 15.408-15.71 35.715-26.418 62.082-32.738 5.239-1.256 10.488-3.132 15.565-4.947 2.902-1.037 5.902-2.109 8.938-3.082 1.88-.601 3.806-1.272 5.668-1.921 4.153-1.447 8.391-2.898 12.755-3.871a105.15 105.15 0 0 0-2.278-6.723zM99.173 215.161c-7.706-5.443-17.431-9.343-30.01-12.085a484.854 484.854 0 0 0-13.286-2.713 104.89 104.89 0 0 0 43.296 14.798zm-55.051-23.136c7.825 1.154 16.282 2.735 26.374 4.935 16.991 3.705 29.241 9.479 38.555 18.175.226.211.443.439.667.656.364.004.727.014 1.092.014 6.333 0 12.538-.562 18.567-1.635-1.992-3.063-4.898-5.609-8.695-7.583h-.001c-16.974-8.829-36.365-13.955-59.28-15.674-6.907-.519-13.885-1.164-20.703-1.809 1.12.997 2.261 1.972 3.424 2.921zm-10.543-9.874c1.214.111 2.439.224 3.664.34l1.097.103c7.695.73 15.652 1.486 23.53 2.076 23.778 1.784 43.96 7.136 61.7 16.362 5.624 2.924 9.726 6.885 12.268 11.769 18.874-4.604 35.777-14.29 49.17-27.525 7.678-9.584 12.886-20.914 15.807-34.347.91-4.183.206-7.935-1.98-10.567-2.368-2.851-6.387-4.324-11.32-4.201-7.24.213-14.4.936-21.281 2.145-7.305 1.284-12.847 3.496-16.942 6.764-4.471 3.567-7.156 8.38-8.207 14.713-.604 3.63-1.599 7.547-3.044 11.975-3.073 9.42-13.63 15.43-24.03 13.689-1.29-.217-2.578-.439-3.868-.662-6.219-1.075-12.541-2.167-18.718-2.521-10.535-.604-21.279-.997-31.669-1.377l-.066-1.715-.062 1.711c-7.849-.287-15.965-.582-24.005-.971-1.412-.068-2.838-.14-4.263-.213.727.83 1.467 1.646 2.219 2.452zm-7.529-9.017c3.317.202 6.623.368 9.836.524 8.027.387 16.128.683 23.961.968l.214.008c10.39.38 21.135.773 31.723 1.382 6.531.372 13.035 1.497 19.324 2.583 1.32.229 2.63.455 3.939.674 7.42 1.246 14.908-2.91 17.043-9.455 1.347-4.128 2.269-7.746 2.82-11.062 2.452-14.764 12.343-23.469 30.24-26.615 7.169-1.262 14.633-2.014 22.183-2.237 6.902-.213 12.687 2.087 16.317 6.459 3.444 4.146 4.61 9.79 3.282 15.894-.254 1.168-.54 2.313-.828 3.457a104.745 104.745 0 0 0 8.625-26.595c-1.188-2.571-3.091-4.949-5.541-6.85-4.257-3.302-9.411-4.695-14.144-3.819l-3.605.672c-4.791.895-9.744 1.82-14.687 2.621-26.105 4.236-42.55 14.366-51.756 31.879-3.927 7.47-10.605 12.217-19.848 14.111-4.793.982-9.704 1.457-14.453 1.918l-.388.039c-1.206.117-2.445.237-3.659.365-3.153.332-6.343.74-9.428 1.135-7.767.99-15.804 2.039-23.837 1.953-9.357-.079-18.908-.611-28.461-1.554.372.518.747 1.033 1.128 1.545zm50.736-5.341-.142-1.116.089 1.123a.961.961 0 0 1 .053-.007zm-56.343-2.981c11.068 1.273 22.155 1.979 32.991 2.07 7.643.085 15.401-.932 22.912-1.892l.201-.025c3.09-.395 6.285-.803 9.445-1.136 1.313-.138 2.669-.27 3.882-.388l.176-.017c4.598-.444 9.352-.904 13.843-1.824 7.417-1.518 12.508-5.082 15.562-10.892 10.198-19.4 28.087-30.566 56.295-35.143 4.866-.79 9.784-1.708 14.54-2.596l3.613-.674c6.485-1.204 13.456.632 19.122 5.028 1.074.833 2.037 1.75 2.945 2.705.3-3.242.462-6.525.462-9.845 0-2.702-.103-5.381-.303-8.032-2.658-.422-5.574-.396-8.734.138-15.775 2.657-32.442 6.667-49.54 11.917-15.295 4.696-27.495 12.236-36.259 22.41-10.459 12.141-22.138 19.653-35.705 22.966-16.727 4.085-31.741 6.072-45.899 6.073-6.79 0-13.332-.466-19.867-1.38.107.179.21.36.318.537zm-4.113-7.45c20.765 2.738 42.397 2.412 68.076-3.86 12.256-2.994 22.869-9.854 32.448-20.971 9.545-11.082 22.722-19.26 39.164-24.309 17.357-5.33 34.293-9.403 50.336-12.107 3.193-.537 6.228-.642 9.088-.363a105.138 105.138 0 0 0-1.862-9.976c-4.12.896-8.246 2.326-12.259 3.724a237.918 237.918 0 0 1-5.884 1.994c-2.906.929-5.847 1.98-8.689 2.997-5.275 1.886-10.682 3.82-16.262 5.158-25.189 6.036-44.511 16.188-59.072 31.034-10.117 10.314-23.019 17.786-39.442 22.841-14.47 4.451-29.32 4.69-43.286 4.548a78.697 78.697 0 0 1-12.578-1.157l.222.447zm-3.385-7.466a72.271 72.271 0 0 0 15.804 1.916c.904.009 1.814.017 2.725.023a105.964 105.964 0 0 1-16.209-1.926c-.851-.167-1.7-.374-2.549-.572.075.187.153.373.229.559zM7.269 89.281a105.126 105.126 0 0 0-1.783 12.965c1.129 2.913 3.248 5.722 6.077 7.947 3.706 2.914 8.212 4.541 12.369 4.442 12.082-.307 16.462-3.679 19.395-7.278 4.02-4.933 2.54-11.326-.999-15.093-6.469-6.884-14.677-9.79-25.096-8.887a3.912 3.912 0 0 1-.346.013c-4.32 1.491-7.541 3.472-9.617 5.891zm2.41-9.581a37.026 37.026 0 0 1 5.711-2.411c.41-.138.844-.187 1.276-.145l.043-.005c12.435-1.073 22.312 2.465 30.18 10.838 5.405 5.751 7.583 15.614 1.29 23.334-6.561 8.051-15.45 9.363-24.079 9.582l-.538.006c-5.397 0-11.183-2.119-15.873-5.812a28.723 28.723 0 0 1-2.467-2.213c.033 1.296.097 2.583.176 3.867 5.758 4.809 12.788 7.339 20.465 7.34l.458-.003c14.84-.195 25.611-5.532 32.01-15.865 2.497-4.032 3.177-7.746 2.078-11.357-1.147-3.766-4.312-7.605-9.408-11.41-10.178-7.598-22.417-9.75-33.066-10.841-2.532.604-4.951 1.203-7.268 1.983-.346 1.03-.673 2.068-.988 3.112zm4.228-11.516c-.157.361-.317.721-.47 1.085a200.53 200.53 0 0 1 3.387-.834c.33-.081.68-.106 1.024-.072.199-.019.398-.019.596.003 20.552 2.092 29.884 7.272 36.301 12.063 6.183 4.616 10.099 9.568 11.638 14.719 1.599 5.349.68 10.854-2.73 16.362-7.598 12.267-20.13 18.601-37.249 18.828l-.542.003c-7.084 0-13.771-1.859-19.634-5.375.052.372.1.744.156 1.114 5.381 2.849 11.61 4.477 18.991 4.93 10.019.619 19.06-.846 26.877-4.339h-.001c7.728-3.454 14.549-9.029 20.274-16.569 2.484-3.269 3.93-7.627 5.327-11.84l.118-.357c1.558-4.692-.244-9.591-4.484-12.192-14.633-8.979-30.418-14.561-46.917-16.594-2.739-.337-5.562-.562-8.293-.78-1.276-.102-2.538-.202-3.805-.314l-.564.159zm46.251-50.661c-3.687 7.339-8.789 13.413-15.229 18.05-4.562 3.283-9.91 5.919-15.915 7.865a105.914 105.914 0 0 0-4.049 5.282 720.93 720.93 0 0 1 5.231-.035c3.135-.011 6.377-.022 9.608-.106l.93-.022c1.884-.039 3.826-.079 5.456-.474 13.624-3.295 24.777-11.042 32.971-17.425 11.534-8.983 14.166-15.796 15.17-20.727a50.312 50.312 0 0 1 1.083-4.244 104.815 104.815 0 0 0-35.256 11.836zM110.81 4.561c-2.883 0-5.738.121-8.564.349a44.84 44.84 0 0 0-1.781 6.27c-1.22 5.987-4.306 14.175-17.458 24.417C66.466 48.48 55.429 52.289 47.661 54.168c-2.29.554-4.577.602-6.789.649l-.905.018c-3.344.087-6.742.1-9.74.11-2.6.01-5.26.02-7.94.071.374.051.744.11 1.107.175 7.737 1.375 15.957 2.624 25.131 3.821 9.591 1.252 19.661 1.53 28.331-4.837 3.346-2.458 6.823-4.812 10.187-7.091 5.435-3.681 11.008-7.456 15.958-11.601 11.396-9.547 18.651-19.114 22.634-29.877a106.163 106.163 0 0 0-14.825-1.045zm58.59 17.785c-2.59 4.243-5.77 8.449-9.675 12.782-2.354 2.614-4.871 5.092-7.306 7.489-2.252 2.22-4.583 4.515-6.723 6.863-1.841 2.019-2.662 4.368-2.092 5.984.434 1.229 1.646 1.66 2.586 1.805 2.326.357 6.73.775 10.096-.455 4.495-1.643 9.287-4.182 14.649-7.762 6.006-4.014 11.835-7.356 17.722-10.176a106.419 106.419 0 0 0-19.257-16.53zm23.497 21.452c-6.129 2.831-12.201 6.261-18.486 10.458-5.78 3.863-11.007 6.622-15.978 8.437-4.685 1.712-10.278 1.213-13.196.764-3.662-.565-6.409-2.72-7.536-5.91-1.348-3.819-.058-8.527 3.369-12.284 2.256-2.477 4.646-4.829 6.957-7.105 2.389-2.354 4.833-4.761 7.048-7.22 3.656-4.058 6.621-7.98 9.019-11.918a105.383 105.383 0 0 0-11.842-5.984c-3.245 6.268-6.965 11.587-11.333 16.171-6.762 7.096-12.882 13.72-18.709 20.25-1.648 1.846-3.209 4.109-4.913 7.12-1.259 2.225-2.558 5.357-1.601 7.654.902 2.163 3.768 3.916 8.516 5.21 16.413 4.474 32.958 1.815 49.178-7.898 2.09-1.25 4.193-2.541 6.226-3.789 5.344-3.278 10.844-6.632 16.615-9.616a106.416 106.416 0 0 0-3.334-4.34zm6.904 9.548c-5.857 2.981-11.469 6.405-16.91 9.744l-.209.128a690.296 690.296 0 0 1-6.076 3.697c-12.079 7.232-24.481 10.901-36.862 10.902-5.707 0-11.486-.786-17.177-2.336-6.805-1.854-10.942-4.746-12.648-8.842-1.551-3.718-.901-8.142 1.93-13.144 1.932-3.414 3.74-6.02 5.691-8.206 5.867-6.576 12.033-13.25 18.848-20.401 3.814-4.002 7.099-8.661 10-14.155a104.651 104.651 0 0 0-14.49-4.055c-4.276 12.268-12.235 23.014-24.878 33.602-5.203 4.36-10.907 8.221-16.422 11.957-3.328 2.253-6.769 4.583-10.037 6.984-10.448 7.673-21.961 7.42-32.846 5.997-9.265-1.206-17.578-2.471-25.416-3.864-1.525-.271-3.173-.4-4.914-.396-.174.329-.351.655-.521.986l1.519.124.309.025c2.864.228 5.761.459 8.642.814 17.393 2.142 34.023 8.021 49.425 17.472 6.77 4.153 9.645 11.989 7.153 19.498l-.119.356c-1.557 4.696-3.169 9.556-6.282 13.656-6.369 8.386-14.008 14.609-22.705 18.496-8.733 3.904-18.863 5.549-29.814 4.872-6.324-.387-12.073-1.606-17.173-3.61.075.33.154.659.232.988.541.222 1.078.457 1.621.657 7.972 2.943 17.051 3.993 26.983 3.125 20.709-1.814 38.205-10.98 52.002-27.245l.892-1.052c7.776-9.183 15.818-18.678 28.768-22.855 7.326-2.363 15.283-4.322 25.044-6.164 17.666-3.339 33.902-9.678 48.258-18.84 3.199-2.041 6.628-3.914 10.21-5.606a107.203 107.203 0 0 0-2.028-3.309zm-4.814 14.192c-15.03 9.592-32.011 16.225-50.464 19.712-9.499 1.796-17.216 3.693-24.285 5.972-11.247 3.627-18.701 12.428-25.909 20.94l-.898 1.059c-14.903 17.568-33.821 27.471-56.23 29.432-9.814.857-18.909-.038-27.103-2.625l.05.155a68.35 68.35 0 0 0 6.324 1.583c13.46 2.646 26.474 2.521 38.683-.376 12.422-2.947 24.012-8.765 34.449-17.294 4-3.269 7.971-6.733 11.812-10.082 3.453-3.012 6.971-6.082 10.556-9.057 9.891-8.205 22.046-13.966 38.25-18.132 15.079-3.875 29.901-9.357 45.312-16.761 3.496-1.679 7.38-3.272 11.757-4.843a104.483 104.483 0 0 0-2.428-5.074c-3.477 1.623-6.795 3.424-9.876 5.391zM18.911 94.91c.245-.318.502-.643.671-.92a3.158 3.158 0 0 1 2.959-1.482l.067-.005c2.791-.216 4.879.437 6.193 1.943.656.751 1.672 2.414 1.09 5.107-.551 2.552-3.449 5.057-5.852 5.057-2.434-.054-6.106-1.588-6.906-4.328-.651-2.228.746-4.037 1.767-5.359l.011-.013zm2.236 1.745v-.001l.004-.004.002-.003-.896-.68.89.688zm145.895 54.163c.41-.136.846-.187 1.278-.144.139-.014.279-.015.419-.012 4.545.25 8.024 1.251 10.666 3.062 2.799 1.918 4.553 4.702 5.216 8.274.727 3.916-.892 8.951-4.33 13.468-3.843 5.048-9.118 8.432-13.765 8.832-.559.048-1.105.073-1.623.073-7.593 0-9.751-5.141-10.46-6.829-2.66-6.333-2.969-11.83-.919-16.337 2.1-4.619 6.648-8.113 13.518-10.387zm-6.828 24.299c.945 2.251 2.051 3.259 5.775 2.946 2.898-.25 6.557-2.758 9.321-6.389 2.351-3.088 3.561-6.358 3.157-8.535-.524-2.823-2.116-5.767-9.931-6.218-4.874 1.69-8.008 4.002-9.314 6.876-1.298 2.852-.964 6.662.992 11.32z"/>
</svg>
