<svg xmlns="http://www.w3.org/2000/svg" width="211" height="221">
    <path fill-rule="evenodd" fill="#FFF" d="M210.267 100.826a4.767 4.767 0 0 1-1.122 2.488 4.726 4.726 0 0 1-2.301 1.455 4.704 4.704 0 0 1-2.718-.058l-89.703-29.376a4.72 4.72 0 0 1-2.126-1.424 4.755 4.755 0 0 1-1.077-2.33l-9.168-57.062a4.758 4.758 0 0 1 1.1-3.871 4.722 4.722 0 0 1 3.665-1.629l57.516 1.229a4.719 4.719 0 0 1 4.148 2.679l41.358 85.201a4.77 4.77 0 0 1 .428 2.698zM108.459 208.151a4.737 4.737 0 0 1-2.631 3.038 4.71 4.71 0 0 1-2.013.406l-57.516-1.228a4.72 4.72 0 0 1-2.449-.754 4.746 4.746 0 0 1-1.699-1.925L.793 122.498a4.761 4.761 0 0 1 .68-5.198 4.708 4.708 0 0 1 5.029-1.396l89.707 29.371a4.726 4.726 0 0 1 2.125 1.427c.565.663.936 1.47 1.074 2.331l9.172 57.059c.11.687.069 1.39-.121 2.059zM68.978 96.659a4.748 4.748 0 0 1-1.419 2.134 4.71 4.71 0 0 1-2.318 1.08l-56.796 9.212a4.714 4.714 0 0 1-3.854-1.106 4.75 4.75 0 0 1-1.623-3.682l1.226-57.786a4.756 4.756 0 0 1 .749-2.461 4.727 4.727 0 0 1 1.917-1.706L91.649.796a4.706 4.706 0 0 1 5.173.683 4.751 4.751 0 0 1 1.39 5.053L68.978 96.659zm72.676 27.297a4.75 4.75 0 0 1 1.419-2.135 4.71 4.71 0 0 1 2.318-1.08l56.796-9.196a4.703 4.703 0 0 1 3.854 1.106 4.754 4.754 0 0 1 1.623 3.682l-1.226 57.785a4.736 4.736 0 0 1-2.666 4.164l-84.804 41.551a4.703 4.703 0 0 1-5.17-.697 4.76 4.76 0 0 1-1.378-5.053l29.234-90.127z"/>
</svg>
