<svg xmlns="http://www.w3.org/2000/svg" width="221" height="221">
    <path fill-rule="evenodd" fill="#FFF" d="M35.009 190.596c43.958 41.831 113.755 40.102 155.586-3.856 41.832-43.957 40.102-113.754-3.855-155.586C142.783-10.677 72.986-8.948 31.154 35.01c-41.831 43.957-40.102 113.754 3.855 155.586zM180.182 53.818c-.14.238-.282.475-.432.721-14.873 12.838-38.531 23.416-79.068 5.612-22.314-9.809-42.341-10.136-58.77-6.686 1.268-1.522 2.5-3.065 3.885-4.521 34.15-35.885 91.124-37.296 127.009-3.147 2.671 2.542 5.088 5.244 7.376 8.021zm-62.233 76.74c-21.415-10.297-41.118-11.778-58.562-4.392-1.026.434-1.945.998-2.929 1.484 9.773-9.165 24.007-13.724 42.481-13.446 48.964.741 78.388-22.79 92.972-41.89 7.888 16.627 10.48 35.195 7.567 53.106l-.057-.054c-8.063 8.473-38.407 25.913-81.472 5.192zm-74.662 39.437c3.957-9.176 12.027-20.159 23.979-25.214 11.865-5.023 25.969-3.68 41.927 3.998 32.721 15.744 60.407 13.546 79.824 6.216-3.561 6.311-7.847 12.328-13.064 17.811-34.15 35.885-91.124 37.296-127.009 3.147-2.006-1.91-3.867-3.913-5.657-5.958zm-17.554-30.612c-6.402-19.228-6.158-40.223.816-59.366l.04.079c14.7-7.422 38.075-13.695 65.965-1.439 14.354 6.306 27.869 9.661 40.664 10.597-9.724 3.051-20.95 4.937-33.97 4.739-26.158-.396-46.439 7.186-60.283 22.528-6.225 6.899-10.447 14.812-13.232 22.862z"/>
</svg>
