<svg width="28" height="24" viewBox="0 0 28 24" fill="none" xmlns="http://www.w3.org/2000/svg">
<g clip-path="url(#clip0_9128_81022)">
<path fill-rule="evenodd" clip-rule="evenodd" d="M13.2124 1.60083C14.1738 2.57311 14.4942 4.0319 13.5329 5.16674L10.9716 8.57008L24.9058 8.57008C26.3451 8.57008 27.308 9.70492 27.308 11.0023L27.308 12.6233C27.308 14.0821 26.1864 15.054 24.9058 15.054L10.9716 15.054L13.5329 18.4589C14.334 19.5937 14.1738 21.2151 13.0522 22.0244L11.7727 22.9982C10.6496 23.8083 9.20874 23.645 8.24855 22.5105L1.5218 13.7577C0.56044 12.6233 0.56044 11.0023 1.5218 9.70491L8.40878 1.11353C9.20874 -0.0209175 10.8114 -0.182702 11.933 0.627784L13.2124 1.60083Z" fill="white"/>
</g>
<defs>
<clipPath id="clip0_9128_81022">
<rect width="26.8992" height="23.7805" fill="white" transform="translate(0.53125 0.109375)"/>
</clipPath>
</defs>
</svg>
