<svg xmlns="http://www.w3.org/2000/svg" width="43" height="47">
    <path fill-rule="evenodd" fill="#A2A2A2" d="M42.545 11.832 32.422 1.437a1.511 1.511 0 0 0-1.081-.455h-.409c-.041-.003-.075-.023-.116-.023-.041 0-.076.02-.117.023H18.011c-4.25 0-7.868 2.94-8.856 6.889-4.884.045-8.933 3.956-9.048 8.817v21.076c-.11 4.969 3.902 9.103 8.945 9.214h.217l16.029-.002c4.21-.168 7.602-3.046 8.579-6.88h.194c5.021-.2 8.926-4.237 8.892-9.18V12.855a1.47 1.47 0 0 0-.418-1.023zM32.314 5.593l6.01 6.171h-2.372c-2.005-.006-3.638-1.619-3.638-3.596V5.593zm-1.122 31.549v.664a6.194 6.194 0 0 1-5.954 6.217H9.118c-3.391-.073-6.088-2.853-6.013-6.227V16.722c.074-3.138 2.63-5.679 5.774-5.868.123-.007.241-.036.366-.036h11.299v4.23c0 3.603 2.973 6.542 6.631 6.552h4.017v15.542zm-7.649-22.094v-2.574l6.008 6.17h-2.372c-2.005-.006-3.636-1.619-3.636-3.596zm16.421 15.878c.023 3.29-2.525 5.966-5.774 6.192V19.735c0-.382-.15-.748-.418-1.023L23.649 8.317a1.511 1.511 0 0 0-1.081-.455h-.409c-.041-.003-.075-.022-.116-.022-.041 0-.076.019-.116.022h-9.631c.883-2.282 3.117-3.925 5.722-3.925h11.299v4.231c0 3.603 2.973 6.542 6.63 6.552h4.017v16.206z"/>
</svg>
