<svg width="136" height="40" viewBox="0 0 136 40" fill="none" xmlns="http://www.w3.org/2000/svg">
<g clip-path="url(#clip0_11643_395)">
<path d="M59.8904 2.79824C57.5743 1.58164 54.9699 0.966797 52.0903 0.966797C49.2107 0.966797 46.413 1.61761 44.0444 2.9029C41.6693 4.19799 39.7987 5.98365 38.4326 8.25987C37.0665 10.5361 36.3818 13.1524 36.3818 16.1056C36.3818 19.0589 37.0731 21.6131 38.4621 23.8926C39.8446 26.1688 41.8102 27.9675 44.3491 29.279C46.888 30.5904 49.8331 31.2445 53.191 31.2445C55.8544 31.2445 58.2098 30.8357 60.2508 30.0148C61.8691 29.364 63.2647 28.4941 64.4506 27.405C64.9682 26.9242 64.9944 26.1165 64.5194 25.603L61.6333 22.483C61.1812 21.9924 60.431 21.9401 59.9035 22.3489C59.1632 22.9212 58.3736 23.3726 57.535 23.7061C56.3491 24.1804 54.9732 24.4158 53.4007 24.4158C51.648 24.4158 50.1214 24.0986 48.8274 23.4609C47.5334 22.8231 46.5276 21.891 45.82 20.6744C45.4334 20.0138 45.1582 19.2943 44.9813 18.516H66.0919C66.7537 18.516 67.3073 18.0123 67.363 17.3517V17.3386C67.399 16.9233 67.422 16.5472 67.422 16.2201C67.422 13.0543 66.7471 10.3268 65.3974 8.04729C64.0477 5.77107 62.2131 4.02138 59.897 2.80151H59.8839L59.8904 2.79824ZM48.2868 8.37107C49.4007 7.73333 50.6849 7.4161 52.146 7.4161C53.6071 7.4161 54.8847 7.7366 55.9822 8.37107C57.0796 9.0088 57.9347 9.89182 58.5571 11.0234C58.9666 11.7723 59.2418 12.6095 59.3794 13.5351H44.8798C45.0207 12.6226 45.2893 11.7919 45.689 11.0463C46.3114 9.89836 47.1795 9.0088 48.2868 8.37107Z" fill="white"/>
<path d="M94.4393 2.79824C92.1231 1.58164 89.5187 0.966797 86.6391 0.966797C83.7595 0.966797 80.9618 1.61761 78.5932 2.9029C76.2181 4.19799 74.3475 5.98365 72.9814 8.25987C71.6154 10.5361 70.9307 13.1524 70.9307 16.1056C70.9307 19.0589 71.6219 21.6131 73.0109 23.8926C74.3934 26.1688 76.359 27.9675 78.8979 29.279C81.4368 30.5904 84.3819 31.2445 87.7398 31.2445C90.4032 31.2445 92.7587 30.8357 94.7996 30.0148C96.418 29.364 97.8135 28.4941 98.9995 27.405C99.5171 26.9242 99.5433 26.1165 99.0683 25.603L96.1821 22.483C95.73 21.9924 94.9798 21.9401 94.4524 22.3489C93.712 22.9212 92.9225 23.3726 92.0838 23.7061C90.8979 24.1804 89.522 24.4158 87.9495 24.4158C86.1968 24.4158 84.6702 24.0986 83.3762 23.4609C82.0789 22.8231 81.0764 21.891 80.3688 20.6744C79.9823 20.0138 79.7071 19.2943 79.5302 18.516H100.641C101.302 18.516 101.856 18.0123 101.912 17.3517V17.3386C101.948 16.9233 101.971 16.5472 101.971 16.2201C101.971 13.0543 101.296 10.3268 99.9462 8.04729C98.5965 5.77107 96.762 4.02138 94.4458 2.80151H94.4327L94.4393 2.79824ZM82.8357 8.37107C83.9495 7.73333 85.2337 7.4161 86.6948 7.4161C88.1559 7.4161 89.4335 7.7366 90.531 8.37107C91.6285 9.0088 92.4835 9.89182 93.1059 11.0234C93.5154 11.7723 93.7906 12.6095 93.9282 13.5351H79.4253C79.5662 12.6226 79.8348 11.7919 80.2345 11.0463C80.857 9.89836 81.7251 9.0088 82.8324 8.37107H82.8389H82.8357Z" fill="white"/>
<path d="M124.425 0.777344C113.964 0.777344 105.479 9.24124 105.479 19.6903V29.2661C105.479 29.9693 106.053 30.5416 106.757 30.5416H113.001C113.706 30.5416 114.279 29.9693 114.279 29.2661V19.6903C114.279 14.1011 118.823 9.56174 124.425 9.56174H126.282C126.986 9.56174 127.56 8.98941 127.56 8.28627V2.05281C127.56 1.34967 126.986 0.777344 126.282 0.777344H124.425Z" fill="white"/>
<path d="M25.4545 2.63404C22.9746 1.52863 20.0197 0.972656 16.5897 0.972656H1.27764C0.573301 0.972656 0 1.54171 0 2.24813V37.9515C0 38.6546 0.573301 39.227 1.27764 39.227H7.58722C8.29156 39.227 8.86487 38.6546 8.86487 37.9515V29.9553C8.86487 29.2521 9.43817 28.6798 10.1425 28.6798H16.5799C20.0098 28.6798 22.9648 28.1238 25.4447 27.0119C27.9247 25.8999 29.8411 24.3072 31.1908 22.2305C32.5405 20.1538 33.2154 17.6944 33.2154 14.8557C33.2154 12.0169 32.5405 9.49869 31.1908 7.42196C29.8411 5.34523 27.9247 3.75253 25.4447 2.64058H25.4513L25.4545 2.63404ZM22.2244 19.709C20.8747 20.8733 18.8305 21.4587 16.0917 21.4587H8.86814V8.18397H16.0917C18.8305 8.18397 20.8714 8.76938 22.2244 9.93365C23.5741 11.0979 24.249 12.7364 24.249 14.8524C24.249 16.9684 23.5741 18.5513 22.2244 19.7155V19.709Z" fill="white"/>
<path d="M135.536 25.255L132.634 23.8455C131.975 23.5021 131.435 22.9625 131.094 22.3018L129.682 19.3977C129.377 18.7763 128.493 18.7763 128.188 19.3977L126.815 22.2201C126.465 22.9461 125.882 23.5315 125.155 23.8814L122.334 25.2518C122.023 25.4055 121.865 25.7031 121.869 26.004C121.869 26.3016 122.023 26.6025 122.334 26.7562L125.236 28.1657C125.895 28.5091 126.435 29.0487 126.776 29.7094L128.188 32.6135C128.493 33.2349 129.377 33.2349 129.682 32.6135L131.055 29.7911C131.405 29.0651 131.988 28.4797 132.716 28.1297L135.536 26.7594C135.847 26.6057 136.005 26.3081 136.001 26.0072C136.001 25.7096 135.847 25.4087 135.536 25.255Z" fill="white"/>
</g>
<defs>
<clipPath id="clip0_11643_395">
<rect width="136" height="38.4473" fill="white" transform="translate(0 0.777344)"/>
</clipPath>
</defs>
</svg>
