<svg xmlns="http://www.w3.org/2000/svg" width="170" height="127">
    <path fill-rule="evenodd" fill="#FFF" d="M164.731 126.1H17.472c-9.649 0-17.471-7.002-17.471-16.749s7.822-17.649 17.471-17.649c6.585 0 12.319 3.679 15.296 9.113v.001c.317.579.428.972.428.972h6.761c1.342 0 2.474-1.136 2.474-2.535V18.584a25.62 25.62 0 0 0-.445-4.766c.198-.182.348-.276.445-.276h122.3c2.757 0 4.993 2.257 4.993 5.042v103.373c0 2.785-2.236 4.143-4.993 4.143zm-45.707-87.107c-16.755-7.571-36.484.04-43.979 16.964-7.495 16.925.039 36.855 16.794 44.426 16.755 7.571 36.484-.04 43.979-16.964 7.494-16.925-.039-36.855-16.794-44.426zm7.178 23.947c-5.636-2.731-12.182-2.52-19.456.627-3.621 1.567-6.979 2.336-10.05 2.602 3.472-1.749 6.869-4.266 10.161-7.714 6.396-6.7 13.658-7.64 18.624-7.247l.002-.027c4.15 4.601 6.63 10.507 7.047 16.685-1.704-1.952-3.794-3.699-6.328-4.926zm-23.745-8.773c-9.298 9.737-17.133 9.492-22.769 7.589a9.85 9.85 0 0 1-.204-.153 27.668 27.668 0 0 1 1.142-3.124c6.119-13.816 22.223-20.028 35.901-13.848.555.251 1.077.544 1.607.827-4.994.931-10.56 3.348-15.677 8.709zm6.697 15.077c5.137-2.222 9.644-2.585 13.431-1.129-.331-.023-.653-.076-.99-.08-5.729-.063-11.073 2.642-15.882 8.037-9.67 10.855-20.164 9.446-23.394 7.987l-.009.022a27.793 27.793 0 0 1-3.984-15.889c6.275 3.706 17.212 6.943 30.828 1.052zm1.102 10.963c3.583-4.022 7.376-6.038 11.273-5.995 3.925.042 7.445 2.21 9.606 4.344a27.4 27.4 0 0 1-.899 2.341c-6.118 13.816-22.223 20.029-35.9 13.848-2.09-.944-3.981-2.148-5.702-3.518 6.275-.182 14.275-2.773 21.622-11.02zm-92.785 3.931c-6.802 0-12.97 2.748-17.471 7.207v-72.76C0 8.838 7.822.936 17.471.936c9.649 0 17.472 7.902 17.472 17.649v72.76c-4.502-4.459-10.669-7.207-17.472-7.207z"/>
</svg>
