<svg xmlns="http://www.w3.org/2000/svg" width="132" height="201">
    <path fill-rule="evenodd" fill="#FFF" d="M121.269 198.399h-11.327a5.257 5.257 0 0 1-.468.539c-1.287 1.265-3.042 1.162-4.961 1.162H28.408c-1.919 0-3.674.103-4.961-1.162a5.225 5.225 0 0 1-.468-.539H8.213c-4.891-.726-7.84-5.084-8.214-14.175 0-17.246 6.67-32.944 17.528-44.659l-.235-2.6c0-1.945.726-3.725 1.825-5.038 1.17-1.382 2.808-2.297 4.54-2.46l.586-.024c1.685 0 3.439-.024 5.242-.024a64.56 64.56 0 0 1 22.138-9.348 43.076 43.076 0 0 1-7.372-3.211 39.25 39.25 0 0 0-7.628-.14c-3.791.281-7.794 1.124-12.053 2.578a2.293 2.293 0 0 1-3.018-2.11c-2.878-12.817-2.926-26.173.304-40.115-.561-10.262.024-18.886 4.166-22.049 4.189-29.008 29.418-41.377 54.739-44.003a12.084 12.084 0 0 1 3.51-7.265A12.18 12.18 0 0 1 92.953.148c3.369 0 6.46 1.359 8.682 3.584 2.224 2.249 3.604 5.319 3.604 8.717a12.25 12.25 0 0 1-3.604 8.67 12.18 12.18 0 0 1-8.682 3.608c-3.369 0-6.46-1.359-8.682-3.585a17.974 17.974 0 0 1-1.239-1.453c-.375 1.359-.117 2.929.631 4.546 7.769 8.575 19.074 13.497 19.518 33.365 3.954 2.32 5.312 15.7 3.066 18.441 2.925 12.16 4.821 28.281 5.523 40.956.07 1.265-.889 2.344-2.13 2.414a3.46 3.46 0 0 1-.702-.07c-3.51-.89-6.833-1.406-9.969-1.571-3.58 1.968-7.98 3.187-13.316 3.398l-.281.445-.004.001c5.522 1.735 10.741 4.219 15.54 7.287 2.878.141 5.617.328 8.238.562 1.755.165 3.393 1.079 4.54 2.46a7.827 7.827 0 0 1 1.849 5.038l-.375 4.289a65.437 65.437 0 0 1 16.008 42.974c.421 8.388-2.996 13.005-9.899 14.175zM87.497 17.883a7.632 7.632 0 0 0 5.453 2.272c2.13 0 4.071-.867 5.453-2.249a7.668 7.668 0 0 0 2.246-5.459c0-2.156-.842-4.076-2.246-5.483a7.708 7.708 0 0 0-5.453-2.249c-2.13 0-4.071.867-5.453 2.249-1.404 1.405-2.246 3.327-2.246 5.483 0 2.132.842 4.054 2.246 5.436zm-60.4 177.372c.351.351.796.538 1.31.538h76.104a1.78 1.78 0 0 0 1.288-.516c.327-.351.537-.797.537-1.311 0-.492-.21-.961-.537-1.289a1.843 1.843 0 0 0-1.288-.539H28.407c-.515 0-.959.211-1.288.539a1.75 1.75 0 0 0-.537 1.289c0 .515.186.96.515 1.289zm37.982-79.69v-.398c0-3.092 1.239-5.881 3.276-7.897a11.12 11.12 0 0 1 7.888-3.28c1.732 0 3.392.397 4.866 1.124l-.001.002.002-.002h-.001a16.54 16.54 0 0 0 1.076-5.904H49.492c0 8.787 6.927 15.957 15.587 16.355zM97.35 58.16l-.003.001c-21.694-4.57-46.804-3.586-67.444.773-2.014 2.811-2.365 8.903-1.849 15.441 21.319-3.749 51.72-4.054 72.736-.235 2.059-5.834-.608-13.731-3.44-15.98zm1.568 52.767c3.229-3.492 4.4-8.646 4.4-15.77 0-1.078-.866-1.968-1.943-1.968s-1.943.89-1.943 1.968c0 6.138-.912 10.451-3.347 13.121-2.457 2.625-6.67 3.843-13.362 3.843-.211 0-.421.024-.608.095a6.343 6.343 0 0 0-1.217-1.711 6.581 6.581 0 0 0-4.657-1.922 6.537 6.537 0 0 0-4.657 1.922 6.574 6.574 0 0 0-1.943 4.662c0 1.828.748 3.468 1.943 4.663a6.536 6.536 0 0 0 4.657 1.921 6.578 6.578 0 0 0 4.657-1.921 6.594 6.594 0 0 0 1.873-3.819c7.816 0 12.918-1.617 16.147-5.084zm10.813 24.342c-.281-.352-.656-.586-.983-.633l-.164-.024-.002.002-84.504.024c-.351.046-.702.281-1.007.632a2.605 2.605 0 0 0-.607 1.687l4.095 42.901c.094 1.03.421 1.946.888 2.53.281.328.562.539.867.539h76.291c.305 0 .608-.187.867-.516.467-.609.796-1.524.888-2.554l3.979-42.902c0-.656-.235-1.241-.608-1.686zM60.93 172.877c-6.888-3.085-9.985-11.206-6.904-18.102 3.081-6.897 11.192-9.998 18.08-6.913 6.888 3.085 9.986 11.206 6.904 18.103-3.081 6.896-11.192 9.997-18.08 6.912zm1.027-2.297c5.623 2.518 12.244-.013 14.759-5.643.141-.315.26-.633.369-.953-.888-.87-2.335-1.754-3.949-1.771-1.602-.017-3.161.804-4.634 2.443-3.021 3.361-6.31 4.416-8.889 4.49a11.067 11.067 0 0 0 2.344 1.434zm-6.582-10.82a11.252 11.252 0 0 0 1.638 6.475l.003-.009c1.328.594 5.643 1.168 9.618-3.255 1.977-2.198 4.174-3.3 6.529-3.274.139.001.271.023.407.032-1.557-.594-3.409-.446-5.521.46-5.598 2.401-10.094 1.082-12.674-.429zm15.705-9.6c-5.623-2.519-12.244.013-14.759 5.643-.188.419-.338.844-.47 1.272l.084.063c2.317.775 5.538.875 9.36-3.092 2.104-2.185 4.393-3.17 6.445-3.549-.217-.116-.432-.235-.66-.337zm3.682 2.669-.001.01c-2.042-.159-5.027.223-7.657 2.954-1.353 1.405-2.749 2.43-4.177 3.143 1.263-.108 2.643-.422 4.132-1.06 2.99-1.283 5.681-1.368 7.998-.256 1.042.5 1.901 1.212 2.602 2.008a11.258 11.258 0 0 0-2.897-6.799z"/>
</svg>
