<svg xmlns="http://www.w3.org/2000/svg" width="61" height="61">
    <path fill-rule="evenodd" d="m59.941 55.535-8.236-8.176c4.313-5.022 6.934-11.522 6.934-18.63 0-15.842-12.948-28.731-28.862-28.731C13.861-.002.913 12.887.913 28.729c0 15.84 12.948 28.729 28.864 28.729 6.462 0 12.415-2.152 17.231-5.737l8.4 8.342a3.205 3.205 0 0 0 2.267.932 3.2 3.2 0 0 0 2.274-.94 3.19 3.19 0 0 0-.008-4.52zM29.777 6.39c12.374 0 22.441 10.021 22.441 22.339 0 12.317-10.067 22.337-22.441 22.337-12.375 0-22.443-10.02-22.443-22.337 0-12.318 10.068-22.339 22.443-22.339z"/>
</svg>
