<svg xmlns="http://www.w3.org/2000/svg" width="61" height="61">
    <path fill-rule="evenodd" d="M30.075.04a1.543 1.543 0 0 0-.178.045 1.427 1.427 0 0 0-1.112 1.427v8.56c-.006.513.261.992.706 1.254.445.257.99.257 1.434 0 .445-.262.712-.741.706-1.254v-8.56a1.42 1.42 0 0 0-.444-1.087A1.42 1.42 0 0 0 30.075.04zM9.794 8.423a1.414 1.414 0 0 0-1.112 1.003c-.15.524.006 1.081.4 1.449l6.049 6.064c.345.424.895.619 1.429.496a1.433 1.433 0 0 0 1.067-1.07 1.434 1.434 0 0 0-.495-1.432l-6.048-6.064a1.425 1.425 0 0 0-1.157-.446h-.133zm40.384 0a1.422 1.422 0 0 0-.845.446l-6.049 6.064a1.434 1.434 0 0 0-.495 1.432c.122.529.539.947 1.067 1.07a1.426 1.426 0 0 0 1.429-.496l6.049-6.064a1.432 1.432 0 0 0 .311-1.644 1.422 1.422 0 0 0-1.467-.808zM30.075 15.78a1.164 1.164 0 0 0-.134.044 1.552 1.552 0 0 0-.267.045l-.044.044c-7.55.324-13.654 6.488-13.654 14.135 0 7.853 6.399 14.268 14.232 14.268 7.833 0 14.232-6.415 14.232-14.268 0-7.619-6.054-13.761-13.565-14.135-.05 0-.083-.044-.133-.044a1.356 1.356 0 0 0-.445-.089h-.222zm.044 2.853h.223c6.226.073 11.252 5.156 11.252 11.415 0 6.309-5.093 11.414-11.386 11.414-6.288 0-11.386-5.105-11.386-11.414 0-6.276 5.048-11.365 11.297-11.415zM1.344 28.621a1.441 1.441 0 0 0 .4 2.854h8.539c.512.005.99-.262 1.251-.708a1.442 1.442 0 0 0 0-1.438 1.43 1.43 0 0 0-1.251-.708H1.344zm48.389 0a1.442 1.442 0 0 0 .4 2.854h8.539c.512.005.99-.262 1.251-.708a1.442 1.442 0 0 0 0-1.438 1.43 1.43 0 0 0-1.251-.708H49.1h.766-.133zm-33.757 14.09a1.424 1.424 0 0 0-.845.446l-6.049 6.064a1.433 1.433 0 0 0-.494 1.432c.122.529.539.947 1.067 1.07a1.426 1.426 0 0 0 1.429-.496l6.048-6.064a1.426 1.426 0 0 0-1.022-2.452h-.134zm28.02 0a1.414 1.414 0 0 0-1.112 1.003c-.15.524.005 1.081.4 1.449l6.049 6.064c.344.424.895.619 1.428.496a1.433 1.433 0 0 0 1.068-1.07 1.436 1.436 0 0 0-.495-1.432l-6.049-6.064a1.415 1.415 0 0 0-1.023-.446h-.266zm-13.921 5.841a1.781 1.781 0 0 0-.178.044 1.429 1.429 0 0 0-1.112 1.427v8.561c-.006.513.261.992.706 1.254.445.256.99.256 1.434 0 .445-.262.712-.741.706-1.254v-8.561a1.422 1.422 0 0 0-1.556-1.471z"/>
</svg>
