<svg xmlns="http://www.w3.org/2000/svg" width="180" height="66">
    <path fill-rule="evenodd" d="M177.314 64.117h-12.41a1.734 1.734 0 0 1-1.734-1.734V28.296c0-8.37-5.046-12.678-12.184-12.678-7.754 0-13.539 4.554-13.539 15.264v31.501c0 .958-.776 1.734-1.733 1.734h-12.41a1.734 1.734 0 0 1-1.734-1.734V4.304c0-.958.776-1.734 1.734-1.734h12.41c.957 0 1.733.776 1.733 1.734v5.159c3.692-5.539 10.092-8.617 18.338-8.617 13.047 0 23.262 9.109 23.262 25.481v36.056c0 .958-.776 1.734-1.733 1.734zm-64.267-24.249H68.125c2.216 8.124 8.985 11.57 17.354 11.57 5.539 0 10.08-2.094 12.907-5.115.557-.595 1.463-.702 2.169-.294l9.825 5.669c.909.525 1.159 1.739.509 2.563-5.824 7.384-14.611 11.58-25.656 11.58-20.677 0-33.723-14.156-33.723-32.498C51.51 15.002 64.679.846 84.002.846c18.216 0 31.139 14.402 31.139 32.497 0 1.789-.144 3.434-.377 5.045a1.733 1.733 0 0 1-1.717 1.48zM84.002 15.125c-8.492 0-14.277 4.555-16.123 12.433h31.385c-1.969-8.863-8.616-12.433-15.262-12.433zM47.816 64.117H2.667a1.733 1.733 0 0 1-1.733-1.734v-8.852l25.969-36.067H3.898a1.734 1.734 0 0 1-1.734-1.734V4.304c0-.958.777-1.734 1.734-1.734h42.687c.957 0 1.734.776 1.734 1.734v8.29c0 .365-.116.721-.33 1.017L22.226 49.223h25.59c.957 0 1.733-.123 1.733 1.734v11.426c0 .958-.776 1.734-1.733 1.734z"/>
</svg>
