<svg xmlns="http://www.w3.org/2000/svg" width="151" height="56">
    <path fill-rule="evenodd" d="M149.34 53.1h-10.443c-.806 0-1.459.246-1.459-.56V23.855c0-7.043-4.246-10.669-10.254-10.669-6.525 0-11.393 3.833-11.393 12.845V52.54c0 .806-.653.56-1.459.56h-10.443c-.805 0-1.459.246-1.459-.56V3.665a1.46 1.46 0 0 1 1.459-1.459h10.443c.806 0 1.459.653 1.459 1.459v4.341c3.107-4.661 8.493-7.251 15.433-7.251 10.979 0 19.575 7.666 19.575 21.443V52.54c0 .806-.653.56-1.459.56zM95.258 33.593H57.455c1.864 6.837 7.561 9.737 14.604 9.737 4.661 0 8.482-1.762 10.861-4.304.469-.501 1.232-.591 1.826-.248l8.268 4.771c.764.441.975 1.463.428 2.156-4.901 6.214-12.296 9.745-21.59 9.745-17.401 0-28.379-11.913-28.379-27.347C43.473 12.668 54.555.755 70.816.755c15.329 0 26.204 12.12 26.204 27.348 0 1.505-.121 2.889-.317 4.245a1.459 1.459 0 0 1-1.445 1.245zM70.816 12.772c-7.147 0-12.015 3.832-13.568 10.462h26.411c-1.657-7.458-7.25-10.462-12.843-10.462zM40.364 53.1H2.37c-.806 0-1.459.246-1.459-.56v-7.449L22.765 14.74H3.406a1.46 1.46 0 0 1-1.459-1.46V3.665c0-.806.653-1.459 1.459-1.459h35.922c.806 0 1.459.653 1.459 1.459v6.977c0 .307-.097.606-.277.855L18.83 41.466h21.534c.806 0 1.459.653 1.459 1.459v9.615c0 .806-.653.56-1.459.56z"/>
</svg>
