<svg xmlns="http://www.w3.org/2000/svg" width="64" height="64">
    <path fill-rule="evenodd" fill="#131313" d="M.314 31.91c0 17.535 14.214 31.75 32.326 31.75 16.959 0 31.174-14.215 31.174-31.75S49.599.16 32.64.16C14.528.16.314 14.375.314 31.91zm42.361 3.413 1.556 3.207c.19.393.507.71.899.901l3.201 1.558a.824.824 0 0 1 0 1.481l-3.205 1.84c-.39-.089-.706.227-.895.617l-1.556 3.209a.822.822 0 0 1-1.479 0l-1.556-3.209c-.189-.39-.504-.706-.894-.617l-3.205-1.84a.824.824 0 0 1 0-1.481l3.201-1.558c.391-.191.708-.508.898-.901l1.556-3.207a.822.822 0 0 1 1.479 0zm6.072-17.374 1.19 2.454c.653.252.325.455.576.577l2.45 1.193c.449.219.449 1.147 0 1.078l-2.033.99a2.587 2.587 0 0 0-1.195 1.197l-.988 2.037a.598.598 0 0 1-1.076 0l-.988-2.037c-.253-.522.117-.943-1.196-1.197l-2.034-.991c-.053.07-.053-.858 0-1.077l2.033-.99c1.314-.255.944-.677 1.197-1.199l.988-2.035a.598.598 0 0 1 1.076 0zM24.669 15.81l3.29 6.782a2.84 2.84 0 0 0 1.311 1.314l7.13 3.296c.425.383.425 1.502 0 2.668l-7.13 2.512a2.84 2.84 0 0 0-1.31 1.313l-3.291 6.783c-.381.786-1.5.786-1.881 0l-3.292-6.784a2.843 2.843 0 0 0-1.31-1.312l-6.77-2.512c-.785-1.166-.785-2.285 0-2.667l6.77-3.297a2.843 2.843 0 0 0 1.311-1.313l3.291-6.783c.381-.57 1.5-.57 1.881 0z"/>
</svg>
