<svg xmlns="http://www.w3.org/2000/svg" width="32" height="32" viewBox="0 0 32 32" fill="none">
  <path fill-rule="evenodd" clip-rule="evenodd" d="M22.9879 10.6027C22.3224 9.9139 21.3241 9.68429 20.5477 10.3731L18.2184 12.21V5.22205C18.2184 4.18882 17.4419 3.5 16.5546 3.5L15.4454 3.5C14.4471 3.5 13.7816 4.30363 13.7816 5.22205L13.7816 12.21L11.4523 10.3731C10.6759 9.79909 9.56673 9.9139 9.01213 10.7175L8.34662 11.636C7.79203 12.4396 7.90295 13.4728 8.67938 14.1616L14.669 18.9834C15.4454 19.6722 16.5546 19.6722 17.4419 18.9834L23.3206 14.0468C24.0971 13.4728 24.208 12.3248 23.6534 11.5211L22.9879 10.6027Z" fill="#939393"/>
  <path d="M6.75 19.25C6.75 18.4216 7.42157 17.75 8.25 17.75H9.25C10.0784 17.75 10.75 18.4216 10.75 19.25V23.5C10.75 24.0523 11.1977 24.5 11.75 24.5H20.25C20.8023 24.5 21.25 24.0523 21.25 23.5V19.25C21.25 18.4216 21.9216 17.75 22.75 17.75H23.75C24.5784 17.75 25.25 18.4216 25.25 19.25V27C25.25 27.8284 24.5784 28.5 23.75 28.5H8.25C7.42157 28.5 6.75 27.8284 6.75 27V19.25Z" fill="#939393"/>
</svg>