<svg xmlns="http://www.w3.org/2000/svg" width="310" height="73">
    <path fill-rule="evenodd" fill="#CDCDCD" d="M292.462 62.171c-5.774 0-11.032-1.208-15.022-4.411l4.261-7.009c3.1 2.857 6.779 4.468 10.683 4.468 7.518 0 9.83-4.26 9.83-10.373V42.58h-.112c-2.275 3.028-6.291 5.27-10.182 5.27-9.316 0-15.467-7.861-15.467-16.616 0-8.474 5.762-16.244 15.337-16.244 4.336 0 8.42 1.678 10.695 5.418h.122v-4.639H310v28.168c0 11.813-5.429 18.234-17.538 18.234zm.956-40.216c-5.448 0-9.192 3.723-9.192 9.209 0 5.446 3.897 8.952 9.136 8.952 5.758 0 9.251-3.934 9.251-8.726 0-5.712-3.153-9.435-9.195-9.435zm-29.494 8.191v16.55h-7.766V15.769h7.766v4.897h.626c1.195-3.545 4.616-5.676 8.7-5.676.977 0 1.88.194 3.05.463v7.469c-1.556-.315-2.798-.577-4.031-.577-7.312 0-8.345 6.123-8.345 7.801zm-28.183 11.132c3.888 0 6.412-1.809 9.179-3.288l4.738 3.288c-3.188 4.445-8.221 6.18-13.127 6.18-9.407 0-16.908-6.506-16.908-16.231 0-9.725 7.501-16.237 16.908-16.237 8.673 0 15.399 6.47 15.399 16.821v2.119h-24.538c.508 4.572 4.013 7.348 8.349 7.348zm7.592-13.139c-.072-4.512-3.044-7.352-7.904-7.352-4.597 0-7.452 2.897-8.027 7.352h15.931zm-42.568 19.319c-4.345 0-8.42-1.678-10.035-4.888h-.778v4.126h-7.39V.1h7.769v19.603h.196c1.616-2.014 4.738-4.713 11.303-4.713 8.118 0 14.275 7.77 14.275 16.237 0 9.141-5.771 16.231-15.34 16.231zm-1.556-25.509c-5.709 0-8.479 4.451-8.479 9.285 0 5.546 2.783 9.282 8.479 9.282 5.715 0 9.139-3.806 9.139-9.282 0-4.834-3.433-9.285-9.139-9.285zm-30.708 7.217c0-3.86-1.151-7.211-5.758-7.211-4.859 0-6.053 3.992-6.053 7.983v16.758h-8.381v-18.43c0-3.81-1.557-6.311-5.314-6.311-5.111 0-7.125 3.723-7.125 7.852v16.882h-7.767c.807.007.807-30.92.807-30.92h6.571v4.834h.121c1.36-2.904 4.333-5.613 9.519-5.613 4.791 0 8.109 1.863 9.724 5.733 2.267-3.924 5.569-5.733 10.805-5.733 7.704 0 10.624 5.871 10.624 13.287v18.426h-7.773V29.166zM133.52 67.922V57.247h3.408v15.354h-4.464l-6.723-10.923h-.044v10.923h-3.396V57.247h4.62l6.558 10.675h.041zm-27.057-20.457c-8.803 0-16.905-6.496-16.905-16.231 0-9.732 8.102-16.244 16.905-16.237 9.388 0 16.903 6.505 16.903 16.237 0 9.735-7.515 16.231-16.903 16.231zm0-25.499c-5.709 0-9.139 4.434-9.139 9.268 0 5.376 3.44 9.272 9.139 9.282 5.7 0 9.118-3.906 9.118-9.282 0-4.824-3.418-9.268-9.118-9.268zM89.604 61.1c.086-.778-1.637-1.121-2.459-1.121-.958 0-2.297.447-2.297 1.602 0 2.796 7.097.987 7.097 6.364 0 3.424-2.761 5.053-5.645 5.053-2.07 0-4.02-.581-5.486-1.228l2.419-3.355c.712.92 2.517 1.444 2.966 1.444 1.114 0 2.356-.5 2.356-1.595 0-2.806-7.231-1.299-7.231-6.418 0-3.266 2.855-4.989 5.89-4.989 1.731 0 3.415.464 4.725 1.608L89.604 61.1zM69.153 47.465c-9.4 0-16.908-6.496-16.908-16.231 0-9.732 7.508-16.244 16.908-16.237 9.389 0 17.377 6.505 17.377 16.237 0 9.735-7.988 16.231-17.377 16.231zm0-25.499c-5.708 0-9.013 4.434-9.013 9.268 0 5.376 3.314 9.272 9.013 9.282 5.694 0 9.115-3.906 9.115-9.282 0-4.824-3.421-9.268-9.115-9.268zM39.305.1h8.225v46.596h-8.225V.1zm-5.357 33.585c0 9.929-8.685 13.011-17.354 13.011H.9V1.79h17.054c6.926 0 14.166 2.441 14.166 10.756 0 5.16-3.355 8.577-7.6 9.977v.137c5.294.652 9.428 5.16 9.428 11.025zM14.978 8.31H8.242v11.319h7.446c5.444 0 8.162-2.32 8.162-5.734 0-3.927-2.718-5.585-8.872-5.585zM16.8 26.588H8.245v13.149h7.508c4.206 0 10.052-.517 10.052-6.367 0-5.104-3.126-6.782-9.005-6.782zm-4.598 33.66H7.791v12.364h-3.39V60.248H0v-3.001h12.202v3.001zm13.335.131h-7.072v2.87h6.689v3.115h-6.689v3.122h7.47v3.115H15.56V57.247h9.977v3.132zm7.875 9.107H39.7v3.115h-9V57.247h2.712v12.239zm19.997-9.107h-7.076v2.87H53.2v3.115h-6.867v3.122h7.471v3.115H42.925V57.247h10.484v3.132zm10.073 6.935h.037l3.888-10.067h4.053l-6.777 15.354H61.96l-6.17-15.354h3.888l3.804 10.067zm13.678 5.287h-3.552V57.247h3.552v15.354zm22.349 0h-3.408V57.247h3.408v15.354zm11.592-15.733c4.8 0 8.321 3.262 8.321 8.07 0 4.921-3.514 8.06-8.321 8.06-4.828 0-8.329-3.146-8.329-8.07 0-4.328 3.501-8.06 8.329-8.06zm0 13.008c2.886 0 4.785-2.085 4.785-4.938 0-2.128-1.899-4.938-4.785-4.938-2.91 0-4.793 2.81-4.793 4.938 0 2.853 1.889 4.938 4.793 4.938z"/>
</svg>
