<svg xmlns="http://www.w3.org/2000/svg" width="311" height="54">
    <path fill-rule="evenodd" fill="#CDCDCD" d="M289.749 53.51H274.54V14.526h15.128c12.239 0 21.073 7.268 21.073 19.249 0 11.934-8.793 19.735-20.992 19.735zm.881-30.675h-6.886v21.904h6.886c6.228 0 10.185-5.247 10.185-10.964 0-5.968-3.633-10.94-10.185-10.94zm-37.986 22.847c3.303 0 7.776-1.369 10.282-3.739l4.569 6.687c-3.844 3.487-9.955 5.32-15.94 5.32-11.795 0-20.697-7.17-20.697-20.175 0-11.121 8.348-20.108 20.052-20.108 11.62 0 19.393 8.597 19.393 21.045v3.108H241.5c.729 3.941 5.23 7.862 11.144 7.862zm7.888-15.569c-.324-3.679-2.901-8.168-9.622-8.168-6.319 0-9.077 4.351-9.481 8.168h19.103zm-50.088 15.569c3.299 0 7.769-1.369 10.278-3.739l4.573 6.687c-3.847 3.487-9.955 5.32-15.944 5.32-11.803 0-20.7-7.17-20.7-20.175 0-11.121 8.649-20.108 20.053-20.108 11.626 0 19.396 8.597 19.396 21.045v3.108h-28.806c.926 3.941 4.576 7.862 11.15 7.862zm7.881-15.569c.175-3.679-2.907-8.168-9.621-8.168-6.319 0-9.074 4.351-9.479 8.168h19.1zM166.42 21.46h19.367v9.515H166.42V52.99h-11.31V.1h37.031v9.827H166.42V21.46zm-46.888 23.97 17.462-22.014h-17.462v-8.809h31.352v7.228L133.82 44.172h17.384v8.808h-31.672v-7.55zm-35.025 0 17.469-22.014H84.507v-8.809h31.348v7.228L98.57 44.172h17.609v8.808H84.507v-7.55zm-21.74 8.567c-12.526 0-18.531-6.848-18.531-16.375V14.607h10.245v22.696c0 4.569 2.798 7.879 8.252 7.879 6.257 0 8.205-3.31 8.205-7.879V14.607h10.21v22.985c0 9.638-5.849 16.405-18.381 16.405zM41.105 38.592c0 8.02-5.301 14.388-15.552 14.388H.791V.1h23.866C34.823.1 40.56 6.44 40.56 13.486c0 7.164-4.685 11.118-9.737 12.159 5.778.859 10.282 6.485 10.282 12.947zM22.182 9.927h-9.986V21.46h9.986c4.118 0 6.251-2.543 6.251-5.953 0-3.27-2.043-5.58-6.251-5.58zm.473 21.048H12.196V43.6h10.503c4.208-.1 6.783-2.779 6.783-6.49 0-3.446-1.602-6.135-6.827-6.135z"/>
</svg>
