<svg xmlns="http://www.w3.org/2000/svg" width="311" height="60">
    <path fill-rule="evenodd" fill="#CDCDCD" d="m1.135 40.723 4.405-.614V4.424L.677 3.86.908 0h27.374l-.685 10.813-5.454-.165-.342-6.778h-8.458v16.08h3.977l.565-3.699 3.804.114V27.45h-3.804l-.906-3.811h-3.692v17.03h8.52l.8-7.392 5.737.165.454 11.259H.961l.174-3.978zm30.213 4.035.168-3.307 3.063-.614V18.322l-3.079-.339v-3.357l8.48-1.292.681 1.906v1.289c2.164-2.242 4.772-3.585 8.128-3.585 4.884 0 8.516 2.911 8.516 8.685V40.79l3.241.618-.168 3.306H49.682v-21.41c0-3.085-1.13-4.817-3.975-4.817-.965 0-1.137.164-2.391.449-.454.39-.912.954-.416 1.457v20.504l2.35.615v3.31H31.348v-.064zm171.561 0 .341-3.307 3.63-.614V18.322l-4.369-.339v-3.357l8.977-1.292.685 1.906v1.289c2.157-2.242 4.772-3.585 8.124-3.585 4.881 0 8.52 2.911 8.52 8.685V40.79l3.723.618-.651 3.306h-10.617v-21.41c0-3.085-1.136-4.817-3.978-4.817-.969 0-1.653.164-2.391.449-.458.39-.915.954-1.307 1.457v20.504l3.24.615-.23 3.31h-13.684v-.064h-.013zm-125.448-.614c-1.245.503-3.261 1.067-6.357 1.067-3.807 0-7.327-1.682-7.327-6.801V18.322l-3.633-.564.165-3.921 4.09-.164 1.759-5.992 5.227-.229v6.446H77.6l-.992 3.921-5.161.563V38.98c0 .746.912 1.81 3.173 1.81h2.508l.333 3.354zm212.719.614-.047-3.246 3.207-.675V18.322l-3.718-.339v-3.357l9.314-1.292.622 2.185v.725c2.642-1.792 5.737-2.971 9.715-2.971l1.361 1.179-.965 8.513-5.115-.165-.084-4.538c-1.618.164-2.751.503-3.716 1.175v21.46l3.24.675-.227 3.25H290.18v-.064zm-133.897 0 .171-3.246 2.895-.675V18.322l-3.409-.339v-3.357l9.314-1.292.619 2.185v.725c2.444-1.792 5.74-2.971 9.715-2.971l1.358 1.179-1.077 8.513-5.112-.165-.51-4.538c-.727.164-2.325.503-3.294 1.175v21.46l3.244.675-.23 3.25h-13.684v-.064zm-76.556 0 .171-3.246 2.895-.675V18.322l-3.409-.339v-3.357l9.311-1.292.622 2.185v.725c2.447-1.792 6.223-2.971 9.656-2.971l1.36 1.179-.968 8.513-5.108-.165-.51-4.538c-1.195.164-2.325.503-3.294 1.175v21.46l3.241.675-.23 3.25H79.721l.006-.064zm29.419-13.408c0 5.063 2.39 9.208 7.1 9.208 2.441 0 4.37.022 6.649-1.567l1.307 2.971c-2.328 1.846-5.736 3.249-9.995 3.249-8.289 0-13.061-7.06-13.061-15.431 0-8.437 3.461-16.896 13.804-16.896 7.435 0 10.56 7.56 10.56 15.969l-.8 2.017-15.564.48zm.194-3.9 9.234-.45c-.171-3.75-.968-9.692-4.719-9.692-.902 0-1.534.165-2.667 1.062-1.532 2.245-1.848 6.898-1.848 9.08zm131.788 3.9c0 5.063 2.388 9.208 7.097 9.208 2.441 0 4.374.022 6.646-1.567l1.311 2.971c-2.326 1.846-5.737 3.249-9.992 3.249-8.293 0-13.059-7.06-13.059-15.431 0-8.437 3.456-16.896 13.609-16.896 7.621 0 10.749 7.56 10.749 15.969l-.791 2.017-15.57.48zm.032-3.9 9.391-.45c-.165-3.75-.965-9.692-4.71-9.692-.912 0-1.541.165-2.674 1.062-1.531 2.245-2.007 6.898-2.007 9.08zm-55.461 3.9c0 5.063 3.131 9.208 7.094 9.208 2.443 0 4.373.022 6.646-1.567l1.307 2.971c-2.325 1.846-5.596 3.249-9.995 3.249-8.29 0-13.055-7.06-13.055-15.431 0-8.437 3.458-16.896 12.943-16.896 8.292 0 11.961 7.56 11.961 15.969l-1.34 2.017-15.561.48zm-.115-3.9 9.537-.45c-.165-3.75-.965-9.692-4.719-9.692-.903 0-1.534.165-2.664 1.062-1.523 2.245-2.207 6.898-2.154 9.08zm93.365 17.308-.797-2.098c-1.552 1.6-4.032 2.541-7.322 2.541-4.88 0-9.257-2.407-9.257-9.074V17.526l-3.577-.335V14.22l10.338-.8.794 2.314v19.494c0 3.417 1.422 5.21 4.196 5.21.797 0 1.821-.111 3.186-.447.07-.527 1.11-1.111.96-1.739V17.533l-3.689-.336v-2.97l10.45-.747 1.049 2.261v25.096l2.991.614-.395 3.307h-8.927zM141.2 40.723c-1.848 0-2.66-.275-3.93-.839V20.115c.212-.678.725-1.289 1.233-1.847.965-.335 1.814-.449 2.835-.449 4.259 0 4.996 4.961 4.996 11.88 0 7.701-1.133 9.811-1.422 10.191a8.601 8.601 0 0 1-3.712.833zm12.524-12.374c0-9.466-2.836-15.405-9.939-15.405-4.065 0-6.929 2.693-7.835 3.81V15.69l-.797-2.692-9.257 1.289v3.246l3.579.45v38.205l-3.069.618-.165 3.192h13.681l.23-3.192-3.24-.618V44.93c1.307-.108 3.458.338 5.288.338 11.415-.007 11.524-11.601 11.524-16.919z"/>
</svg>
