<svg xmlns="http://www.w3.org/2000/svg" width="311" height="44">
    <path fill-rule="evenodd" fill="#CDCDCD" d="M273.564 5.71c0-3.008.946-4.049 3.316-4.049.783 0 2.044.628 3.513 4.049l8.924 20.03v12.663c0 3.011-.747 3.837-4.728 4.25v.826h17.221v-.826c-4.3-.413-5.461-1.346-5.461-4.25V25.74l8.616-19.299c1.684-3.739 3.359-4.568 5.884-4.981V.624h-12.084v.829c4.099.41 5.569 1.657 4.414 4.25l-7.568 17.124-7.781-17.54c-1.049-2.384-.414-3.116 4.099-3.74V.731h-25.954v.826c4.765.625 5.354 1.346 5.354 4.25v23.452L252.341.731h-9.357v.826c3.326.413 3.99 1.346 3.99 4.25V38.5c0 3.008-.837 4.049-1.124 4.049-1.709 0-2.238-.417-3.595-4.049L228.176.52h-.837l-13.557 36.315c-1.469 4.049-3.782 5.395-6.091 5.915v.826h13.229v-.826c-5.133-.413-6.503-2.078-5.556-4.77l3.044-8.298h12.822l2.941 7.778c1.267 3.531.526 4.82-2.991 5.193v.826h23.377v-.826c-4.097-.373-5.351-1.346-5.351-4.25V9.134l23.016 34.452h1.363V5.71h-.021zM107.652 21.997c0-13.276 6.898-20.235 13.873-20.235 4.411 0 7.25.93 8.928 2.699 1.267 1.249 2.21 3.008 3.259 5.807h.84V1.346C130.251.52 126.353 0 122.472 0c-11.25 0-22.914 7.163-22.914 21.997 0 14.838 11.664 22.002 22.173 22.002 4.622 0 8.722-.729 12.607-1.867l1.263-8.402-.74-.212a22.58 22.58 0 0 1-3.359 4.673c-2.733 2.703-5.512 4.156-10.086 4.156-7.143-.107-13.764-6.855-13.764-20.35zm93.206 1.253c-.946 0-2.213-.108-3.471-.309V2.182h3.471c5.784 0 8.305 3.011 8.305 10.48 0 7.576-2.633 10.588-8.305 10.588zM65.831.624v10.269h.841c1.264-6.54 3.885-8.614 8.302-8.614h2.836v36.114c0 3.011-1.996 3.837-5.464 4.253v.826h16.495v-.826c-3.57-.416-4.731-1.35-4.731-4.253V2.182h2.104c4.408 0 7.038 2.077 8.305 8.613h.837V.52H65.831v.104zM52.698 43.999c7.147 0 14.712-4.049 14.712-12.347 0-4.874-2.628-8.923-7.25-11.414l-8.196-4.458c-4.308-2.386-5.575-4.568-5.575-6.85 0-4.365 2.801-7.161 7.567-7.161 2.416 0 4.205.624 5.672 1.97 1.27 1.249 2.527 3.821 3.682 7.056h1.2V1.346C61.103.52 58.56 0 54.482 0c-7.038 0-12.299 4.353-12.299 11.729 0 4.672 2.628 8.922 6.933 11.413l7.567 4.156c4.305 2.384 5.674 4.673 5.674 8.094 0 4.048-4.202 6.955-8.831 6.955-3.044 0-5.565-1.04-7.349-2.799-.987-1.145-2.412-2.904-3.262-5.194h4.934v-.825c-1.361-.309-2.207.271-3.356-3.223l-9.659-22.73h-.837l-9.463 22.203c-1.267 3.011-2.104 3.528-3.577 3.739v.826h8.405v-.826c-3.048-.308-3.882-1.759-3.153-3.635l1.472-3.528h8.507l2.592 4.357c.132 1.971-1.119 2.491-4.167 2.702v.826h6.727v8.201c3.368.933 7.85 1.558 11.358 1.558zm106.757-.413 12.504-34.345.946 29.259c.895 2.904-1.055 3.74-4.629 4.153v.826h34.472v-.826c-4.103-.373-5.361-1.346-5.361-4.25V24.596c1.364.211 2.74.309 3.789.309 8.305 0 15.442-3.008 15.442-12.146 0-9.134-7.144-12.145-15.442-12.145h-14.817v.829c3.044.413 3.987 1.346 3.987 4.25v32.69c0 3.011-.496 4.253-4.725 4.253h-.112c-3.679 0-5.254-1.346-5.354-4.156l-1.264-32.673c-.106-3.008.946-3.944 5.069-4.354V.624h-11.055l-11.137 30.82L150.627.624h-10.926v.829c3.262.41 4.599 1.45 4.209 4.354l-1.158 31.337c-.109 3.115-1.784 4.982-4.831 5.502v.826h11.557v-.826c-2.944-.416-4.625-2.279-4.519-5.502l.946-28.537 12.706 34.872.844.107zm-33.519-9.027c5.566 0 12.716-4.877 12.716-12.562 0-7.573-7.041-12.554-12.716-12.554-5.572 0-12.712 4.874-12.712 12.554 0 7.58 7.035 12.562 12.712 12.562zm0-23.347c3.574 0 5.986 2.903 5.986 10.785 0 7.993-2.521 10.793-5.986 10.793-3.576 0-5.989-2.907-5.989-10.793 0-7.197 2.413-10.785 5.989-10.785zm104.761 16.7H219.34l5.474-15.77 5.883 15.77zM35.671 24.7h-7.146l4.455-7.84 2.691 7.84zM22.13 26.875h.717V14.8h-.717c-1.481 3.777-2.854 4.814-5.375 4.814h-4.828V2.182h7.67c5.203 0 7.041 2.077 8.308 8.613h.837V.52H.895v.826c3.045.416 3.991 1.356 3.991 4.26v32.693c0 3.008-.946 3.833-3.991 4.25v.825H17.29v-.825c-4.099-.625-5.357-1.35-5.357-4.25V21.172h4.831c2.416.097 3.885 1.134 5.366 5.703z"/>
</svg>
