<svg xmlns="http://www.w3.org/2000/svg" width="123" height="124">
    <path fill-rule="evenodd" fill="#ffffff" d="M.312 61.987c0 33.787 27.389 61.177 61.176 61.177 33.786 0 61.175-27.39 61.175-61.177 0-33.782-27.389-61.172-61.175-61.172C27.701.815.312 28.205.312 61.987zm81.625 6.578 2.996 6.182a3.76 3.76 0 0 0 1.731 1.732l6.171 3.004c1.19.578 1.19 2.273 0 2.851l-6.179 3.009a3.752 3.752 0 0 0-1.723 1.728l-2.996 6.181c-.579 1.191-2.273 1.191-2.852 0l-2.996-6.181a3.718 3.718 0 0 0-1.724-1.728l-6.171-3.009c-1.189-.578-1.189-2.273 0-2.851l6.164-3.004a3.764 3.764 0 0 0 1.731-1.732l2.996-6.182c.579-1.187 2.273-1.187 2.852 0zm11.696-33.478 2.296 4.732c.233.482.624.875 1.106 1.111l4.727 2.299c.865.422.865 1.656 0 2.074l-3.921 1.91a5.011 5.011 0 0 0-2.304 2.307l-1.904 3.925a1.15 1.15 0 0 1-2.07 0l-1.904-3.925a5.009 5.009 0 0 0-2.303-2.307l-3.921-1.91c-.866-.418-.866-1.652 0-2.074l3.921-1.91a5 5 0 0 0 2.303-2.311l1.904-3.921a1.15 1.15 0 0 1 2.07 0zM47.24 30.968l6.345 13.068a5.467 5.467 0 0 0 2.521 2.53l13.044 6.355c1.512.735 1.512 2.889 0 3.629L56.106 62.9a5.477 5.477 0 0 0-2.521 2.526L47.24 78.498c-.73 1.513-2.89 1.513-3.62 0l-6.345-13.072a5.463 5.463 0 0 0-2.521-2.526L21.71 56.55c-1.513-.74-1.513-2.894 0-3.629l13.044-6.355a5.481 5.481 0 0 0 2.521-2.526l6.345-13.072c.73-1.513 2.89-1.513 3.62 0z"/>
</svg>
