<svg xmlns="http://www.w3.org/2000/svg" width="311" height="50">
    <path fill-rule="evenodd" fill="#CDCDCD" d="M297.615 11.291a14.273 14.273 0 0 0-6.245-1.46c-1.57 0-4.227.399-5.958 2.069-1.715-.112-3.203.969-4.441 2.342-1.239 1.386-2.207 2.977-2.251 5.248-1.335 1.358-1.27 3.322-1.27 5.4v.91c0 2.09-.065 3.69 1.27 5.079.044 1.833 1.002 3.441 2.219 4.81 1.221 2.201 2.687 2.481 4.414 3.29 2.457.809 3.624 1.212 6.087 1.212 2.361 0 4.696-.5 7-1.521 1.512-1.02 3.408-2.39 5.294-4.132l6.752 6.831a34.922 34.922 0 0 1-3.866 3.572 22.942 22.942 0 0 1-4.374 2.729c-1.587.779-3.312 1.43-4.766 1.739-2.312.369-3.97.588-6.776.588-3.533 0-6.82-.658-9.855-1.607-3.035-1.619-5.65-3.392-7.853-5.631-2.211-2.239-3.416-4.851-5.174-7.889-1.242-3.041-1.858-6.271-1.858-9.752v-.121c0-3.447.616-6.676 1.858-9.688 1.878-3.011 2.963-5.68 5.174-7.949 2.203-2.259 4.846-4.072 7.925-5.371C283.993.65 287.389.1 291.115.1c2.254 0 4.305.11 6.16.479 1.856.369 3.546.87 5.062 1.521a21.774 21.774 0 0 1 4.205 2.36c1.289.899 3.158 1.92 3.586 3.011l-6.764 7.828c-1.874-1.708-3.791-3.048-5.749-4.008zm-38.132 34.53c-1.585 1.107-3.496 1.92-5.721 2.477-2.229.561-4.052.843-7.409.843h-22.944V.821h22.396c4.962 0 8.856 1.118 11.683 3.39 2.826 2.27 4.245 5.277 4.245 9.098v.161c0 1.359-.183 2.94-.523 3.659a11.38 11.38 0 0 1-1.375 2.86 11.39 11.39 0 0 1-1.996 2.239c-.099.661-1.581 1.222-2.449 1.652 2.798 1.06 5.002 2.521 6.608 4.32 1.622 2.1 2.416 4.351 2.416 7.58v.121c0 2.209-.418 4.399-1.274 5.791-.852 1.648-1.4 3.038-3.657 4.129zm-8.286-30.693c0-1.618-.598-2.83-1.8-3.699-1.198-.839-2.922-1.269-5.17-1.269h-10.471v10.208h9.783c2.344 0 4.199-.399 5.581-1.208 1.379-.809 2.067-1.68 2.067-3.881h.01v-.151zm2.695 19.309c0-1.578-.619-2.887-1.552-3.82-1.554-.927-3.55-1.396-5.98-1.396h-12.598v10.628h12.61c2.35 0 4.174-.43 5.516-1.269 1.326-.87 1.995-2.179 1.995-3.982h.009v-.161zm-69.331-15.986v30.706h-9.691V.841h9.003l22.605 29.749V.841h10.472v48.316h-9.027l-23.362-30.706zm-19.691 27.48c-1.569 1.269-3.428 2.239-5.582 2.917-2.157.652-4.554.991-7.168.991-3.677 0-7.291-.621-10.824-1.89-3.533-1.269-6.751-3.199-9.646-5.838l6.269-7.523c2.207 1.813 4.464 3.233 6.792 4.29 2.679 1.051 4.862 1.582 7.62 1.582 2.204 0 3.913.14 5.13-1.209 1.217-.802 1.827-1.92 1.827-3.35v-.121c0-.06-.127-1.303-.379-1.83-.249-.53-.741-1.02-1.448-1.49-.719-.47-1.709-.94-2.966-.56-1.264-1.283-2.917-1.77-4.931-2.27-2.425-.24-4.632-1.272-6.612-2.021-1.976-.708-3.651-1.641-5.033-2.699-1.379-1.091-2.444-2.46-3.206-4.042-.757-1.608-1.133-3.628-1.133-6.019v-.12c0-2.199.408-4.19 1.239-5.959a13.143 13.143 0 0 1 3.48-4.602c1.503-1.299 3.278-2.296 5.341-2.978 2.067-.681 4.349-1.02 6.82-1.02 3.537 0 6.793.52 9.756 1.581a28.007 28.007 0 0 1 8.168 4.569l-5.51 7.979c-2.16-1.46-4.277-2.608-6.344-3.481-2.067-.839-4.13-1.269-6.197-1.269-2.07 0-3.627.403-4.654 1.212-1.027.809-1.547 1.799-1.547 3.008v.12c0 .779.15 1.461.448 2.051.302.561.838 1.27 1.619 1.551.778.427 2.251.9 3.206 1.3 1.345.399 3.066.899 5.13 1.46 2.437.617 4.604 1.359 6.935 2.168 1.482.813 3.091 1.773 4.396 2.891a11.109 11.109 0 0 1 2.969 3.978c.666 1.52.996 3.32.996 5.431v.161c0 2.387-.439 4.499-1.307 6.358-.878 1.863-2.089 3.451-3.654 4.693zm-47.075-28.322-13.581 20.652h-.28L90.496 17.83v31.327H80.8V.841h10.72l12.684 20.427L116.883.841h11.442v48.316h-10.53V17.609zM66.365 49.7H41.8l19.821-14.85c1.498-.99 3.014-1.4 5.109-1.4 2.748 0 5.69 2.39 6.683 5.428 1.466 4.881-1.868 10.822-7.048 10.822zm-24.164-3.299 10.3-23.79c1.681-4.072 5.449-5.502 7.312-5.502 2.294 0 4.47 1.02 5.646 2.329 2.83 2.834 4.521 8.48-.899 12.022L42.201 46.401zm.219-2.702-3.864-23.2c-.29-3.538 1.926-3.639 2.745-4.29-.149-.53-.871-.53-.871-.53h-2.463c-.211-5.711 4.323-8.42 7.788-8.42.2 0 .399.031.589.031 4.152.157 8.825 4.938 6.599 10.678L42.42 43.699zm-10.012 0L21.432 18.39c-1.862-6.75 2.963-10.943 6.521-11 4.387-.46 9.192 2.9 8.308 9.349l-3.853 26.96zm-.072 2.79-21.88-14.882C4.975 27.978 6.83 21.798 9.13 19.99c4.293-4.489 10.372-3.281 12.601 2.399l10.605 24.1zM12.894 34.84 33.435 49.6H8.53v.1c-5.189 0-7.8-5.35-7.636-11.1 1.927-5.002 7.256-6.771 12-3.76z"/>
</svg>
