<svg width="23" height="23" viewBox="0 0 23 23" fill="none" xmlns="http://www.w3.org/2000/svg">
<path fill-rule="evenodd" clip-rule="evenodd" d="M17.8833 22.501V14.201C17.8833 14.201 17.8833 11.444 15.4733 11.444C13.0638 11.444 12.7403 13.7945 12.7403 14.8395V22.501H8.06484V7.87352H12.5638V9.87652C12.5638 9.87652 13.5918 7.43852 17.2083 7.43852C20.8238 7.43852 22.4998 9.70202 22.4998 13.8235V22.501H17.8833ZM2.85234 5.81002C1.36734 5.81002 0.162842 4.62152 0.162842 3.15452C0.162842 1.68802 1.36734 0.499023 2.85234 0.499023C4.33834 0.499023 5.54334 1.68802 5.54334 3.15452C5.54334 4.62152 4.33834 5.81002 2.85234 5.81002ZM5.15534 22.501H0.479842V7.87352H5.15534V22.501Z" fill="white"/>
</svg>
