<svg width="23" height="23" viewBox="0 0 23 23" fill="none" xmlns="http://www.w3.org/2000/svg">
<path fill-rule="evenodd" clip-rule="evenodd" d="M10.1228 16.3248L17.1255 22.3546C18.1928 23.2739 19.6778 22.5048 19.8813 20.9278L22.2836 2.24605C22.4547 0.913177 21.3653 -0.13317 20.3467 0.385364L0.59034 10.4295C-0.151223 10.8123 -0.106691 12.1139 0.657371 12.4201L3.47175 13.5465C4.22303 13.8475 5.0198 13.9333 5.80182 13.7974C6.58384 13.6614 7.33065 13.3073 7.98581 12.7617L16.2771 5.83809C16.3508 5.77688 16.4399 5.75069 16.528 5.76433C16.6161 5.77798 16.6973 5.83053 16.7566 5.91233C16.8174 5.99719 16.8494 6.10777 16.846 6.22108C16.8426 6.33439 16.804 6.44172 16.7383 6.52076L10.0099 14.6769C9.91849 14.7874 9.84799 14.9215 9.80343 15.0697C9.75888 15.2178 9.74137 15.3763 9.75217 15.5338C9.76297 15.6913 9.80181 15.8439 9.86589 15.9807C9.92998 16.1174 10.0177 16.2349 10.1228 16.3248Z" fill="white"/>
</svg>
